<?xml version="1.0" encoding="UTF-8"?>
<svg id="_图层_1" data-name="图层 1" xmlns="http://www.w3.org/2000/svg" viewBox="0 0 78.92 61.85">
  <defs>
    <style>
      .cls-1 {
        fill: #fcb9d4;
        stroke: #603813;
        stroke-linecap: round;
        stroke-miterlimit: 10;
        stroke-width: 3px;
      }
    </style>
  </defs>
  <path class="cls-1" d="M38.57,59.12c-5.51-.41-9.78-6.4-14.48-10.85C16.28,39.79,4.07,28,2.91,16.39,2.39,9.97,7.07,2.73,13.84,2.39c5.75-.37,11.99,4.98,16.39,8.52,6.56,5.45,11.26,4.12,17.52-1.19,4.95-3.99,11.52-8.95,17.83-6.68,6.91,2.73,9.95,10.9,7.39,18.02-1.88,5.57-5.43,10.44-9.08,14.98-4.05,5.01-9,10.37-14.06,15.52-3.14,2.99-6.69,7.33-11.15,7.56h-.11Z"/>
</svg>