<?xml version="1.0" encoding="UTF-8"?>
<svg id="_图层_1" data-name="图层 1" xmlns="http://www.w3.org/2000/svg" viewBox="0 0 153.23 159.46">
  <defs>
    <style>
      .cls-1 {
        fill: none;
        stroke: #ff3e63;
        stroke-linecap: round;
        stroke-miterlimit: 10;
        stroke-width: 5px;
      }

      .cls-2 {
        fill: #fff8e9;
      }
    </style>
  </defs>
  <path class="cls-2" d="M126.22,130.61h0c-14.99-8.22-33.13,2.74-33.45,20.22-.11,5.82-7.89,7.29-10.01,1.9h0c-6.35-16.21-27.09-19.81-38.25-6.64h0c-3.72,4.39-10.6.36-8.85-5.17,5.26-16.62-8.38-33.1-25.15-30.39h0c-5.59.9-8.35-6.73-3.55-9.81h0c14.41-9.25,14.25-30.89-.29-39.92h0c-4.84-3.01-2.19-10.68,3.41-9.87h0c16.82,2.45,30.22-14.24,24.71-30.77-1.83-5.5,4.99-9.63,8.77-5.3h0c11.35,13,32.04,9.08,38.15-7.22h0c2.03-5.43,9.84-4.07,10.03,1.74h0c.58,17.47,18.87,28.15,33.74,19.7h0c4.95-2.81,10.08,3.39,6.6,7.97h0c-10.47,13.76-3.13,34.05,13.54,37.41h0c5.55,1.12,5.61,9.27.08,10.47h0c-16.62,3.62-23.66,24.01-13,37.61h0c3.55,4.53-1.49,10.81-6.48,8.07Z"/>
  <path class="cls-1" d="M74,76.78c-7.69-11.38-20.06,3.98-13.24,13.17,6.14,8.29,17.96,9.64,25.81,4.57,10.09-6.51,8.77-20.48,8.68-21.34-1.46-13.3-13.64-19.49-15.66-20.47-8.72-4.22-20.4-4.14-29.2,2.83-11.78,9.33-10.57,24.79-10.37,27.44.6,7.74,1.33,13.37,3.21,16.56,1.39,2.35,5.65,10.34,13.69,15.08,13.63,8.02,37.84,6.26,47.85-6.38,5.95-7.51,9.66-16.42,9.92-23.73.34-9.35-2.23-21.27-6.08-25.89"/>
</svg>