<svg xmlns="http://www.w3.org/2000/svg" viewBox="0 0 93.24 24.92">
  <path d="M16.23,16.64c-1.42-2.2-2.38-4.72-2.87-7.55-.43-1.28-.96-2.32-1.6-3.14-.64-.81-1.38-1.35-2.23-1.6-.85-.25-1.63-.23-2.34.05-1.06.36-1.88,1.28-2.45,2.77-.78,1.85-1.24,4.33-1.38,7.45-.21,1.56-.07,2.89.43,3.99.5,1.1,1.17,1.75,2.02,1.97s1.72-.03,2.61-.74c.89-.71,1.61-1.88,2.18-3.51.35-.99.71-1.88,1.06-2.66l.32.96c.35.64.85,1.63,1.49,2.98l.32.64c.14.42.43.69.85.8.43.11.8.02,1.12-.27.32-.28.51-.6.58-.96.07-.35.04-.75-.11-1.17ZM9.85,8.03c-.57,3.62-1.31,6.42-2.23,8.4l-.96,1.17c-.14.07-.25,0-.32-.21l-.32-.85c-.14-2.84.25-5.64,1.17-8.4l.43-.75c.14-.57.57-.74,1.28-.53.85.36,1.17.74.96,1.17Z"/>
  <path d="M33.62,15.21c-.5-1.38-1.31-2.3-2.45-2.77-1.14-.46-2.27-.12-3.4,1.01l-.64.74c-.5.5-.96.92-1.38,1.28l-1.49-10.11c-.07-.5-.14-.85-.21-1.06-.28-.57-.74-.8-1.38-.69s-.92.48-.85,1.12c-.14.21-.18.53-.11.96.64,3.19,1.42,8.02,2.34,14.47,0,.28-.07.67-.21,1.17-.28.78-.11,1.38.53,1.81.64.42,1.17.6,1.6.53,1.56.07,2.98-.28,4.26-1.06,1.28-.78,2.29-1.86,3.03-3.24.74-1.38.87-2.77.37-4.15ZM30,19.09c-.5.64-1.49,1.17-2.98,1.6.43-2.27,1.31-4.01,2.66-5.21.5-.35.89-.25,1.17.32.21,1.21-.07,2.31-.85,3.3Z"/>
  <path d="M51.86,11.54c-.14-1.84-.92-3.25-2.34-4.2-1.42-.96-3.16-1.15-5.21-.58-.85.36-1.45.82-1.81,1.38l-.43.64c-.57.36-1.06.92-1.49,1.7-.85,1.99-1.21,4.26-1.06,6.81.28,1.85.99,3.19,2.13,4.04,1.13.85,2.48,1.05,4.04.58,1.56-.46,2.8-1.29,3.72-2.5,2.06-2.2,2.87-4.82,2.45-7.87ZM48.61,15.69c-.6,1.49-1.51,2.55-2.71,3.19-.21,0-.39.07-.53.21-1.92.64-3.02-.07-3.3-2.13,0-1.98.25-3.72.74-5.21.28-.78.89-1.42,1.81-1.92.92-.5,1.74-.64,2.45-.43,1.13.21,1.83.94,2.07,2.18.25,1.24.07,2.61-.53,4.1Z"/>
  <path d="M68.5,10.58c-.28.43-.6,1.14-.96,2.13-.36,1.21-.71,2.06-1.06,2.55-.21.71-.64,1.42-1.28,2.13-.64.71-1.33,1.05-2.07,1.01-.74-.04-1.4-.43-1.97-1.17-.57-.75-.96-1.51-1.17-2.29-.85-2.69-1.38-5.46-1.6-8.3.07-.64.39-.99.96-1.06.57-.07.99.18,1.28.75l.43,1.38c.14,2.27.6,4.4,1.38,6.38.07.28.21.64.43,1.06l.21.42.32-.11c.43-.5.81-1.13,1.17-1.92l1.38-5.11c.21-.57.46-1.45.75-2.66l.21-.96c.21-.71.64-1.12,1.28-1.22.64-.11,1.1.16,1.38.8l.96,2.55c.21.99.71,2.62,1.49,4.89.07.36.35.89.85,1.6l.21.32c.21.21.34.53.37.96.04.43-.07.73-.32.9-.25.18-.57.28-.96.32-.39.04-.74-.05-1.06-.27-.32-.21-.64-.62-.96-1.22-.32-.6-.69-1.47-1.12-2.61l-.53-1.28Z"/>
  <path d="M83.44,8.98c-.85.14-1.42.28-1.7.43l-1.7.32c-.78-.14-1.22-.53-1.33-1.17-.11-.64.23-1.1,1.01-1.38l2.77-.64c.57-.14.81-.5.74-1.06-.14-1.13-.18-2.09-.11-2.87-.14-.85.12-1.31.8-1.38.67-.07,1.15.28,1.44,1.06l.53,3.4c.5-.14,1.24-.28,2.23-.43.35-.21.9-.37,1.65-.48s1.22.23,1.44,1.01c0,.21-.05.44-.16.69-.11.25-.3.48-.58.69l-4.57,1.38.21,2.13.96,5.64c.35.71.71,1.15,1.06,1.33.35.18.92.09,1.7-.27.43-.21.78-.28,1.06-.21.28.07.5.28.64.64.43.57.3,1.15-.37,1.75-.67.6-1.58.9-2.71.9s-1.99-.39-2.55-1.17c-.92-1.13-1.45-2.23-1.6-3.3l-.85-5.96c-.07-.35-.07-.71,0-1.06Z"/>
</svg>