<?xml version="1.0" encoding="UTF-8"?><svg id="_图层_1" xmlns="http://www.w3.org/2000/svg" viewBox="0 0 387.69 625.22"><defs><style>.cls-1{fill:#6d6d6d;}.cls-2{fill:#3d3d3d;}</style></defs><rect class="cls-1" x="193.97" y="350.09" width="9.95" height="9.95"/><rect class="cls-1" x="174.07" y="369.99" width="9.95" height="9.95"/><rect class="cls-1" x="154.17" y="370.02" width="9.95" height="9.95"/><rect class="cls-1" x="164.12" y="389.81" width="9.95" height="9.95"/><rect class="cls-1" x="164.12" y="379.9" width="9.95" height="9.95"/><rect class="cls-1" x="164.12" y="370.02" width="9.95" height="9.95"/><rect class="cls-1" x="193.97" y="340.14" width="9.95" height="9.95"/><rect class="cls-1" x="203.92" y="260.53" width="9.95" height="9.95" transform="translate(417.79 531.02) rotate(180)"/><rect class="cls-1" x="184.02" y="360.04" width="9.95" height="9.95" transform="translate(377.99 730.02) rotate(180)"/><rect class="cls-1" x="203.92" y="270.48" width="9.95" height="9.95" transform="translate(417.79 550.92) rotate(180)"/><rect class="cls-1" x="203.92" y="280.43" width="9.95" height="9.95" transform="translate(417.79 570.82) rotate(180)"/><rect class="cls-1" x="203.92" y="290.38" width="9.95" height="9.95" transform="translate(417.79 590.72) rotate(180)"/><rect class="cls-1" x="154.17" y="389.85" width="9.95" height="9.95"/><rect class="cls-1" x="203.92" y="330.18" width="9.95" height="9.95" transform="translate(417.79 670.32) rotate(180)"/><rect class="cls-1" x="154.17" y="379.9" width="9.95" height="9.95" transform="translate(318.29 769.75) rotate(180)"/><rect class="cls-1" x="203.92" y="320.23" width="9.95" height="9.95" transform="translate(417.79 650.42) rotate(180)"/><rect class="cls-1" x="203.92" y="310.28" width="9.95" height="9.95" transform="translate(417.79 630.52) rotate(180)"/><rect class="cls-1" x="203.92" y="300.33" width="9.95" height="9.95" transform="translate(417.79 610.62) rotate(180)"/><rect class="cls-1" x="198.6" y="174.73" width="9.95" height="9.95"/><rect class="cls-1" x="208.55" y="174.73" width="9.95" height="9.95"/><rect class="cls-1" x="218.5" y="194.63" width="9.95" height="9.95" transform="translate(23.87 423.08) rotate(-90)"/><rect class="cls-1" x="218.5" y="184.68" width="9.95" height="9.95" transform="translate(33.82 413.13) rotate(-90)"/><rect class="cls-1" x="208.55" y="204.58" width="9.95" height="9.95" transform="translate(427.05 419.11) rotate(180)"/><rect class="cls-1" x="198.6" y="204.58" width="9.95" height="9.95" transform="translate(407.15 419.11) rotate(180)"/><rect class="cls-1" x="188.65" y="184.68" width="9.95" height="9.95" transform="translate(383.28 -3.97) rotate(90)"/><rect class="cls-1" x="188.65" y="194.63" width="9.95" height="9.95" transform="translate(393.23 5.98) rotate(90)"/><rect class="cls-1" x="198.6" y="184.68" width="9.95" height="9.95"/><rect class="cls-1" x="208.55" y="184.68" width="9.95" height="9.95"/><rect class="cls-1" x="198.6" y="194.63" width="9.95" height="9.95"/><rect class="cls-1" x="208.55" y="194.63" width="9.95" height="9.95"/><rect class="cls-1" x="203.92" y="214.53" width="9.95" height="9.95" transform="translate(417.79 439.01) rotate(180)"/><rect class="cls-1" x="203.92" y="251.51" width="9.95" height="9.95" transform="translate(417.79 512.97) rotate(180)"/><rect class="cls-1" x="203.92" y="242.51" width="9.95" height="9.95" transform="translate(417.79 494.97) rotate(180)"/><rect class="cls-1" x="203.92" y="224.04" width="9.95" height="19.01" transform="translate(417.79 467.09) rotate(180)"/><rect class="cls-2" x="198.6" y="184.68" width="9.95" height="9.95" transform="translate(407.15 379.31) rotate(180)"/><rect class="cls-2" x="208.55" y="184.68" width="9.95" height="9.95" transform="translate(427.05 379.31) rotate(180)"/><rect class="cls-2" x="198.6" y="194.63" width="9.95" height="9.95" transform="translate(407.15 399.21) rotate(180)"/><rect class="cls-2" x="208.55" y="194.63" width="9.95" height="9.95" transform="translate(427.05 399.21) rotate(180)"/></svg>