<?xml version="1.0" encoding="UTF-8"?>
<svg id="_图层_1" data-name="图层 1" xmlns="http://www.w3.org/2000/svg" viewBox="0 0 593.75 440.16">
  <defs>
    <style>
      .cls-1 {
        fill: #a6d3f4;
      }
    </style>
  </defs>
  <rect class="cls-1" x="238.62" y="203.12" width="40" height="40"/>
  <rect class="cls-1" x="238.62" y="163.12" width="40" height="40"/>
  <rect class="cls-1" x="397.9" y="123.12" width="40" height="40" transform="translate(835.79 286.23) rotate(180)"/>
  <rect class="cls-1" x="278.62" y="123.12" width="40" height="40"/>
  <rect class="cls-1" x="238.62" y="123.12" width="40" height="40"/>
  <rect class="cls-1" x="357.9" y="123.12" width="40" height="40"/>
  <rect class="cls-1" x="317.9" y="123.12" width="40" height="40"/>
  <rect class="cls-1" x="397.9" y="203.12" width="40" height="40"/>
  <rect class="cls-1" x="397.9" y="163.12" width="40" height="40"/>
  <rect class="cls-1" x="397.9" y="283.12" width="40" height="40"/>
  <rect class="cls-1" x="397.9" y="243.12" width="40" height="40"/>
  <rect class="cls-1" x="238.62" y="283.12" width="40" height="40"/>
  <rect class="cls-1" x="238.62" y="243.12" width="40" height="40"/>
  <rect class="cls-1" x="357.9" y="283.12" width="40" height="40"/>
  <rect class="cls-1" x="357.9" y="243.12" width="40" height="40"/>
  <rect class="cls-1" x="198.62" y="283.12" width="40" height="40"/>
  <rect class="cls-1" x="198.62" y="243.12" width="40" height="40"/>
</svg>