<?xml version="1.0" encoding="UTF-8"?>
<svg id="_图层_1" data-name="图层 1" xmlns="http://www.w3.org/2000/svg" viewBox="0 0 530.3 752.81">
  <defs>
    <style>
      .cls-1 {
        fill: #a6d3f4;
      }
    </style>
  </defs>
  <rect class="cls-1" x="329.17" y="253.98" width="40" height="40"/>
  <rect class="cls-1" x="289.17" y="253.98" width="40" height="40"/>
  <rect class="cls-1" x="249.17" y="533.9" width="40" height="40"/>
  <rect class="cls-1" x="289.17" y="373.98" width="40" height="40"/>
  <rect class="cls-1" x="289.17" y="293.98" width="40" height="40"/>
  <rect class="cls-1" x="129.17" y="293.98" width="40" height="40" transform="translate(298.34 627.96) rotate(180)"/>
  <rect class="cls-1" x="129.17" y="333.98" width="40" height="40" transform="translate(298.34 707.96) rotate(180)"/>
  <rect class="cls-1" x="169.17" y="373.98" width="40" height="40" transform="translate(378.34 787.96) rotate(180)"/>
  <rect class="cls-1" x="209.17" y="413.98" width="40" height="40" transform="translate(458.34 867.96) rotate(180)"/>
  <rect class="cls-1" x="289.17" y="574.06" width="40" height="40"/>
  <rect class="cls-1" x="369.17" y="333.98" width="40" height="40" transform="translate(778.34 707.96) rotate(180)"/>
  <rect class="cls-1" x="249.17" y="293.98" width="40" height="40" transform="translate(538.34 627.96) rotate(180)"/>
  <rect class="cls-1" x="329.17" y="373.98" width="40" height="40" transform="translate(698.34 787.96) rotate(180)"/>
  <rect class="cls-1" x="289.17" y="413.98" width="40" height="40" transform="translate(618.34 867.96) rotate(180)"/>
  <rect class="cls-1" x="249.17" y="413.98" width="40" height="40" transform="translate(538.34 867.96) rotate(180)"/>
  <rect class="cls-1" x="249.17" y="53.98" width="40" height="40"/>
  <rect class="cls-1" x="289.17" y="53.98" width="40" height="40"/>
  <rect class="cls-1" x="329.17" y="93.98" width="40" height="40" transform="translate(235.19 463.15) rotate(-90)"/>
  <rect class="cls-1" x="329.17" y="53.98" width="40" height="40" transform="translate(275.19 423.15) rotate(-90)"/>
  <rect class="cls-1" x="329.17" y="133.98" width="40" height="40" transform="translate(698.34 307.96) rotate(180)"/>
  <rect class="cls-1" x="289.17" y="133.98" width="40" height="40" transform="translate(618.34 307.96) rotate(180)"/>
  <rect class="cls-1" x="249.17" y="93.98" width="40" height="40" transform="translate(383.15 -155.19) rotate(90)"/>
  <rect class="cls-1" x="249.17" y="133.98" width="40" height="40" transform="translate(423.15 -115.19) rotate(90)"/>
  <rect class="cls-1" x="209.17" y="213.98" width="40" height="40"/>
  <rect class="cls-1" x="249.17" y="173.98" width="40" height="40"/>
  <rect class="cls-1" x="169.17" y="253.98" width="40" height="40"/>
  <rect class="cls-1" x="249.17" y="213.98" width="40" height="40"/>
  <rect class="cls-1" x="289.17" y="453.98" width="40" height="40"/>
  <rect class="cls-1" x="289.17" y="493.98" width="40" height="40"/>
  <rect class="cls-1" x="289.17" y="533.98" width="40" height="40"/>
  <rect class="cls-1" x="249.17" y="574.06" width="40" height="40"/>
  <rect class="cls-1" x="209.17" y="533.98" width="40" height="40"/>
  <rect class="cls-1" x="209.17" y="574.14" width="40" height="40"/>
  <rect class="cls-1" x="249.17" y="333.98" width="40" height="40"/>
  <rect class="cls-1" x="369.17" y="293.98" width="40" height="40" transform="translate(778.34 627.96) rotate(180)"/>
</svg>