<?xml version="1.0" encoding="UTF-8"?>
<svg id="_图层_1" data-name="图层 1" xmlns="http://www.w3.org/2000/svg" viewBox="0 0 482.07 178.08">
  <path d="M103.21,117.58c-1.71.43-2.87.75-3.51.96l-5.43,1.6c-10.85,3.41-19.04,5.22-24.57,5.42-1.28.21-2.02.21-2.23,0-1.92.21-2.98-.58-3.19-2.39-.21-1.8.26-3.08,1.44-3.83,1.17-.74,2.18-1.22,3.03-1.44l8.3-.96,3.83-.96-5.11-48.19c0-2.55-.43-6.49-1.28-11.81-.21-1.28-1.07-1.8-2.55-1.6-4.47.21-8.94.21-13.4,0-1.07-.21-1.87-.69-2.39-1.44-.53-.74-.8-1.44-.8-2.07.42-1.92,1.6-2.98,3.51-3.19l8.62-.96c11.06-1.7,19.25-2.98,24.58-3.83,1.91-.21,4.89-.96,8.94-2.23l4.79-1.28c.85-.21,1.6-.21,2.23,0,.64.21,1.33.59,2.07,1.12.74.53,1.28,1.12,1.6,1.75.32.64.26,1.44-.16,2.39-.43.96-1.07,1.55-1.92,1.76-1.71,1.07-3.09,1.6-4.15,1.6l-3.83,1.28c-1.49.21-2.13,1.07-1.92,2.55,1.92,8.51,4.36,20.96,7.34,37.34.85,6.6,1.6,11.6,2.23,15l.32,1.92,3.51-1.28c1.06-.64,2.12-.74,3.19-.32,1.06.43,1.8,1.12,2.23,2.07.42.96.48,1.97.16,3.03-.32,1.07-1.12,2.02-2.39,2.87l-3.51,1.28c-1.28.21-1.81,1.17-1.6,2.87l2.23,16.92c-.21,2.34-1.07,3.62-2.55,3.83-.64,0-1.44-.16-2.39-.48-.96-.32-1.65-.75-2.07-1.28-.43-.53-.75-1.65-.96-3.35-.43-2.55-1.07-6.7-1.91-12.45l-.32-2.23ZM93,57.58c-.21-1.49-.37-2.98-.48-4.47-.11-1.49-.8-2.12-2.08-1.92l-7.66,1.6c-.85.21-1.17.75-.96,1.6l.64,6.38c.42,2.55,1.01,3.99,1.76,4.31.74.32,2.39.27,4.95-.16l2.87-.64c1.28-.21,2.02-.48,2.23-.8.21-.32.21-1.33,0-3.03l-.32-1.28c0-.64-.32-1.17-.96-1.6ZM84.38,72.9c.42,2.55.74,5.11.96,7.66,0,.21.1.32.32.32l1.28.32c2.34-.21,5.32-.96,8.94-2.23.64,0,.96-.42.96-1.28s-.21-2.23-.64-4.15l-.32-2.23-11.49,1.6ZM88.21,114.07c1.49-.64,3.4-1.49,5.74-2.55l6.06-1.6c1.28-.21,1.8-1.06,1.6-2.55-.85-4.25-1.92-10.53-3.19-18.83l-.32-1.6-10.53,1.91c-1.07.21-1.49.75-1.28,1.6.42,2.98.64,5.22.64,6.7.42,3.19.74,7.98.96,14.36l.32,2.55ZM151.4,108.96c0,.64-.11,1.39-.32,2.23v1.6c.21,11.92-.75,23.72-2.87,35.43-.43,1.28-1.12,2.18-2.07,2.71-.96.53-1.97.58-3.03.16-2.34-.43-3.3-2.02-2.87-4.79,1.49-7.24,2.44-18.19,2.87-32.87l.32-5.11-.32-2.55c-.64.43-1.49.75-2.55.96l-8.62,2.23-2.87-.32c-1.92-.42-2.98-1.6-3.19-3.51,0-.64.26-1.33.8-2.08.53-.74,1.38-1.22,2.55-1.44,1.17-.21,3.03-.53,5.58-.96l6.7-2.55c1.28-.21,1.8-.96,1.6-2.23l-2.87-20.74-3.83.64c-1.28.64-3.19,1.07-5.75,1.28-1.28.21-2.23.11-2.87-.32-2.13-.21-3.19-1.28-3.19-3.19s1.06-3.08,3.19-3.51c.42-.21,1.06-.32,1.92-.32h.96l3.51-.96c-1.92-8.08-3.51-14.15-4.79-18.19-.21-2.76.74-4.41,2.87-4.95,2.12-.53,3.56.21,4.31,2.23.74,2.02,1.22,3.67,1.44,4.95l3.51,14.36.96-1.91c1.49-6.81,2.55-13.4,3.19-19.79.64-3.4,2.12-5,4.47-4.79,2.34.21,3.3,2.03,2.87,5.43l-1.28,15-.64,2.55,6.06-1.6c.85-.21,2.55-.53,5.11-.96,1.06-.21,1.96-.05,2.71.48.74.53,1.22,1.28,1.44,2.23.21.96.16,1.87-.16,2.71-.32.85-1.12,1.28-2.39,1.28-2.34,1.07-6.06,2.23-11.17,3.51l-1.6.96c-1.71.21-2.71.53-3.03.96-.32.43-.37,1.39-.16,2.87l2.55,17.87,13.72-6.06,2.55-.32c1.92-.21,3.3.48,4.15,2.07.85,1.6.53,3.03-.96,4.31-.85.64-2.13,1.39-3.83,2.23l-12.77,5.11c7.66,3.41,14.68,7.77,21.06,13.08,1.06,1.49.96,2.87-.32,4.15s-2.55,1.71-3.83,1.28c-.64-.21-1.6-.64-2.87-1.28l-1.28-.96c-2.98-1.92-7.55-4.68-13.72-8.3l-.96-.32Z"/>
  <path d="M239.17,78c-1.07.21-2.03.32-2.87.32-3.62.64-6.28.96-7.98.96s-2.87-.1-3.51-.32c-1.92-.21-3.3-1.06-4.15-2.55-.85-1.49-1.07-3.3-.64-5.43l16.92-30.32.64-1.92-34.79,4.79c-1.49-.42-2.55-1.28-3.19-2.55-.43-2.34,0-3.62,1.28-3.83,4.25-1.28,8.62-2.23,13.09-2.87,17.44-2.55,34.68-5.63,51.7-9.25.85-.21,1.6,0,2.23.64s1.17,1.39,1.6,2.23c.42.85.42,1.71,0,2.55-.43.85-1.12,1.49-2.07,1.92-.96.43-2.07.75-3.35.96h-1.28c-6.6,1.71-11.49,2.77-14.68,3.19-.85.21-1.81.96-2.87,2.23-1.49,3.83-3.19,7.87-5.11,12.13-4.04,7.66-7.34,13.4-9.89,17.23,0,.43-.32,1.28-.96,2.55,1.28-.21,2.23-.21,2.87,0l11.49-1.6c.64,0,1.22-.37,1.75-1.12.53-.74,1.12-1.96,1.76-3.67l2.23-3.83c1.06-1.06,2.08-1.44,3.03-1.12.96.32,1.7.75,2.23,1.28.53.53.8,1.12.8,1.75-2.98,6.17-5.96,12.08-8.94,17.71-2.98,5.64-7.87,14.1-14.68,25.37l31.92-10.53-.32-1.6c-.21-1.92.48-3.3,2.07-4.15,1.6-.85,3.03-.53,4.31.96l5.43,7.98c1.28,1.71,2.02,3.51,2.23,5.43,1.06,2.55.53,4.31-1.6,5.27-2.13.96-3.94.16-5.42-2.39l-.64-1.6c-.43-1.28-.85-2.02-1.28-2.23-.43-.21-1.28,0-2.55.64l-17.55,5.43c1.06,3.83,2.02,6.6,2.87,8.3l.64.96c0,.21.21.32.64.32l5.11.96c8.72,2.13,15.32,3.19,19.79,3.19h6.7c1.28.21,2.28.64,3.03,1.28.74.64,1.01,1.6.8,2.87.21,1.92-1.07,3.09-3.83,3.51l-1.92.32c-4.9.43-10.32-.11-16.28-1.6l-12.45-2.55.96,2.87.32,4.15c1.06,4.04,1.49,7.13,1.28,9.25.42,4.04-.48,6.81-2.71,8.3-2.23,1.49-5.27,1.28-9.1-.64-1.07,0-2.45-.75-4.15-2.23-.64-.64-1.01-1.44-1.12-2.39-.11-.96.05-1.87.48-2.71,1.06-1.49,2.76-1.92,5.11-1.28,1.28.42,2.55,1.06,3.83,1.92-.64-5.75-1.49-11.28-2.55-16.6l-2.23,2.23c-7.24,7.45-12.66,12.87-16.28,16.28-.64.85-1.81,1.7-3.51,2.55-1.07.42-2.08.48-3.03.16-.96-.32-1.65-1.01-2.07-2.07-1.28-1.71-.85-3.51,1.28-5.43,5.95-4.04,13.08-10.85,21.38-20.42,1.49-1.49,1.92-3.08,1.28-4.79l-.32-.96c-.64-1.28-1.17-2.02-1.6-2.23-.43-.21-1.6-.1-3.51.32l-6.38,2.55c-2.34.21-3.94.21-4.79,0-1.71,0-2.98-.69-3.83-2.08-.85-1.38-1.07-2.92-.64-4.63.42-1.7,1.38-3.93,2.87-6.7,2.55-4.25,6.49-10.53,11.81-18.83l1.6-2.55c.42-.85.85-1.6,1.28-2.23Z"/>
  <path d="M396.83,115.66c-1.49,1.71-3.19,4.36-5.11,7.98l-2.55,3.83c-2.34,1.92-4.42,2.02-6.22.32-1.81-1.7-1.87-3.62-.16-5.74,2.98-4.04,5.63-8.08,7.98-12.13,1.06-1.49,1.17-2.87.32-4.15l-10.21-21.38c-.43-.64-1.28-.96-2.55-.96l-26.49,6.06c-1.07.21-1.65.43-1.75.64-.11.21-.05.96.16,2.23l1.28,7.98.96,2.55c1.28-.85,2.02-1.38,2.23-1.6,2.34-1.28,4.25-.85,5.74,1.28.64.43.85,1.23.64,2.39-.21,1.17-.75,1.97-1.6,2.39l-2.87,2.55c-1.28.43-2.02.8-2.23,1.12-.21.32-.21,1.33,0,3.03l3.51,19.79c.21,1.49.1,3.88-.32,7.18-.43,3.3-1.71,5.37-3.83,6.22-2.13.85-4.58.53-7.34-.96l-1.28-.64c-3.41-2.13-5.74-3.72-7.02-4.79-.85-.64-1.92-1.81-3.19-3.51-1.28-1.71-1.23-3.3.16-4.79,1.38-1.49,3.14-1.8,5.27-.96l6.7,5.74c.42,0,1.38.21,2.87.64-.43-3.41-1.17-8.19-2.23-14.36l-.96-7.66c-1.71.43-3.72,1.49-6.06,3.19l-2.55.96c-1.92.85-3.19.37-3.83-1.44-.64-1.8-.43-3.35.64-4.63.21-.21.74-.64,1.6-1.28l.96-.32,7.34-5.74c-1.49-6.38-2.55-11.38-3.19-15l-17.87,2.55c-1.49.21-2.55.11-3.19-.32-1.92-.42-2.98-1.6-3.19-3.51,0-.64.26-1.33.8-2.07.53-.74,1.06-1.17,1.6-1.28.53-.1,1.33-.26,2.39-.48l15.32-2.23c.85,0,1.6-.32,2.23-.96l-.32-.32c-1.49-10.42-2.98-18.19-4.47-23.3-.64-1.28-1.01-2.02-1.12-2.23-.11-.21-.8-.21-2.08,0l-4.79.32c-1.28.21-2.13.11-2.55-.32-1.49,0-2.45-1.17-2.87-3.51.42-1.49,1.28-2.55,2.55-3.19l2.23-.32c7.02-.42,13.93-1.7,20.74-3.83,2.55-.42,3.93.43,4.15,2.55.21,2.13-.53,3.62-2.23,4.47-.64.43-1.71.75-3.19.96-.64.43-1.81.75-3.51.96l5.75,26.49c6.38-1.06,16.06-3.4,29.04-7.02-.43-2.34-1.6-5.64-3.51-9.89-.21-.85-.75-1.92-1.6-3.19-1.49-2.76-1.07-4.68,1.28-5.75.64-.64,1.6-.74,2.87-.32,1.28.43,2.12,1.17,2.55,2.23,1.49,2.77,3.19,6.92,5.11,12.45.42,1.49.8,2.29,1.12,2.39.32.11,1.01-.05,2.07-.48l4.79-.64c1.28-.21,2.34-.05,3.19.48.85.53,1.38,1.44,1.6,2.71.21,2.13-.85,3.72-3.19,4.79-1.28.21-2.23.53-2.87.96l-2.87.32,9.25,16.6c.21-.85.85-2.34,1.92-4.47,0-1.06.48-2.55,1.44-4.47.96-1.91,2.34-2.5,4.15-1.75,1.81.75,2.71,1.87,2.71,3.35,0,.43-.11,1.07-.32,1.92l-.32.64c-1.92,5.54-3.3,9.47-4.15,11.81-.43,1.28-.53,2.55-.32,3.83,3.19,4.04,5.64,7.24,7.34,9.57h.64l1.6-3.51.96-5.75c.42-1.91,1.65-2.92,3.67-3.03,2.02-.11,3.46.8,4.31,2.71.21,1.28.21,2.23,0,2.87-.43,4.47-1.81,8.3-4.15,11.49l-1.6,2.87c-1.49,1.07-3.03,1.65-4.63,1.76-1.6.11-3.03-.42-4.31-1.6-1.28-1.17-3.09-3.14-5.43-5.9l-1.92-2.23c-.21-.21-.75-.96-1.6-2.23ZM409.91,61.73c-.21,0-.96-.21-2.23-.64-3.41-1.49-6.92-4.47-10.53-8.94-1.28-1.7-1.28-3.4,0-5.11,1.92-1.28,3.83-1.17,5.75.32l8.94,7.34c1.28,1.28,1.76,2.71,1.44,4.31s-1.44,2.5-3.35,2.71Z"/>
</svg>