<?xml version="1.0" encoding="UTF-8"?>
<svg id="_图层_1" data-name="图层 1" xmlns="http://www.w3.org/2000/svg" viewBox="0 0 129.23 24.92">
  <path d="M4.39,15.05c-.28-3.19.32-6.1,1.81-8.72.71-1.21,1.77-1.74,3.19-1.6.35.07.96.25,1.81.53l.85.21c.43.14.67.39.74.75.07.36,0,.64-.21.85-.14.64-.64.82-1.49.53l-1.49-.21c-.57-.35-.99-.18-1.28.53-1.28,2.41-1.56,5-.85,7.77.35.85.83,1.33,1.44,1.44.6.11,1.22-.12,1.86-.69l.11-.21c.71-.5,1.31-.53,1.81-.11.28.14.46.37.53.69.07.32.04.69-.11,1.12-.43.78-1.1,1.35-2.02,1.7-2.77,1.06-4.79.21-6.06-2.55l-.64-2.02Z"/>
  <path d="M32.31,11.54c-.14-1.84-.92-3.25-2.34-4.2-1.42-.96-3.16-1.15-5.21-.58-.85.36-1.45.82-1.81,1.38l-.43.64c-.57.36-1.06.92-1.49,1.7-.85,1.99-1.21,4.26-1.06,6.81.28,1.85.99,3.19,2.13,4.04,1.13.85,2.48,1.05,4.04.58,1.56-.46,2.8-1.29,3.72-2.5,2.06-2.2,2.87-4.82,2.45-7.87ZM29.06,15.69c-.6,1.49-1.51,2.55-2.71,3.19-.21,0-.39.07-.53.21-1.92.64-3.02-.07-3.3-2.13,0-1.98.25-3.72.74-5.21.28-.78.89-1.42,1.81-1.92.92-.5,1.74-.64,2.45-.43,1.13.21,1.83.94,2.07,2.18.25,1.24.07,2.61-.53,4.1Z"/>
  <path d="M43.21,14.73c.07-.14.14-.32.21-.53l.11-.43c.85-1.84,1.81-3.05,2.87-3.62.85-.5,1.68-.69,2.5-.59.81.11,1.51.52,2.07,1.22l1.49,3.08,1.06,4.68.11.75c-.07.71-.39,1.17-.96,1.38-.57.21-1.06,0-1.49-.64-.14-.21-.25-.53-.32-.96-.36-.99-.82-2.62-1.38-4.89,0-.21-.11-.57-.32-1.06l-.21-.32c-.57-.64-1.06-.67-1.49-.11-.64.85-1.03,1.53-1.17,2.02-.71,1.63-1.38,3.58-2.02,5.85l-.11.11c-.07.5-.21.82-.43.96-.36.5-.78.69-1.28.58-.5-.11-.85-.41-1.06-.9-.14-.35-.25-.92-.32-1.7l-1.92-9.15c.07-.78.41-1.24,1.01-1.38.6-.14,1.08.18,1.44.96l1.06,4.04v.43c.07.28.21.39.43.32l.11-.11Z"/>
  <path d="M62.51,14.73c.07-.14.14-.32.21-.53l.11-.43c.85-1.84,1.81-3.05,2.87-3.62.85-.5,1.68-.69,2.5-.59.81.11,1.51.52,2.07,1.22l1.49,3.08,1.06,4.68.11.75c-.07.71-.39,1.17-.96,1.38-.57.21-1.06,0-1.49-.64-.14-.21-.25-.53-.32-.96-.36-.99-.82-2.62-1.38-4.89,0-.21-.11-.57-.32-1.06l-.21-.32c-.57-.64-1.06-.67-1.49-.11-.64.85-1.03,1.53-1.17,2.02-.71,1.63-1.38,3.58-2.02,5.85l-.11.11c-.07.5-.21.82-.43.96-.36.5-.78.69-1.28.58-.5-.11-.85-.41-1.06-.9-.14-.35-.25-.92-.32-1.7l-1.92-9.15c.07-.78.41-1.24,1.01-1.38.6-.14,1.08.18,1.44.96l1.06,4.04v.43c.07.28.21.39.43.32l.11-.11Z"/>
  <path d="M89.47,15.53c-.64-.46-1.31-.34-2.02.37,0,.28-.11.57-.32.85l-1.81,1.49c-.92.64-1.85.46-2.77-.53-.43-.78-.89-2.13-1.38-4.04l.96.21c1.63.07,2.96-.27,3.99-1.01,1.03-.74,1.74-1.72,2.13-2.92.39-1.21.41-2.36.05-3.46-.36-1.1-1.06-1.84-2.13-2.23-1.06-.39-2.38-.3-3.94.27-2.2.78-3.51,2.52-3.94,5.21-.36,1.92-.21,3.65.43,5.21.57,2.2,1.17,3.72,1.81,4.57,1.35,1.7,3.01,2.25,5,1.65,1.98-.6,3.44-1.83,4.36-3.67.35-.85.21-1.51-.43-1.97ZM82.02,8.08c.5-.67,1.24-1.08,2.23-1.22.57-.07.97.02,1.22.27.25.25.34.66.27,1.22-.14,1.13-.55,1.95-1.22,2.45-.67.5-1.65.6-2.93.32l-.53-.43c.14-1.06.46-1.93.96-2.61Z"/>
  <path d="M96.97,15.05c-.28-3.19.32-6.1,1.81-8.72.71-1.21,1.77-1.74,3.19-1.6.35.07.96.25,1.81.53l.85.21c.43.14.67.39.74.75.07.36,0,.64-.21.85-.14.64-.64.82-1.49.53l-1.49-.21c-.57-.35-.99-.18-1.28.53-1.28,2.41-1.56,5-.85,7.77.35.85.83,1.33,1.44,1.44.6.11,1.22-.12,1.86-.69l.11-.21c.71-.5,1.31-.53,1.81-.11.28.14.46.37.53.69.07.32.04.69-.11,1.12-.43.78-1.1,1.35-2.02,1.7-2.77,1.06-4.79.21-6.06-2.55l-.64-2.02Z"/>
  <path d="M117.12,8.98c-.85.14-1.42.28-1.7.43l-1.7.32c-.78-.14-1.22-.53-1.33-1.17-.11-.64.23-1.1,1.01-1.38l2.77-.64c.57-.14.81-.5.74-1.06-.14-1.13-.18-2.09-.11-2.87-.14-.85.12-1.31.8-1.38.67-.07,1.15.28,1.44,1.06l.53,3.4c.5-.14,1.24-.28,2.23-.43.35-.21.9-.37,1.65-.48s1.22.23,1.44,1.01c0,.21-.05.44-.16.69-.11.25-.3.48-.58.69l-4.57,1.38.21,2.13.96,5.64c.35.71.71,1.15,1.06,1.33.35.18.92.09,1.7-.27.43-.21.78-.28,1.06-.21.28.07.5.28.64.64.43.57.3,1.15-.37,1.75-.67.6-1.58.9-2.71.9s-1.99-.39-2.55-1.17c-.92-1.13-1.45-2.23-1.6-3.3l-.85-5.96c-.07-.35-.07-.71,0-1.06Z"/>
</svg>