<svg xmlns="http://www.w3.org/2000/svg" viewBox="0 0 262.15 316.98">
  <g fill="#de85f3">
    <rect x="97.58" y="94.25" width="13.85" height="13.85"/>
    <rect x="111.42" y="108.09" width="13.85" height="13.85"/>
    <rect x="125.27" y="121.94" width="13.85" height="13.85"/>
    <rect x="139.11" y="135.78" width="13.85" height="13.85"/>
    <rect x="152.96" y="149.63" width="13.85" height="13.85"/>
    <rect x="166.81" y="163.48" width="13.85" height="13.85"/>
    <rect x="180.65" y="177.32" width="13.85" height="13.85"/>
    <rect x="180.65" y="205.02" width="13.85" height="13.85"/>
    <rect x="69.88" y="246.55" width="13.85" height="13.85"/>
    <rect x="83.73" y="232.71" width="13.85" height="13.85"/>
    <rect x="97.58" y="218.86" width="13.85" height="13.85"/>
    <rect x="111.42" y="232.71" width="13.85" height="13.85"/>
    <rect x="111.42" y="246.55" width="13.85" height="13.85"/>
    <rect x="125.27" y="260.4" width="13.85" height="13.85"/>
    <rect x="125.27" y="274.25" width="13.85" height="13.85"/>
    <rect x="139.11" y="288.09" width="13.85" height="13.85"/>
    <rect x="152.96" y="288.09" width="13.85" height="13.85"/>
    <rect x="166.81" y="274.25" width="13.85" height="13.85"/>
    <rect x="166.81" y="260.4" width="13.85" height="13.85"/>
    <rect x="152.96" y="246.55" width="13.85" height="13.85"/>
    <rect x="152.96" y="232.71" width="13.85" height="13.85"/>
    <rect x="139.11" y="218.86" width="13.85" height="13.85"/>
    <rect x="139.11" y="205.02" width="13.85" height="13.85"/>
    <rect x="152.96" y="205.02" width="13.85" height="13.85"/>
    <rect x="166.81" y="205.02" width="13.85" height="13.85"/>
    <rect x="194.5" y="191.17" width="13.85" height="13.85"/>
    <rect x="83.73" y="80.4" width="13.85" height="13.85"/>
    <rect x="56.04" y="260.4" width="13.85" height="13.85"/>
    <rect x="69.88" y="66.55" width="13.85" height="13.85"/>
    <rect x="42.19" y="94.25" width="13.85" height="13.85"/>
    <rect x="42.19" y="121.94" width="13.85" height="13.85"/>
    <rect x="42.19" y="108.09" width="13.85" height="13.85"/>
    <rect x="42.19" y="135.78" width="13.85" height="13.85"/>
    <rect x="42.19" y="149.63" width="13.85" height="13.85"/>
    <rect x="42.19" y="163.48" width="13.85" height="13.85"/>
    <rect x="42.19" y="177.32" width="13.85" height="13.85"/>
    <rect x="42.19" y="191.17" width="13.85" height="13.85"/>
    <rect x="42.19" y="205.02" width="13.85" height="13.85"/>
    <rect x="42.19" y="218.86" width="13.85" height="13.85"/>
    <rect x="42.19" y="80.4" width="13.85" height="13.85"/>
    <rect x="42.19" y="232.71" width="13.85" height="13.85"/>
    <rect x="42.19" y="246.55" width="13.85" height="13.85"/>
    <rect x="42.19" y="66.55" width="13.85" height="13.85"/>
    <rect x="42.19" y="52.71" width="13.85" height="13.85"/>
    <rect x="42.19" y="260.4" width="13.85" height="13.85"/>
    <rect x="42.19" y="38.86" width="13.85" height="13.85"/>
    <rect x="194.5" y="205.02" width="13.85" height="13.85"/>
    <rect x="56.04" y="52.71" width="13.85" height="13.85"/>
    <rect x="111.42" y="218.86" width="13.85" height="13.85"/>
    <rect x="125.27" y="246.55" width="13.85" height="13.85"/>
    <rect x="138.04" y="274.25" width="13.85" height="13.85"/>
    <rect x="158.81" y="250.12" width="13.85" height="13.85"/>
    <rect x="152.96" y="218.86" width="13.85" height="13.85"/>
  </g>
  <polygon fill="#fff" points="61.88 56.28 61.88 250.12 75.73 250.12 117.27 208.58 117.27 222.43 131.11 250.12 144.96 277.81 172.65 277.81 172.65 250.12 158.81 222.43 144.96 194.74 200.34 194.74 200.34 180.89 68.81 49.35 61.88 56.28"/>
  <g fill="#fd71ad">
    <rect x="103.42" y="83.97" width="13.85" height="13.85"/>
    <rect x="117.27" y="97.81" width="13.85" height="13.85"/>
    <rect x="131.11" y="111.66" width="13.85" height="13.85"/>
    <rect x="144.96" y="125.51" width="13.85" height="13.85"/>
    <rect x="158.81" y="139.35" width="13.85" height="13.85"/>
    <rect x="172.65" y="153.2" width="13.85" height="13.85"/>
    <rect x="186.5" y="167.04" width="13.85" height="13.85"/>
    <rect x="186.5" y="194.74" width="13.85" height="13.85"/>
    <rect x="75.73" y="236.28" width="13.85" height="13.85"/>
    <rect x="89.58" y="222.43" width="13.85" height="13.85"/>
    <rect x="103.42" y="208.58" width="13.85" height="13.85"/>
    <rect x="117.27" y="222.43" width="13.85" height="13.85"/>
    <rect x="117.27" y="236.28" width="13.85" height="13.85"/>
    <rect x="131.11" y="250.12" width="13.85" height="13.85"/>
    <rect x="131.11" y="263.97" width="13.85" height="13.85"/>
    <rect x="144.96" y="277.81" width="13.85" height="13.85"/>
    <rect x="158.81" y="277.81" width="13.85" height="13.85"/>
    <rect x="172.65" y="263.97" width="13.85" height="13.85"/>
    <rect x="172.65" y="250.12" width="13.85" height="13.85"/>
    <rect x="158.81" y="236.28" width="13.85" height="13.85"/>
    <rect x="158.81" y="222.43" width="13.85" height="13.85"/>
    <rect x="144.96" y="208.58" width="13.85" height="13.85"/>
    <rect x="144.96" y="194.74" width="13.85" height="13.85"/>
    <rect x="158.81" y="194.74" width="13.85" height="13.85"/>
    <rect x="172.65" y="194.74" width="13.85" height="13.85"/>
    <rect x="200.34" y="180.89" width="13.85" height="13.85"/>
    <rect x="89.58" y="70.12" width="13.85" height="13.85"/>
    <rect x="61.88" y="250.12" width="13.85" height="13.85"/>
    <rect x="75.73" y="56.28" width="13.85" height="13.85"/>
    <rect x="48.04" y="83.97" width="13.85" height="13.85"/>
    <rect x="48.04" y="111.66" width="13.85" height="13.85"/>
    <rect x="48.04" y="97.81" width="13.85" height="13.85"/>
    <rect x="48.04" y="125.51" width="13.85" height="13.85"/>
    <rect x="48.04" y="139.35" width="13.85" height="13.85"/>
    <rect x="48.04" y="153.2" width="13.85" height="13.85"/>
    <rect x="48.04" y="167.04" width="13.85" height="13.85"/>
    <rect x="48.04" y="180.89" width="13.85" height="13.85"/>
    <rect x="48.04" y="194.74" width="13.85" height="13.85"/>
    <rect x="48.04" y="208.58" width="13.85" height="13.85"/>
    <rect x="48.04" y="70.12" width="13.85" height="13.85"/>
    <rect x="48.04" y="222.43" width="13.85" height="13.85"/>
    <rect x="48.04" y="236.28" width="13.85" height="13.85"/>
    <rect x="48.04" y="56.28" width="13.85" height="13.85"/>
    <rect x="48.04" y="42.43" width="13.85" height="13.85"/>
    <rect x="48.04" y="250.12" width="13.85" height="13.85"/>
    <rect x="48.04" y="28.58" width="13.85" height="13.85"/>
    <rect x="200.34" y="194.74" width="13.85" height="13.85"/>
    <rect x="61.88" y="42.43" width="13.85" height="13.85"/>
  </g>
</svg>