<svg xmlns="http://www.w3.org/2000/svg" viewBox="0 0 262.15 316.98">
  <g fill="#de85f3">
    <rect x="86.2" y="29.48" width="13.85" height="13.85"/>
    <rect x="72.35" y="71.02" width="13.85" height="13.85"/>
    <rect x="72.35" y="98.71" width="13.85" height="13.85"/>
    <rect x="72.35" y="84.86" width="13.85" height="13.85"/>
    <rect x="72.35" y="112.56" width="13.85" height="13.85"/>
    <rect x="72.35" y="126.4" width="13.85" height="13.85"/>
    <rect x="72.35" y="140.25" width="13.85" height="13.85"/>
    <rect x="72.35" y="154.1" width="13.85" height="13.85"/>
    <rect x="72.35" y="167.94" width="13.85" height="13.85"/>
    <rect x="72.35" y="57.17" width="13.85" height="13.85"/>
    <rect x="72.35" y="43.33" width="13.85" height="13.85"/>
    <rect x="100.04" y="29.48" width="13.85" height="13.85"/>
    <rect x="113.89" y="57.17" width="13.85" height="13.85"/>
    <rect x="113.89" y="84.86" width="13.85" height="13.85"/>
    <rect x="113.89" y="71.02" width="13.85" height="13.85"/>
    <rect x="113.89" y="98.71" width="13.85" height="13.85"/>
    <rect x="113.89" y="112.56" width="13.85" height="13.85"/>
    <rect x="113.89" y="126.4" width="13.85" height="13.85"/>
    <rect x="113.89" y="43.33" width="13.85" height="13.85"/>
    <rect x="141.58" y="98.71" width="13.85" height="13.85" transform="translate(42.87 254.14) rotate(-90)"/>
    <rect x="169.27" y="98.71" width="13.85" height="13.85" transform="translate(70.56 281.83) rotate(-90)"/>
    <rect x="155.43" y="98.71" width="13.85" height="13.85" transform="translate(56.72 267.98) rotate(-90)"/>
    <rect x="183.12" y="112.56" width="13.85" height="13.85" transform="translate(70.56 309.52) rotate(-90)"/>
    <rect x="196.96" y="112.56" width="13.85" height="13.85" transform="translate(84.41 323.37) rotate(-90)"/>
    <rect x="127.73" y="98.71" width="13.85" height="13.85" transform="translate(29.02 240.29) rotate(-90)"/>
    <rect x="210.81" y="126.4" width="13.85" height="13.85"/>
    <rect x="210.81" y="154.1" width="13.85" height="13.85"/>
    <rect x="210.81" y="140.25" width="13.85" height="13.85"/>
    <rect x="210.81" y="167.94" width="13.85" height="13.85"/>
    <rect x="210.81" y="181.79" width="13.85" height="13.85"/>
    <rect x="210.81" y="195.63" width="13.85" height="13.85"/>
    <rect x="30.81" y="140.46" width="13.85" height="13.85"/>
    <rect x="44.66" y="140.46" width="13.85" height="13.85"/>
    <rect x="58.5" y="154.3" width="13.85" height="13.85"/>
    <rect x="16.96" y="154.3" width="13.85" height="13.85"/>
    <rect x="16.96" y="168.15" width="13.85" height="13.85"/>
    <rect x="30.81" y="181.99" width="13.85" height="13.85"/>
    <rect x="44.66" y="195.84" width="13.85" height="13.85"/>
    <rect x="44.66" y="209.69" width="13.85" height="13.85"/>
    <rect x="58.5" y="223.53" width="13.85" height="13.85"/>
    <rect x="72.35" y="237.38" width="13.85" height="13.85"/>
    <rect x="86.2" y="251.23" width="13.85" height="13.85"/>
    <rect x="113.89" y="264.86" width="13.85" height="13.85" transform="translate(-150.98 392.6) rotate(-90)"/>
    <rect x="141.58" y="264.86" width="13.85" height="13.85" transform="translate(-123.28 420.29) rotate(-90)"/>
    <rect x="127.73" y="264.86" width="13.85" height="13.85" transform="translate(-137.13 406.44) rotate(-90)"/>
    <rect x="100.04" y="264.86" width="13.85" height="13.85" transform="translate(-164.82 378.75) rotate(-90)"/>
    <rect x="86.2" y="265.07" width="13.85" height="13.85"/>
    <rect x="169.27" y="264.86" width="13.85" height="13.85"/>
    <rect x="183.12" y="264.86" width="13.85" height="13.85"/>
    <rect x="183.12" y="251.02" width="13.85" height="13.85"/>
    <rect x="183.12" y="237.17" width="13.85" height="13.85"/>
    <rect x="155.43" y="251.02" width="13.85" height="13.85"/>
    <rect x="196.96" y="223.33" width="13.85" height="13.85"/>
    <rect x="196.96" y="209.48" width="13.85" height="13.85"/>
    <rect x="155.43" y="126.4" width="13.85" height="13.85"/>
    <rect x="155.43" y="112.56" width="13.85" height="13.85"/>
    <rect x="183.12" y="126.4" width="13.85" height="13.85"/>
    <rect x="86.2" y="237.38" width="13.85" height="13.85"/>
    <rect x="72.35" y="223.53" width="13.85" height="13.85"/>
    <rect x="57.19" y="209.69" width="13.85" height="13.85"/>
    <rect x="44.66" y="181.99" width="13.85" height="13.85"/>
    <rect x="30.81" y="168.15" width="13.85" height="13.85"/>
    <rect x="51.58" y="146.59" width="13.85" height="13.85"/>
    <rect x="169.27" y="252.08" width="13.85" height="13.85"/>
  </g>
  <polygon fill="#fff" points="93.12 35.61 93.12 160.23 65.43 160.43 65.43 146.59 37.73 146.59 37.73 174.28 51.58 174.28 51.58 188.12 65.43 188.12 65.43 215.82 79.27 215.82 79.27 229.66 93.12 229.66 93.12 243.51 106.96 243.51 106.96 257.35 162.35 257.15 162.35 243.3 176.2 243.3 176.2 257.15 190.04 257.15 190.04 229.46 203.89 229.46 203.89 201.76 217.73 201.76 217.73 118.69 203.89 118.69 203.89 132.53 190.04 132.53 190.04 104.84 176.2 104.84 176.2 132.53 162.35 132.53 162.35 104.84 134.66 104.84 120.81 90.99 120.81 35.61 93.12 35.61"/>
  <g fill="#fd71ad">
    <rect x="93.12" y="21.76" width="13.85" height="13.85"/>
    <rect x="79.27" y="63.3" width="13.85" height="13.85"/>
    <rect x="79.27" y="90.99" width="13.85" height="13.85"/>
    <rect x="79.27" y="77.15" width="13.85" height="13.85"/>
    <rect x="79.27" y="104.84" width="13.85" height="13.85"/>
    <rect x="79.27" y="118.69" width="13.85" height="13.85"/>
    <rect x="79.27" y="132.53" width="13.85" height="13.85"/>
    <rect x="79.27" y="146.38" width="13.85" height="13.85"/>
    <rect x="79.27" y="160.23" width="13.85" height="13.85"/>
    <rect x="79.27" y="49.46" width="13.85" height="13.85"/>
    <rect x="79.27" y="35.61" width="13.85" height="13.85"/>
    <rect x="106.96" y="21.76" width="13.85" height="13.85"/>
    <rect x="120.81" y="49.46" width="13.85" height="13.85"/>
    <rect x="120.81" y="77.15" width="13.85" height="13.85"/>
    <rect x="120.81" y="63.3" width="13.85" height="13.85"/>
    <rect x="120.81" y="90.99" width="13.85" height="13.85"/>
    <rect x="120.81" y="104.84" width="13.85" height="13.85"/>
    <rect x="120.81" y="118.69" width="13.85" height="13.85"/>
    <rect x="120.81" y="35.61" width="13.85" height="13.85"/>
    <rect x="148.5" y="90.99" width="13.85" height="13.85" transform="translate(57.51 253.34) rotate(-90)"/>
    <rect x="176.2" y="90.99" width="13.85" height="13.85" transform="translate(85.2 281.04) rotate(-90)"/>
    <rect x="162.35" y="90.99" width="13.85" height="13.85" transform="translate(71.36 267.19) rotate(-90)"/>
    <rect x="190.04" y="104.84" width="13.85" height="13.85" transform="translate(85.2 308.73) rotate(-90)"/>
    <rect x="203.89" y="104.84" width="13.85" height="13.85" transform="translate(99.05 322.57) rotate(-90)"/>
    <rect x="134.66" y="90.99" width="13.85" height="13.85" transform="translate(43.66 239.5) rotate(-90)"/>
    <rect x="217.73" y="118.69" width="13.85" height="13.85"/>
    <rect x="217.73" y="146.38" width="13.85" height="13.85"/>
    <rect x="217.73" y="132.53" width="13.85" height="13.85"/>
    <rect x="217.73" y="160.23" width="13.85" height="13.85"/>
    <rect x="217.73" y="174.07" width="13.85" height="13.85"/>
    <rect x="217.73" y="187.92" width="13.85" height="13.85"/>
    <rect x="37.73" y="132.74" width="13.85" height="13.85"/>
    <rect x="51.58" y="132.74" width="13.85" height="13.85"/>
    <rect x="65.43" y="146.59" width="13.85" height="13.85"/>
    <rect x="23.89" y="146.59" width="13.85" height="13.85"/>
    <rect x="23.89" y="160.43" width="13.85" height="13.85"/>
    <rect x="37.73" y="174.28" width="13.85" height="13.85"/>
    <rect x="51.58" y="188.12" width="13.85" height="13.85"/>
    <rect x="51.58" y="201.97" width="13.85" height="13.85"/>
    <rect x="65.43" y="215.82" width="13.85" height="13.85"/>
    <rect x="79.27" y="229.66" width="13.85" height="13.85"/>
    <rect x="93.12" y="243.51" width="13.85" height="13.85"/>
    <rect x="120.81" y="257.15" width="13.85" height="13.85" transform="translate(-136.34 391.81) rotate(-90)"/>
    <rect x="148.5" y="257.15" width="13.85" height="13.85" transform="translate(-108.64 419.5) rotate(-90)"/>
    <rect x="134.66" y="257.15" width="13.85" height="13.85" transform="translate(-122.49 405.65) rotate(-90)"/>
    <rect x="106.96" y="257.15" width="13.85" height="13.85" transform="translate(-150.18 377.96) rotate(-90)"/>
    <rect x="93.12" y="257.35" width="13.85" height="13.85"/>
    <rect x="176.2" y="257.15" width="13.85" height="13.85"/>
    <rect x="190.04" y="257.15" width="13.85" height="13.85"/>
    <rect x="190.04" y="243.3" width="13.85" height="13.85"/>
    <rect x="190.04" y="229.46" width="13.85" height="13.85"/>
    <rect x="162.35" y="243.3" width="13.85" height="13.85"/>
    <rect x="203.89" y="215.61" width="13.85" height="13.85"/>
    <rect x="203.89" y="201.76" width="13.85" height="13.85"/>
    <rect x="162.35" y="118.69" width="13.85" height="13.85"/>
    <rect x="162.35" y="104.84" width="13.85" height="13.85"/>
    <rect x="190.04" y="118.69" width="13.85" height="13.85"/>
  </g>
</svg>