<?xml version="1.0" encoding="UTF-8"?><svg id="_图层_1" xmlns="http://www.w3.org/2000/svg" viewBox="0 0 666.46 97.78"><defs><style>.cls-1,.cls-2{stroke:#000;stroke-width:.5px;}.cls-2{fill:#353535;stroke-miterlimit:10;}</style></defs><path class="cls-1" d="M45.73,53.51c-.23,0-.55.08-.94.23l-.94.47-1.4.12c-.7-.08-1.11-.47-1.23-1.17s.18-1.13.88-1.29l2.34-.94c.47-.16.66-.43.59-.82l-2.22-9.6c0-.47-.04-.72-.12-.76-.08-.04-.35-.02-.82.06l-3.63.47c-.47.08-.88.08-1.23,0-.35-.08-.6-.51-.76-1.29.16-.62.47-1.05.94-1.29l1.52-.12c.78-.23,1.87-.43,3.28-.58l-.58-2.81c-.39-1.09-.63-1.87-.7-2.34l-.12-.59c-.08-.47,0-.84.23-1.11.23-.27.47-.41.7-.41.78-.16,1.31.1,1.58.76.27.66.64,1.81,1.11,3.45l.7,2.22c.86-.39,1.6-.62,2.22-.7.62-.31,1.09-.47,1.4-.47.94-.39,1.58-.12,1.93.82.35.94,0,1.58-1.05,1.93-1.05.35-2.36.76-3.92,1.23l2.46,10.3h.35c.94-.39,1.58-.66,1.93-.82.35-.16.88-.18,1.58-.06.7.12,1.09.47,1.17,1.05.08.58-.16,1.05-.7,1.4-.55.35-1.37.72-2.46,1.11h-.35c-.47.23-.74.37-.82.41-.08.04,0,.29.23.76l1.64,8.43c.31,1.25.47,2.18.47,2.81.08,1.48-.27,2.63-1.05,3.45-.78.82-1.95,1.11-3.51.88-1.56-.23-2.65-.82-3.28-1.76-.39-.63-.74-1.17-1.05-1.64-.55-1.01-.49-1.76.18-2.22.66-.47,1.38-.31,2.16.47l.94,1.4c.47.62,1.05.9,1.75.82.31.08.53.06.64-.06.12-.12.21-.37.29-.76l-.47-3.16-1.87-8.31ZM82.7,53.39c-1.33.31-2.69.66-4.1,1.05l-.7.12c-.7.16-1.17-.06-1.4-.64-.23-.59-.12-1.11.35-1.58l1.05-.58,4.8-1.29c0-1.4-.08-2.57-.23-3.51,0-.23-.16-.35-.47-.35l-1.4-.47c-.78-.16-1.13-.66-1.05-1.52.08-.39.25-.72.53-.99.27-.27.56-.37.88-.29l.7.12c1.17.16,1.91.39,2.22.7,1.25.31,1.87,1.21,1.87,2.69l.23,7.84c.08.63.04,1.48-.12,2.57-.16,1.09-.86,1.72-2.11,1.87l-6.9,1.4c-.47.08-1.13.31-1.99.7l-1.05.35-10.18,2.46c-2.11.08-3.28-.82-3.51-2.69l-.94-5.38c-.08-.7-.23-1.21-.47-1.52-.31-.86-.16-1.6.47-2.22,1.17-1.48,2.46-2.85,3.86-4.1.7-.47,1.36-.43,1.99.12.47.63.39,1.29-.23,1.99l-1.52,1.64c-.23.16-.47.35-.7.58-.55.39-.84.84-.88,1.35-.04.51.1,1.15.41,1.93.54-.47,1.17-.78,1.87-.94.23-.08.53-.19.88-.35.35-.16.56-.23.64-.23.78-.23,1.35.02,1.7.76.35.74.13,1.31-.64,1.7-1.33.7-2.34,1.17-3.04,1.4-.39.31-.7.47-.94.47l.47,1.87c.08.39.31.54.7.47l3.28-.7c1.33-.47,2.26-.74,2.81-.82.54-.08.78-.35.7-.82l-.7-4.92-1.87-11.12-1.4.35-6.08,1.05c-.47.08-.82.04-1.05-.12-.55,0-.9-.39-1.05-1.17.16-.62.47-1.05.94-1.29l1.05-.12,6.55-1.4.35-.35c-.39-2.81-.98-5.3-1.75-7.49l-3.86.59c-.63.08-1.13.08-1.52,0-.39-.08-.63-.43-.7-1.05-.08-.62.19-1.09.82-1.4h.35c.23-.23.47-.27.7-.12,3.67-.47,7.29-1.4,10.88-2.81.31-.08.64-.04,1,.12.35.16.56.43.64.82.08.39.02.76-.18,1.11-.2.35-.45.57-.76.64l-3.63,1.17c-.16.08-.39.16-.7.23l1.75,7.72c2.57-.39,4.99-1.05,7.25-1.99.62-.08,1.09.2,1.4.82.31.63.27,1.13-.12,1.52-.16.23-.55.51-1.17.82l-.35.12-6.55,1.64,2.93,16.27,2.11-.47c2.73-.62,4.8-1.01,6.2-1.17.47-.23.74-.39.82-.47.08-.08.12-.35.12-.82l-.23-1.87Z"/><path class="cls-1" d="M129.02,66.96c-1.01.16-2.5.43-4.45.82l-4.56.82c-2.11.47-4.25.58-6.44.35-3.04-.23-4.91-1.8-5.62-4.68l-.94-3.86-1.4-8.89c.08-.78.35-1.21.82-1.29.7-.31,1.21-.12,1.52.59.39.86.59,1.48.59,1.87l1.64,8.78.94,2.57c.23,1.01,1.05,1.64,2.46,1.87,1.4.23,3.39.16,5.97-.23l6.55-1.29,6.9-.94c1.64-.23,3.67-.9,6.08-1.99,1.33-.55,1.95-1.44,1.87-2.69l.12-8.89c0-.39.14-.72.41-.99s.56-.41.88-.41c.86.08,1.36.43,1.52,1.05l.12.7c.23,3.36.27,6.4.12,9.13-.16,2.18-1.29,3.78-3.39,4.8-2.58,1.09-4.88,1.79-6.9,2.11l-4.8.7ZM122.23,26.47c-4.14.7-8.35.94-12.64.7-.7-.16-.99-.6-.88-1.35.12-.74.49-1.15,1.11-1.23l.82-.12c2.03.16,4.21.08,6.55-.23,1.4-.16,3.55-.47,6.44-.94l4.45-.94c.47,0,.9.04,1.29.12.7.16,1.11.53,1.23,1.11.12.58-.18,1.07-.88,1.46-.16.16-.47.27-.94.35-1.33.23-3.51.59-6.55,1.05ZM113.57,48.24c-.39-2.81-.78-5.62-1.17-8.43l-.12-.82c.08-.47.29-.84.64-1.11.35-.27.76-.41,1.23-.41,1.01.31,2.57.23,4.68-.23l4.8-1.17c1.33-.39,3.04-.39,5.15,0,1.4.08,2.57.82,3.51,2.22s1.68,3.32,2.22,5.73l1.05,4.56c.08.94.04,2.03-.12,3.28-.31,1.64-1.29,2.73-2.92,3.28-.86.31-2.22.74-4.1,1.29l-7.37,1.99c-1.48.23-3.16.35-5.03.35-.7-.16-1.13-.66-1.29-1.52l-.35-2.81-.58-6.32-.23.12ZM121.18,39.58c-.23,0-.55.04-.94.12-2.11.55-3.63.9-4.56,1.05l.7,5.5,5.27-1.4c.39-.08.54-.31.47-.7-.47-2.03-.78-3.55-.94-4.56ZM116.73,48.36c.08.7.23,1.76.47,3.16l.12,3.28c.08.47.19.74.35.82.16.08.54.08,1.17,0,1.79-.47,3.16-.78,4.1-.94.47-.16.66-.47.58-.94l-.82-5.73c-.08-.23-.2-.39-.35-.47l-1.76.35c-1.79.55-3.08.7-3.86.47ZM130.89,42.62c-.23-1.17-.74-2.22-1.52-3.16-.23-.16-.47-.31-.7-.47-1.48-.47-3.16-.47-5.03,0l1.29,5.03,5.97-1.4ZM126.44,53.74c.39-.08.86-.23,1.4-.47,1.71-.31,3.04-.66,3.98-1.05l.58-.7c.08-1.01.12-1.74.12-2.17s-.12-.95-.35-1.58l-.12-.7c-.08-.78-.16-1.23-.23-1.35-.08-.12-.35-.14-.82-.06l-5.5,1.05.94,7.02Z"/><path class="cls-1" d="M161.99,41.92c-.23-1.33-.43-2.61-.58-3.86-.08-.47-.08-.82,0-1.05.16-.62.53-.95,1.11-.99.58-.04,1.03.22,1.35.76l1.4,10.65c-.08.7-.59,1.13-1.52,1.29-.55.08-.98-.27-1.29-1.05l-.23-1.05-.23-4.68ZM172.99,39.23c1.33,9.52,1.76,19.04,1.29,28.55-.08.31-.25.59-.53.82-.27.23-.57.31-.88.23-.62.08-1.09-.23-1.4-.94l-.23-.94c.47-13.34-.58-26.49-3.16-39.44-.08-.86.29-1.4,1.11-1.64s1.31.2,1.46,1.29l2.34,12.05ZM189.84,40.4c-.16.08-.39.12-.7.12l-3.75.7c-.55.08-.86.18-.94.29-.08.12-.08.49,0,1.11l1.99,11.82c-.08.7-.47,1.15-1.17,1.35-.7.2-1.25-.14-1.64-.99l-.23-1.4c-.94-5.23-1.6-9.13-1.99-11.7-.08-.86-.02-1.48.18-1.87.19-.39.68-.7,1.46-.94.78-.23,1.87-.47,3.28-.7l3.16-.7-1.17-7.84c-.31-.86-.55-1.35-.7-1.46-.16-.12-.72-.16-1.7-.12-.98.04-1.93.02-2.87-.06-.62-.16-.96-.58-1-1.29-.04-.7.29-1.13,1-1.29l1.75-.12,11.35-1.17c.7,0,1.09.35,1.17,1.05.08.7-.2,1.25-.82,1.64l-5.97.82,1.87,8.89,1.76-.23c1.79-.47,3.16-.74,4.1-.82,2.88-.39,4.76.78,5.62,3.51.78,2.34,1.21,4.84,1.29,7.49-.16.55-.45,1.04-.88,1.46s-.94.63-1.52.58c-.58-.04-1.5-.21-2.75-.53-.47-.16-1.19-.53-2.17-1.11-.98-.58-1.35-1.27-1.11-2.05.62-.86,1.36-1.05,2.22-.58l1.76.82,1.17.35c.16-.16.23-.35.23-.58l-1.05-4.8c-.23-.78-.51-1.27-.82-1.46-.31-.19-.9-.21-1.76-.06-2.18.31-3.82.59-4.92.82-.39.08-.6.16-.64.23-.04.08-.02.35.06.82l2.58,15.56,1.29,8.66c0,.47-.16.84-.47,1.11-.31.27-.74.37-1.29.29-1.09-.16-1.6-.78-1.52-1.87v-1.4l-3.74-22.35Z"/><path class="cls-2" d="M252.04,46.25c-.23-1.4-.43-3.39-.58-5.97l-.82-5.73-.7-2.93.12-1.05c.16-.78.53-1.21,1.11-1.29.58-.08,1.07.23,1.46.94.16.16.27.43.35.82l1.99,14.74.23,2.69c.16,1.72.31,3,.47,3.86.31,2.03.58,4.1.82,6.2-.16.63-.53,1.01-1.11,1.17-.59.16-1.15-.04-1.7-.59-.16-.31-.31-.82-.47-1.52l-1.29-11.47c.08,0,.12.04.12.12Z"/><path class="cls-1" d="M284.42,56.43c.78-1.56,1.4-2.73,1.87-3.51.08-.23.19-.58.35-1.05l.35-.47c.16-.23.45-.41.88-.53.43-.12.8-.08,1.11.12.31.2.53.47.64.82s.06.68-.18.99l-3.98,8.31-.35.12c-.39.94-1.01,1.29-1.87,1.05-.86-.23-1.37-.82-1.52-1.76-.31-2.03-.51-3.59-.58-4.68l.12-.94c-.08-2.81-.12-4.88-.12-6.2,0-.31-.08-.78-.23-1.4l-.12-.7c-.08-.54-.39-.74-.94-.58l-2.92.47-2.81-.12c-.55-.16-.86-.59-.94-1.29-.08-.39,0-.74.23-1.05.23-.31.58-.47,1.05-.47.94.16,2.22.12,3.86-.12l1.99-.35c1.4-.16,2.38.41,2.93,1.7.54,1.29.9,3.26,1.05,5.91v5.73h.12ZM273.42,33.49c-.08-.78.16-1.33.7-1.64.94-.39,1.48-.23,1.64.47.78.86,1.56,2.19,2.34,3.98.16.16.19.39.12.7-.08.31-.22.57-.41.76-.2.2-.47.29-.82.29s-.64-.12-.88-.35c-1.01-.86-1.91-2.26-2.69-4.21ZM305.02,38.99c.47-.31,1.01-.62,1.64-.94l1.64-1.29c1.01-.47,1.77-.37,2.28.29.51.66.33,1.39-.53,2.16-1.48,1.25-2.77,2.15-3.86,2.69-1.01.31-1.89.25-2.63-.18-.74-.43-1.19-1.15-1.35-2.17l-1.17-8.31c-.08-.62-.35-.9-.82-.82l-4.92.7.23,1.29c.54,3.9.78,7.8.7,11.7-.23.86-.74,1.23-1.52,1.11-.78-.12-1.25-.6-1.4-1.46l-.12-.47c.08-4.21-.27-8.43-1.05-12.64-.23-.39-.23-.88,0-1.46.23-.58.53-.97.88-1.17.35-.19.78-.19,1.29,0,.51.2.88.25,1.11.18l4.33-.58c1.17-.16,2.05-.04,2.63.35.58.39,1.03,1.17,1.35,2.34.31,1.48.66,3.67,1.05,6.55l.23,2.11ZM301.16,62.05c-.31-.08-.7-.2-1.17-.35l-.35-.12-1.64-1.05c-.55-.62-.61-1.23-.18-1.81.43-.59,1.11-.64,2.05-.18.31.16.97.39,1.99.7.39.08.62,0,.7-.23l2.57-6.55c-.16.16-.39.27-.7.35l-1.76.7c-1.72.86-3.04,1.4-3.98,1.64-.39.16-.98.2-1.75.12-.39-.16-.68-.35-.88-.59-.2-.23-.25-.58-.18-1.05.08-.47.47-.78,1.17-.94,2.96-.62,5.69-1.91,8.19-3.86.23-.23.56-.41.99-.53.43-.12.8-.08,1.11.12.31.2.59.53.82.99.39.62.43,1.48.12,2.57-.31,1.72-.9,3.51-1.75,5.38,0,.55-.27,1.21-.82,1.99l-.23.7c1.64.31,3.04.39,4.21.23l1.05-.23c.62-.47,1.17-.41,1.64.18s.47,1.19,0,1.81c-.16.23-.62.53-1.4.88-.78.35-2.03.41-3.74.18l-.35.12c-.94-.16-1.6-.27-1.99-.35-.39-.08-.74.04-1.05.35-1.09,2.03-1.95,3.55-2.57,4.56l-.35.7c-.86.47-1.56.51-2.11.12-.23-.23-.39-.55-.47-.94-.08-.39.04-.82.35-1.29.31-.47.82-1.37,1.52-2.69l.94-1.64Z"/><path class="cls-1" d="M340.33,53.97c1.01-1.09,1.73-1.85,2.16-2.28s.74-.74.94-.94c.19-.19.51-.29.94-.29s.72.12.88.35c.62.47.74,1.01.35,1.64-.39.63-.74,1.09-1.05,1.4-.55.7-1.56,1.76-3.04,3.16l-.23.12c-.86.78-1.66,1.04-2.4.76-.74-.27-1.23-.95-1.46-2.05-.31-2.5-.39-4.76-.23-6.79l.23-5.73v-1.05c-.55.08-1.01.2-1.4.35l-4.21.82c-.86,0-1.33-.39-1.4-1.17-.08-.39-.02-.72.18-.99.19-.27.49-.45.88-.53.78-.08,1.36-.19,1.76-.35,1.56-.47,2.81-.82,3.74-1.05.94-.23,1.74-.1,2.4.41.66.51.95,1.27.88,2.28l-.12,7.02c-.08,1.01-.08,2.57,0,4.68.16,0,.23.08.23.23ZM333.43,29.52c-.16-.78-.02-1.29.41-1.52.43-.23.8-.27,1.11-.12.31.16.58.35.82.59l.47,1.4c.54,1.25.94,2.15,1.17,2.69.08.31.02.62-.18.94-.2.31-.45.53-.76.64-.31.12-.62.12-.94,0-.31-.12-.58-.41-.82-.88-.63-1.4-1.05-2.65-1.29-3.74ZM357.3,34.55c1.56-.23,2.77-.47,3.63-.7l4.56-.82c1.01.08,1.56.47,1.64,1.17.08.7-.23,1.25-.94,1.64-.47.08-1.25.2-2.34.35l-5.27,1.17c-.47.08-.74.16-.82.23-.08.08-.08.35,0,.82l1.76,17.55c-.08,1.01-.59,1.56-1.52,1.64-.78-.08-1.25-.58-1.4-1.52-.7-5.85-1.29-11.7-1.76-17.55,0-.47-.27-.66-.82-.58l-7.26.7c-.47,0-.78-.12-.94-.35-.16-.23-.27-.53-.35-.88-.08-.35,0-.64.23-.88.23-.23.51-.39.82-.47l1.87-.23c1.17-.08,2.93-.31,5.27-.7.47,0,.72-.02.76-.06.04-.04.02-.29-.06-.76l-.47-3.39c.08-.54.35-.97.82-1.29.86-.16,1.36.04,1.52.59.23.23.41.68.53,1.35.12.66.29,1.66.53,2.98Z"/><path class="cls-1" d="M387.23,41.92c-.23-1.33-.43-2.61-.58-3.86-.08-.47-.08-.82,0-1.05.16-.62.53-.95,1.11-.99.58-.04,1.03.22,1.35.76l1.4,10.65c-.08.7-.58,1.13-1.52,1.29-.55.08-.98-.27-1.29-1.05l-.23-1.05-.23-4.68ZM398.23,39.23c1.33,9.52,1.75,19.04,1.29,28.55-.08.31-.25.59-.53.82-.27.23-.57.31-.88.23-.62.08-1.09-.23-1.4-.94l-.23-.94c.47-13.34-.58-26.49-3.16-39.44-.08-.86.29-1.4,1.11-1.64.82-.23,1.3.2,1.46,1.29l2.34,12.05ZM415.08,40.4c-.16.08-.39.12-.7.12l-3.74.7c-.55.08-.86.18-.94.29-.08.12-.08.49,0,1.11l1.99,11.82c-.08.7-.47,1.15-1.17,1.35-.7.2-1.25-.14-1.64-.99l-.23-1.4c-.94-5.23-1.6-9.13-1.99-11.7-.08-.86-.02-1.48.18-1.87.19-.39.68-.7,1.46-.94.78-.23,1.87-.47,3.28-.7l3.16-.7-1.17-7.84c-.31-.86-.55-1.35-.7-1.46-.16-.12-.72-.16-1.7-.12-.98.04-1.93.02-2.87-.06-.62-.16-.96-.58-.99-1.29-.04-.7.29-1.13.99-1.29l1.76-.12,11.35-1.17c.7,0,1.09.35,1.17,1.05.08.7-.2,1.25-.82,1.64l-5.97.82,1.87,8.89,1.75-.23c1.79-.47,3.16-.74,4.1-.82,2.89-.39,4.76.78,5.62,3.51.78,2.34,1.21,4.84,1.29,7.49-.16.55-.45,1.04-.88,1.46s-.94.63-1.52.58c-.58-.04-1.5-.21-2.75-.53-.47-.16-1.19-.53-2.16-1.11-.98-.58-1.35-1.27-1.11-2.05.62-.86,1.36-1.05,2.22-.58l1.76.82,1.17.35c.16-.16.23-.35.23-.58l-1.05-4.8c-.23-.78-.51-1.27-.82-1.46-.31-.19-.9-.21-1.75-.06-2.19.31-3.82.59-4.92.82-.39.08-.61.16-.64.23-.04.08-.02.35.06.82l2.57,15.56,1.29,8.66c0,.47-.16.84-.47,1.11-.31.27-.74.37-1.29.29-1.09-.16-1.6-.78-1.52-1.87v-1.4l-3.74-22.35Z"/></svg>