<?xml version="1.0" encoding="UTF-8"?><svg id="_图层_1" xmlns="http://www.w3.org/2000/svg" viewBox="0 0 666.46 97.78"><defs><style>.cls-1{fill:#353535;}</style></defs><path d="M49.47,33.29v3.52h-3.42v27.98h3.42v3.52h-10.94v-3.52h3.42v-27.98h-3.42v-3.52h10.94Z"/><path d="M64.12,68.3h-4V31.29h4v37.01Z"/><path d="M81.63,68.3h-4V31.29h4v37.01Z"/><path d="M115.35,68.3h-4v-3.96h-.1c-1.66,3.03-4.23,4.54-7.71,4.54-5.96,0-8.94-3.55-8.94-10.64v-14.94h3.98v14.31c0,5.27,2.02,7.91,6.05,7.91,1.95,0,3.56-.72,4.82-2.16,1.26-1.44,1.89-3.32,1.89-5.65v-14.4h4v25Z"/><path d="M127.32,67.4v-4.3c2.18,1.61,4.58,2.42,7.2,2.42,3.52,0,5.27-1.17,5.27-3.52,0-.67-.15-1.23-.45-1.7-.3-.46-.71-.87-1.22-1.23-.51-.36-1.12-.68-1.81-.96-.69-.28-1.44-.58-2.23-.89-1.11-.44-2.08-.88-2.92-1.33-.84-.45-1.54-.95-2.1-1.51s-.99-1.2-1.27-1.92c-.29-.72-.43-1.55-.43-2.51,0-1.17.27-2.21.81-3.11s1.25-1.66,2.15-2.27c.9-.61,1.92-1.07,3.06-1.38,1.15-.31,2.33-.46,3.55-.46,2.17,0,4.1.37,5.81,1.12v4.05c-1.84-1.2-3.96-1.81-6.35-1.81-.75,0-1.42.09-2.03.26-.6.17-1.12.41-1.55.72-.43.31-.77.68-1,1.11-.24.43-.35.91-.35,1.43,0,.65.12,1.2.35,1.64.24.44.58.83,1.04,1.17.46.34,1.01.65,1.66.93.65.28,1.39.58,2.22.9,1.11.42,2.1.86,2.98,1.31.88.45,1.63.95,2.25,1.51s1.09,1.21,1.43,1.94c.33.73.5,1.6.5,2.61,0,1.24-.27,2.31-.82,3.22-.55.91-1.27,1.67-2.19,2.27-.91.6-1.96,1.05-3.15,1.34-1.19.29-2.43.44-3.74.44-2.57,0-4.8-.5-6.69-1.49Z"/><path d="M167.05,68.06c-.94.52-2.19.78-3.74.78-4.38,0-6.57-2.44-6.57-7.32v-14.79h-4.3v-3.42h4.3v-6.1l4-1.29v7.4h6.3v3.42h-6.3v14.09c0,1.68.28,2.87.85,3.59.57.72,1.51,1.07,2.83,1.07,1.01,0,1.88-.28,2.61-.83v3.42Z"/><path d="M190.83,47.36c-.7-.54-1.71-.81-3.03-.81-1.71,0-3.14.81-4.28,2.42s-1.72,3.81-1.72,6.59v12.74h-4v-25h4v5.15h.1c.57-1.76,1.44-3.13,2.61-4.11,1.17-.98,2.48-1.48,3.93-1.48,1.04,0,1.84.11,2.39.34v4.15Z"/><path d="M218.47,68.3h-4v-3.91h-.1c-1.74,3-4.3,4.49-7.69,4.49-2.49,0-4.44-.66-5.85-1.98-1.41-1.32-2.11-3.07-2.11-5.25,0-4.67,2.75-7.39,8.25-8.15l7.5-1.05c0-4.25-1.72-6.37-5.15-6.37-3.01,0-5.73,1.03-8.15,3.08v-4.1c2.46-1.56,5.29-2.34,8.5-2.34,5.88,0,8.81,3.11,8.81,9.33v16.26ZM214.47,55.66l-6.03.83c-1.86.26-3.25.72-4.2,1.38s-1.42,1.83-1.42,3.5c0,1.22.44,2.22,1.31,2.99.87.77,2.03,1.16,3.48,1.16,1.99,0,3.63-.7,4.92-2.09,1.29-1.39,1.94-3.15,1.94-5.29v-2.49Z"/><path d="M243.01,68.06c-.94.52-2.19.78-3.74.78-4.38,0-6.57-2.44-6.57-7.32v-14.79h-4.3v-3.42h4.3v-6.1l4-1.29v7.4h6.3v3.42h-6.3v14.09c0,1.68.28,2.87.85,3.59.57.72,1.51,1.07,2.83,1.07,1.01,0,1.88-.28,2.61-.83v3.42Z"/><path d="M264.21,68.89c-3.69,0-6.64-1.17-8.85-3.5-2.21-2.34-3.31-5.43-3.31-9.29,0-4.2,1.15-7.48,3.44-9.84,2.29-2.36,5.4-3.54,9.3-3.54s6.64,1.15,8.73,3.44c2.09,2.29,3.14,5.48,3.14,9.55s-1.13,7.18-3.38,9.58c-2.25,2.4-5.28,3.6-9.07,3.6ZM264.5,46.09c-2.57,0-4.61.88-6.1,2.62-1.5,1.75-2.25,4.16-2.25,7.24s.76,5.3,2.27,7.01,3.54,2.56,6.08,2.56,4.58-.84,5.97-2.51c1.39-1.68,2.09-4.06,2.09-7.15s-.7-5.53-2.09-7.23c-1.39-1.69-3.38-2.54-5.97-2.54Z"/><path d="M301.49,47.36c-.7-.54-1.71-.81-3.03-.81-1.71,0-3.14.81-4.29,2.42s-1.72,3.81-1.72,6.59v12.74h-4v-25h4v5.15h.1c.57-1.76,1.44-3.13,2.61-4.11,1.17-.98,2.48-1.48,3.93-1.48,1.04,0,1.84.11,2.39.34v4.15Z"/><path class="cls-1" d="M334.09,80.07h-3.61V30.07h3.61v50Z"/><path d="M348.23,68.3v-35.01h9.67c12.34,0,18.51,5.69,18.51,17.07,0,5.4-1.71,9.75-5.14,13.02-3.43,3.28-8.01,4.92-13.76,4.92h-9.28ZM352.34,37v27.59h5.22c4.59,0,8.16-1.23,10.72-3.69,2.56-2.46,3.83-5.94,3.83-10.45,0-8.97-4.77-13.45-14.31-13.45h-5.47Z"/><path d="M408.25,56.8h-17.65c.07,2.78.81,4.93,2.25,6.45s3.4,2.27,5.91,2.27c2.82,0,5.4-.93,7.76-2.78v3.76c-2.2,1.6-5.1,2.39-8.72,2.39s-6.31-1.14-8.33-3.41-3.03-5.46-3.03-9.58c0-3.89,1.1-7.06,3.31-9.51,2.21-2.45,4.94-3.67,8.21-3.67s5.8,1.06,7.59,3.17c1.79,2.12,2.69,5.05,2.69,8.81v2.1ZM404.15,53.41c-.02-2.31-.57-4.11-1.67-5.4-1.1-1.29-2.62-1.93-4.58-1.93s-3.49.68-4.81,2.03c-1.32,1.35-2.13,3.12-2.44,5.3h13.5Z"/><path d="M418.19,67.4v-4.3c2.18,1.61,4.58,2.42,7.2,2.42,3.52,0,5.27-1.17,5.27-3.52,0-.67-.15-1.23-.45-1.7s-.71-.87-1.22-1.23c-.51-.36-1.12-.68-1.81-.96-.69-.28-1.44-.58-2.23-.89-1.11-.44-2.08-.88-2.92-1.33-.84-.45-1.54-.95-2.1-1.51s-.98-1.2-1.27-1.92c-.28-.72-.43-1.55-.43-2.51,0-1.17.27-2.21.81-3.11s1.25-1.66,2.15-2.27c.89-.61,1.92-1.07,3.06-1.38,1.15-.31,2.33-.46,3.55-.46,2.16,0,4.1.37,5.81,1.12v4.05c-1.84-1.2-3.96-1.81-6.35-1.81-.75,0-1.42.09-2.03.26-.6.17-1.12.41-1.55.72-.43.31-.76.68-1,1.11-.24.43-.35.91-.35,1.43,0,.65.12,1.2.35,1.64s.58.83,1.04,1.17c.46.34,1.01.65,1.66.93.65.28,1.39.58,2.22.9,1.11.42,2.1.86,2.98,1.31.88.45,1.63.95,2.25,1.51.62.56,1.09,1.21,1.43,1.94s.5,1.6.5,2.61c0,1.24-.27,2.31-.82,3.22-.54.91-1.27,1.67-2.18,2.27-.91.6-1.96,1.05-3.15,1.34-1.19.29-2.43.44-3.74.44-2.57,0-4.8-.5-6.69-1.49Z"/><path d="M448.37,36.96c-.72,0-1.33-.24-1.83-.73-.5-.49-.76-1.11-.76-1.86s.25-1.37.76-1.87c.5-.5,1.11-.74,1.83-.74s1.36.25,1.87.74c.51.5.77,1.12.77,1.87s-.26,1.33-.77,1.83c-.51.5-1.14.76-1.87.76ZM450.32,68.3h-4v-25h4v25Z"/><path d="M485.17,66.3c0,9.18-4.39,13.77-13.18,13.77-3.09,0-5.79-.59-8.11-1.76v-4c2.82,1.56,5.5,2.34,8.06,2.34,6.15,0,9.23-3.27,9.23-9.81v-2.73h-.1c-1.9,3.19-4.77,4.79-8.59,4.79-3.11,0-5.61-1.11-7.51-3.33-1.9-2.22-2.84-5.2-2.84-8.95,0-4.25,1.02-7.62,3.06-10.13,2.04-2.51,4.84-3.76,8.39-3.76s5.87,1.35,7.5,4.05h.1v-3.47h4v23ZM481.16,57v-3.69c0-1.99-.67-3.69-2.01-5.1-1.34-1.42-3.02-2.12-5.02-2.12-2.47,0-4.41.9-5.81,2.7-1.4,1.8-2.1,4.32-2.1,7.56,0,2.78.67,5.01,2.01,6.68,1.34,1.67,3.12,2.5,5.33,2.5s4.07-.8,5.48-2.39c1.41-1.59,2.11-3.64,2.11-6.13Z"/><path d="M519.42,68.3h-4v-14.26c0-5.31-1.94-7.96-5.81-7.96-2,0-3.66.75-4.97,2.26-1.31,1.51-1.96,3.41-1.96,5.7v14.26h-4v-25h4v4.15h.1c1.89-3.16,4.62-4.74,8.2-4.74,2.73,0,4.83.88,6.27,2.65,1.45,1.77,2.17,4.32,2.17,7.65v15.28Z"/><path d="M552.46,56.8h-17.65c.07,2.78.81,4.93,2.25,6.45,1.43,1.51,3.4,2.27,5.91,2.27,2.82,0,5.4-.93,7.76-2.78v3.76c-2.2,1.6-5.1,2.39-8.72,2.39s-6.31-1.14-8.33-3.41c-2.02-2.27-3.03-5.46-3.03-9.58,0-3.89,1.1-7.06,3.31-9.51,2.21-2.45,4.94-3.67,8.21-3.67s5.8,1.06,7.59,3.17c1.79,2.12,2.69,5.05,2.69,8.81v2.1ZM548.36,53.41c-.02-2.31-.57-4.11-1.67-5.4-1.1-1.29-2.62-1.93-4.58-1.93s-3.49.68-4.81,2.03c-1.32,1.35-2.13,3.12-2.44,5.3h13.5Z"/><path d="M576.95,47.36c-.7-.54-1.71-.81-3.03-.81-1.71,0-3.14.81-4.29,2.42s-1.72,3.81-1.72,6.59v12.74h-4v-25h4v5.15h.1c.57-1.76,1.44-3.13,2.61-4.11,1.17-.98,2.48-1.48,3.93-1.48,1.04,0,1.84.11,2.39.34v4.15Z"/></svg>