<?xml version="1.0" encoding="UTF-8"?>
<svg id="_图层_1" data-name="图层 1" xmlns="http://www.w3.org/2000/svg" viewBox="0 0 138.51 32.97">
  <defs>
    <style>
      .cls-1 {
        fill: #634739;
      }
    </style>
  </defs>
  <path class="cls-1" d="M3.77,11.25c.17,1.28.38,2.6.64,3.96.08.6.42.85,1.02.77l7.15-.77c.59.17.98.72,1.15,1.66,0,.25-.11.53-.32.83-.21.3-.45.49-.7.57-.26.09-.64.13-1.15.13l-6,.51c-.6.09-.85.38-.77.89.08.85.17,2.06.25,3.64.08,1.57.19,2.77.32,3.57.13.81.4,1.36.83,1.66.43.3,1.06.53,1.92.7,1.53.34,3.4.21,5.62-.38l2.17-.64c1.28-.26,2.08.09,2.43,1.02.08.34.04.72-.13,1.15-.17.43-.51.77-1.02,1.02-2.21.68-3.92,1.11-5.11,1.28-1.87.25-3.7.17-5.49-.26-2.21-.43-3.66-1.83-4.34-4.21l-.51-3.32-.89-10.85L.06,8.7c-.09-.59-.09-1.62,0-3.06.08-1.11.64-1.83,1.66-2.17.85-.34,1.53-.55,2.04-.64l7.02-.64c.34,0,.59.09.77.26,1.1.09,1.66.53,1.66,1.34s-.51,1.3-1.53,1.47l-7.15.64c-.6.09-.98.21-1.15.38-.17.17-.21.55-.13,1.15-.09.85,0,2.17.26,3.96l.26-.13Z"/>
  <path class="cls-1" d="M31.65,21.08c-.77,1.02-1.32,2-1.66,2.94l-1.15,1.79c-.43.43-.85.72-1.28.89-.43.17-.83.15-1.21-.06-.38-.21-.6-.55-.64-1.02-.04-.47.02-.91.19-1.34l2.68-4.6c.26-.59.38-.96.38-1.08s-.17-.4-.51-.83l-3.57-3.7c-.26-.43-.36-.79-.32-1.09.04-.3.15-.57.32-.83.51-.77,1.19-.89,2.04-.38l3.7,3.96,1.66-4.08c.17-.6.38-1.06.64-1.4.26-.94.85-1.32,1.79-1.15.42,0,.74.24.96.7.21.47.19.96-.06,1.47l-2.43,5.87c-.17.68-.09,1.19.26,1.53.68.51,1.49,1.36,2.43,2.55l.51.51c.34.34.51.7.51,1.09s-.09.75-.26,1.08c-.43.6-1.19.6-2.3,0-.26-.25-.64-.68-1.15-1.28l-.51-.64c-.26,0-.6-.3-1.02-.89Z"/>
  <path class="cls-1" d="M54.37,6.66c-1.49-1.11-3.13-1.19-4.91-.26-.51.17-1.15.68-1.92,1.53-.34.17-.64.43-.89.77l-.26-.38c-.51-.25-1-.23-1.47.06-.47.3-.75.79-.83,1.47l1.15,9.45,2.43,11.62.26.64c.59.77,1.28,1.11,2.04,1.02.26-.08.51-.28.77-.57.26-.3.42-.66.51-1.09l-1.53-8.3-.38-2.3c2.64-1.53,4.64-3.53,6-6,.68-1.19,1.02-2.21,1.02-3.06.17-1.96-.49-3.49-1.98-4.6ZM52.77,12.27c-.94,1.71-2.21,3.11-3.83,4.21-.85-1.45-.98-2.85-.38-4.21.59-1.36,1.45-2.3,2.55-2.81.43-.17.85-.17,1.28,0,.42.17.64.53.64,1.08s-.09,1.13-.26,1.72Z"/>
  <path class="cls-1" d="M72.11,29.25c.08.51.02.91-.19,1.21-.21.3-.53.53-.96.7-.43.17-.83.11-1.21-.19-.38-.3-.66-.7-.83-1.21l-.64-2.43-3.57-25.91c.08-.85.47-1.32,1.15-1.4.68-.08,1.19.25,1.53,1.02l.13,1.15c1.7,10.64,2.81,17.57,3.32,20.81l1.28,6.26Z"/>
  <path class="cls-1" d="M94.5,18.02c-.17-2.21-1.11-3.89-2.81-5.04-1.7-1.15-3.79-1.38-6.26-.7-1.02.43-1.75.98-2.17,1.66l-.51.77c-.68.43-1.28,1.11-1.79,2.04-1.02,2.38-1.45,5.11-1.28,8.17.34,2.21,1.19,3.83,2.55,4.85,1.36,1.02,2.98,1.26,4.85.7,1.87-.55,3.36-1.55,4.47-3,2.47-2.64,3.45-5.79,2.94-9.45ZM90.61,23c-.72,1.79-1.81,3.06-3.25,3.83-.26,0-.47.09-.64.25-2.3.77-3.62-.08-3.96-2.55,0-2.38.3-4.47.89-6.26.34-.93,1.06-1.7,2.17-2.3,1.1-.59,2.08-.77,2.94-.51,1.36.25,2.19,1.13,2.49,2.62.3,1.49.08,3.13-.64,4.92Z"/>
  <path class="cls-1" d="M107.2,17.38c1.36-2.64,3.15-4.89,5.36-6.77.77-.43,1.49-.38,2.17.13.51.85.55,1.58.13,2.17-.68.94-1.4,1.66-2.17,2.17-1.45,1.36-2.49,2.98-3.13,4.85-.64,1.87-.92,3.83-.83,5.87l.13.89c-.26.85-.77,1.32-1.53,1.4-.77.09-1.36-.34-1.79-1.28l-3.32-14.43c-.17-1.45.21-2.23,1.15-2.36.94-.13,1.49.49,1.66,1.85.42,1.11.98,2.94,1.66,5.49h.51Z"/>
  <path class="cls-1" d="M137.77,22.81c-.77-.55-1.58-.4-2.43.45,0,.34-.13.68-.38,1.02l-2.17,1.79c-1.11.77-2.21.55-3.32-.64-.51-.94-1.07-2.55-1.66-4.85l1.15.26c1.96.09,3.55-.32,4.79-1.21,1.23-.89,2.08-2.06,2.55-3.51.47-1.45.49-2.83.06-4.15-.43-1.32-1.28-2.21-2.55-2.68-1.28-.46-2.85-.36-4.72.32-2.64.94-4.21,3.02-4.72,6.26-.43,2.3-.26,4.38.51,6.25.68,2.64,1.4,4.47,2.17,5.49,1.62,2.04,3.62,2.7,6,1.98,2.38-.72,4.13-2.19,5.23-4.4.42-1.02.26-1.81-.51-2.36ZM128.83,13.87c.59-.81,1.49-1.3,2.68-1.47.68-.08,1.17.02,1.47.32.3.3.4.79.32,1.47-.17,1.36-.66,2.34-1.47,2.94-.81.6-1.98.72-3.51.38l-.64-.51c.17-1.28.55-2.32,1.15-3.13Z"/>
</svg>