<?xml version="1.0" encoding="UTF-8"?><svg id="_图层_1" xmlns="http://www.w3.org/2000/svg" viewBox="0 0 893.85 229.4"><path d="M32.85,86.88c-2.49,5.17-4.99,10.52-7.47,16.06l-3.2,7.2c-1.43,1.85-3.03,3.05-4.8,3.6-1.79.55-3.39.37-4.8-.55-1.43-.92-2.4-2.22-2.94-3.88s-.45-3.6.27-5.82c12.81-23.26,22.96-47.99,30.43-74.21l.53-1.66c1.07-3.69,3.2-5.17,6.41-4.43,2.14.37,3.55,1.2,4.27,2.49.71,1.3,1.07,2.86,1.07,4.71l-9.61,37.11c.71,1.85,1.24,3.88,1.6,6.09,1.78,12.93,4.98,32.5,9.61,58.71l6.41,39.88c-.36,3.32-2.32,5.36-5.87,6.09-1.07,0-2.32-.28-3.74-.83-1.43-.55-2.49-1.47-3.2-2.77-.72-1.29-1.25-3.23-1.6-5.82l-12.81-81.97h-.53ZM110.79,35.93c1.42-.74,3.38-1.29,5.87-1.66l53.38-9.42c2.49-.36,5.96-.18,10.41.55,4.45.74,7.65,2.86,9.61,6.37,1.95,3.51,2.75,7.48,2.4,11.91-1.07,11.08-4.27,20.31-9.61,27.69-2.85,4.07-6.5,7.2-10.94,9.42-4.45,2.22-7.74,1.85-9.88-1.11-1.43-1.47-1.79-3.23-1.07-5.26.71-2.02,1.95-3.78,3.74-5.26,8.89-6.65,13.7-15.51,14.41-26.58.71-2.58-.53-3.69-3.74-3.32-1.07-.74-2.67-.92-4.8-.55l-60.32,10.52c-1.79.37-2.94.83-3.47,1.38-.53.55-1.16,1.76-1.87,3.6-1.07,7.02-2.85,14.22-5.34,21.6-1.43,4.8-3.65,8.4-6.67,10.8-3.03,2.41-5.79,2.68-8.27.83-2.49-1.84-3.2-4.79-2.13-8.86,3.55-5.17,6.76-13.66,9.61-25.48l3.2-11.63c1.42-2.95,2.84-7.38,4.27-13.29l3.2-12.18c.35-2.95,1.6-4.98,3.74-6.09,2.14-1.11,3.91-.83,5.34.83,1.42,1.66,2.04,3.97,1.87,6.92-.18,2.96-.98,7.2-2.4,12.74l-.53,5.54ZM129.47,131.19c-2.14,16.25-6.94,31.57-14.41,45.97-2.85,2.59-5.79,3.05-8.81,1.38-3.03-1.66-3.83-4.71-2.4-9.14,6.41-12.18,10.68-25.29,12.81-39.32,1.42-4.79,3.74-7.01,6.94-6.65,3.2.37,5.15,2.96,5.87,7.75ZM175.92,175.5c0,1.11-.18,3.14-.53,6.09l.53,6.65c-.72,7.01-4.46,10.89-11.21,11.63-11.74,1.84-22.07-2.03-30.96-11.63-1.07-1.85-1.69-3.6-1.87-5.26-.18-1.66.27-3.23,1.33-4.71,2.49-2.95,5.69-2.95,9.61,0l3.2,1.66c1.42,1.84,2.84,3.13,4.27,3.88l7.47,2.21c2.14,0,3.47-.28,4-.83.53-.55.62-1.58.27-3.05-1.07-9.6-2.32-16.62-3.74-21.05l-14.95-60.37-7.47-23.26c-.72-4.43.53-7.01,3.74-7.75,1.42-1.11,2.84-1.29,4.27-.55,1.42.74,2.75,2.22,4,4.43,1.24,2.22,2.75,5.91,4.54,11.08v2.22c6.05,19.2,13.16,45.97,21.35,80.31.71.74,1.15,1.94,1.33,3.6.17,1.66.44,3.05.8,4.15v.55ZM214.35,132.85c.35,3.32-.45,5.73-2.4,7.2-1.96,1.48-4.45,1.57-7.47.28-3.03-1.29-5.43-2.49-7.21-3.6l-13.35-11.08c-1.07.37-1.79,0-2.13-1.11-3.2-3.32-3.47-6.46-.8-9.42,2.67-2.95,5.42-2.95,8.27,0l12.81,8.86,8.54,5.54,3.74,3.32Z"/><path d="M355.69,177.71c0,3.32-.8,8.77-2.4,16.34-1.6,7.56-3.47,15.23-5.61,22.98-2.13,2.95-4.9,3.78-8.27,2.49-3.39-1.3-4.72-4.15-4-8.58l2.14-5.54,5.34-33.23c-.36-1.47-1.07-2.77-2.13-3.88l-5.34-2.77c-10.68-6.27-16.01-15.51-16.01-27.69l.53-32.68-.53-2.77-12.81,1.66c-2.13.37-3.74.19-4.8-.55-3.2-.74-5.16-2.77-5.87-6.09,0-1.11.44-2.22,1.33-3.32.88-1.11,2.13-1.94,3.74-2.49s4.54-1.01,8.81-1.38c1.78,0,4-.18,6.67-.55,2.67-.36,3.82-1.29,3.47-2.77l-.53-38.77-.53-4.98c.71-3.32,2.31-5.17,4.8-5.54,1.78-.36,3.2-.18,4.27.55,1.07.74,1.78,1.76,2.14,3.05.35,1.3.71,3.05,1.07,5.26,1.07,15.51,1.6,27.33,1.6,35.45l.53,4.43c5.34-.74,9.08-1.47,11.21-2.22l7.47-1.11c3.2.37,5.34,1.85,6.41,4.43,1.07,2.59.35,4.8-2.13,6.65-.72,2.22-.89,3.88-.53,4.98,1.07,8.86,1.42,22.53,1.07,40.98v14.4c-1.43,4.43.53,7.94,5.87,10.52,2.49.74,3.91,2.13,4.27,4.15.35,2.03.17,3.79-.53,5.26-1.07,3.69-4.1,4.8-9.08,3.32h-1.6ZM343.41,152.79c.35-.36.53-.92.53-1.66l-.53-45.41c0-3.69-.36-5.72-1.07-6.09-.72-.36-2.14-.36-4.27,0l-2.67.55c-1.43.37-2.13,1.48-2.13,3.32l.53,38.22c.71,5.91,3.91,9.61,9.61,11.08ZM452.85,99.62c2.49-.36,4.98-.92,7.47-1.66,5.34-1.47,13.35-2.95,24.02-4.43,2.13-.36,3.91-.18,5.34.55,3.2.74,5.16,2.41,5.87,4.98.71,2.59-.36,5.18-3.2,7.75-2.85.37-4.8.93-5.87,1.66l-30.43,4.43c-2.13.37-3.39.74-3.74,1.11-.36.37,0,1.66,1.07,3.88l5.34,23.26c3.2,10.71,4.8,24.19,4.8,40.43.35,8.86-2.32,14.95-8.01,18.28-3.92,2.58-9.43,3.32-16.55,2.21-1.07,0-2.49-.37-4.27-1.11l-1.6-1.11c-2.49-.74-4.1-1.94-4.8-3.6-.72-1.66-.72-3.42,0-5.26.71-1.85,1.87-3.14,3.47-3.88,1.6-.75,3.47-.75,5.6,0l8.54,1.11c2.84-.37,4.09-1.85,3.74-4.43,0-6.65-.18-11.63-.53-14.95-1.07-16.61-4.27-32.86-9.61-48.74-.36-2.22-.89-3.5-1.6-3.88-.72-.36-2.14-.36-4.27,0l-34.7,2.77c-3.56-.74-5.52-3.13-5.87-7.2-.36-1.11-.09-2.22.8-3.32.88-1.11,2.4-1.84,4.54-2.22l36.83-3.88c2.13-.36,3.02-1.29,2.67-2.77,1.07-11.08,4.45-27.69,10.14-49.85l.53-2.77c.71-2.95.88-4.61.53-4.98-.36-.36-2.14-.92-5.34-1.66l-2.13-1.11c-11.39-2.95-21.71-4.24-30.96-3.88-2.14.37-3.83,0-5.07-1.11-1.25-1.11-2.05-2.58-2.4-4.43.71-3.69,2.84-6,6.41-6.92,3.55-.92,9.08-.83,16.55.28l9.08,1.66c8.54.74,14.95,2.22,19.22,4.43,6.05,2.59,8.89,7.02,8.54,13.29-.72,2.22-1.25,5.17-1.6,8.86l-9.08,43.2.53,4.98Z"/><path d="M584.04,103.5c-1.07-8.49-2.13-16.8-3.2-24.92-.36-1.84-.36-3.32,0-4.43,0-3.32.53-5.72,1.6-7.2,1.07-1.47,3.2-2.22,6.41-2.22,7.12-1.11,14.05-1.29,20.82-.55,3.2,0,5.51.74,6.94,2.22,1.42,1.48,2.67,3.88,3.74,7.2l5.87,40.43c1.07,6.28-.89,12.38-5.87,18.28-6.76,6.28-15.84,9.05-27.23,8.31-3.56-.74-5.52-3.32-5.87-7.75l-2.67-29.91-.53.55ZM593.65,76.36v2.77l6.41,45.41.53.55c.71.74,1.24,1.11,1.6,1.11,2.84.37,5.42-.92,7.74-3.88,2.31-2.95,3.29-5.72,2.94-8.31l-4.27-33.78c-.36-2.22-1.79-3.23-4.27-3.05-2.49.19-6.06-.09-10.68-.83ZM681.2,32.05c-.36-2.95-.72-5.54-1.07-7.75l-.53-2.22c-.72-1.84-.72-2.95,0-3.32-.72-2.95.62-4.89,4-5.81,3.38-.92,5.61.09,6.67,3.05l3.2,9.97c0,2.22.35,3.51,1.07,3.88.71.37,2.13.37,4.27,0h1.6c6.05-2.22,10.68-3.5,13.88-3.88h1.6c1.42-.74,2.49-.92,3.2-.55,3.2-.36,5.51.93,6.94,3.88.71,4.07-.36,6.84-3.2,8.31-1.07.74-2.67,1.11-4.8,1.11-8.19,2.59-14.6,4.25-19.22,4.98h-2.67l3.74,26.03c11.03-4.06,21.89-7.2,32.56-9.42,3.2.37,4.98,2.22,5.34,5.54,1.07.74,1.24,1.85.53,3.32-.72,1.48-1.6,2.59-2.67,3.32-1.07.74-2.32,1.11-3.74,1.11l-12.28,3.88c-12.46,3.7-21.89,6.09-28.29,7.2-4.63,1.48-12.28,2.96-22.96,4.43-3.56.74-6.67.83-9.34.28-2.67-.55-4.19-2.49-4.54-5.82-.36-3.32,1.07-5.35,4.27-6.09l24.56-3.88c2.14-.36,3.02-1.66,2.67-3.88-1.07-9.6-1.79-16.98-2.13-22.15-.36-1.47-1.6-2.22-3.74-2.22-7.83-.74-14.77-1.11-20.82-1.11-1.07,0-2.32-.36-3.74-1.11-2.49-.74-3.83-2.58-4-5.54-.18-2.95,1.33-4.61,4.54-4.98,1.42-1.47,2.84-1.84,4.27-1.11h16.02c1.07.74,2.67.93,4.8.55ZM692.41,125.1c0-1.47-.18-3.88-.53-7.2l-1.6-6.65-2.13-6.09c-.36-2.58,1.07-4.61,4.27-6.09,1.07-.74,2.31-.74,3.74,0,1.42.74,2.49,1.48,3.2,2.22l3.74,8.31,2.14,12.74,7.47-1.11,16.01-4.98c3.55-1.47,6.41-.74,8.54,2.22,1.07,1.48,1.42,3.42,1.07,5.81-.36,2.41-1.6,3.97-3.74,4.71l-10.14,2.77c-2.49,1.11-6.94,2.22-13.35,3.32-1.79.37-2.49,1.3-2.14,2.77.71,5.91,2.49,14.95,5.34,27.14l11.74-3.32,28.29-7.75,3.2-.55c3.55.74,5.51,2.41,5.87,4.98.71.74.8,1.94.27,3.6s-1.33,2.68-2.4,3.05c-22.42,5.54-44.67,12.56-66.73,21.05-4.63,1.84-12.1,3.5-22.42,4.98-4.27.74-6.76-.93-7.47-4.98-.72-1.48-.62-3.05.27-4.71.88-1.66,2.22-2.67,4-3.05,1.78-.36,3.82-.74,6.14-1.11,2.31-.36,4-.55,5.07-.55l18.15-5.54c2.14-.36,3.02-1.84,2.67-4.43l-4.27-24.37c-.36-2.22-1.6-3.13-3.74-2.77l-16.55.55c-2.14.37-3.56.19-4.27-.55-2.85-1.84-4.27-3.88-4.27-6.09,0-1.11.44-2.3,1.33-3.6.88-1.29,1.87-1.94,2.94-1.94l20.29-2.77Z"/><path d="M850.3,75.81c.71,4.07,1.6,9.97,2.67,17.72l3.74,17.72c.35,2.22.18,3.88-.53,4.98-.72,4.07-2.59,6.28-5.61,6.65-3.03.37-5.43-1.47-7.21-5.54-.36-1.11-.72-2.95-1.07-5.54l-2.14-14.95c-1.43-14.03-2.85-24.37-4.27-31.01l-5.34-33.23c.35-5.17,2.13-7.66,5.34-7.48,3.2.19,5.34,2.13,6.41,5.82l1.6,7.2c1.07,7.75,3.2,19.58,6.41,35.45l.53,2.22h-.53ZM861.51,166.08c.35,4.43-1.07,6.84-4.27,7.2-1.07.37-2.4.37-4,0-1.6-.36-2.85-1.66-3.74-3.88-.89-2.21-1.52-5.54-1.87-9.97-.36-2.95,1.24-5.17,4.8-6.65,1.42-.36,2.75-.18,4,.55,1.24.74,2.22,1.85,2.94,3.32.35,2.96.88,4.99,1.6,6.09l.53,3.32Z"/></svg>