<?xml version="1.0" encoding="UTF-8"?>
<svg id="_图层_1" data-name="图层 1" xmlns="http://www.w3.org/2000/svg" viewBox="0 0 585.29 430.08">
  <defs>
    <style>
      .cls-1 {
        fill: #ff679b;
      }
    </style>
  </defs>
  <polygon class="cls-1" points="202.34 181.39 187.78 181.39 151.51 139.87 151.51 181.39 133.86 181.39 133.86 109.7 148.52 109.7 184.79 152.5 184.79 109.7 202.34 109.7 202.34 181.39"/>
  <path class="cls-1" d="M249.2,111.84c0,5.46-4.17,9.52-9.95,9.52s-9.84-4.07-9.84-9.52,4.07-9.74,9.84-9.74,9.95,4.49,9.95,9.74Z"/>
  <rect class="cls-1" x="230.69" y="127.67" width="17.12" height="53.71"/>
  <path class="cls-1" d="M313.51,158.6l15.73,3.42c-2.67,12.73-14.02,20.97-27.39,20.97-16.05,0-29.32-11.45-29.32-28.46s13.27-28.46,29.32-28.46c13.05,0,24.39,8.02,27.39,20.65l-16.05,3.85c-1.5-6.53-5.88-9.52-11.34-9.52-7.7,0-12.84,5.67-12.84,13.48s5.14,13.48,12.84,13.48c5.46,0,9.84-2.89,11.66-9.42Z"/>
  <path class="cls-1" d="M405.74,154.53c-.32-17.55-12.52-28.46-27.71-28.46s-28.46,11.56-28.46,28.46,12.84,28.46,28.35,28.46c12.3,0,22.04-5.46,26.64-16.8l-15.19-3.1c-2.89,5.24-7.49,6.21-11.45,6.21-5.78,0-10.17-3.96-11.56-10.38h39.37v-4.39ZM366.69,148.43c1.6-5.46,6.53-8.45,11.34-8.45s9.2,2.68,10.81,8.45h-22.15Z"/>
  <path class="cls-1" d="M509.21,179.03c-4.17,2.25-8.56,3.96-14.66,3.96-13.38,0-21.4-7.28-21.4-21.4v-20.33h-9.74v-13.59h9.74v-15.83h17.12v15.83h15.83v13.59h-15.83v18.62c0,5.56,2.67,7.81,7.17,7.81,2.35,0,5.56-.86,7.81-2.14l3.96,13.48Z"/>
  <path class="cls-1" d="M555.86,126.28c-16.26,0-29.75,11.34-29.75,28.25s13.48,28.35,29.75,28.35,29.42-11.34,29.42-28.35-13.48-28.25-29.42-28.25ZM555.86,168.44c-6.96,0-13.27-5.46-13.27-13.91s6.31-13.91,13.27-13.91,12.95,5.56,12.95,13.91-6.31,13.91-12.95,13.91Z"/>
  <path class="cls-1" d="M90.09,276.19v33.6h-17.01v-29.96c0-6.1-3.96-9.95-8.99-9.95-6.31,0-10.49,4.6-10.49,13.59v26.32h-17.12v-29.96c0-6.1-3.96-9.95-9.09-9.95-6.21,0-10.27,4.6-10.27,13.59v26.32H0v-53.71h17.12v4.92c3.64-4.07,8.88-6.53,15.83-6.53,7.49,0,13.91,3.21,17.55,9.1,4.28-5.56,10.7-9.1,19.04-9.1,11.45,0,20.54,8.67,20.54,21.72Z"/>
  <path class="cls-1" d="M169.38,282.93c-.32-17.55-12.52-28.46-27.71-28.46s-28.46,11.56-28.46,28.46,12.84,28.46,28.35,28.46c12.3,0,22.04-5.46,26.64-16.8l-15.19-3.1c-2.89,5.24-7.49,6.21-11.45,6.21-5.78,0-10.17-3.96-11.56-10.38h39.37v-4.39ZM130.32,276.83c1.61-5.46,6.53-8.45,11.34-8.45s9.2,2.67,10.81,8.45h-22.15Z"/>
  <path class="cls-1" d="M245.88,282.93c-.32-17.55-12.52-28.46-27.71-28.46s-28.46,11.56-28.46,28.46,12.84,28.46,28.35,28.46c12.3,0,22.04-5.46,26.64-16.8l-15.19-3.1c-2.89,5.24-7.49,6.21-11.45,6.21-5.78,0-10.16-3.96-11.55-10.38h39.37v-4.39ZM206.83,276.83c1.61-5.46,6.53-8.45,11.34-8.45s9.2,2.67,10.81,8.45h-22.15Z"/>
  <path class="cls-1" d="M309.55,307.43c-4.17,2.25-8.56,3.96-14.66,3.96-13.38,0-21.4-7.28-21.4-21.4v-20.33h-9.74v-13.59h9.74v-15.83h17.12v15.83h15.83v13.59h-15.83v18.62c0,5.56,2.67,7.81,7.17,7.81,2.35,0,5.56-.86,7.81-2.14l3.96,13.48Z"/>
  <polygon class="cls-1" points="397.5 327.97 378.99 327.97 387.66 307.97 365.4 255.97 383.81 255.97 396.54 287.32 410.13 255.97 428.53 255.97 397.5 327.97"/>
  <path class="cls-1" d="M474.76,254.68c-16.26,0-29.74,11.34-29.74,28.25s13.48,28.35,29.74,28.35,29.42-11.34,29.42-28.35-13.48-28.25-29.42-28.25ZM474.76,296.84c-6.95,0-13.27-5.46-13.27-13.91s6.31-13.91,13.27-13.91,12.95,5.56,12.95,13.91-6.31,13.91-12.95,13.91Z"/>
  <path class="cls-1" d="M581.75,309.79h-17.12v-5.13c-4.07,4.28-9.74,6.74-16.48,6.74-12.52,0-20.86-8.88-20.86-22.36v-32.96h17.01v29.32c0,6.31,3.74,10.59,9.2,10.59,6.74,0,11.13-4.6,11.13-14.98v-24.93h17.12v53.71Z"/>
</svg>