<?xml version="1.0" encoding="UTF-8"?>
<svg id="_图层_1" data-name="图层 1" xmlns="http://www.w3.org/2000/svg" viewBox="0 0 585.29 430.08">
  <defs>
    <style>
      .cls-1 {
        fill: #ff679b;
      }
    </style>
  </defs>
  <path class="cls-1" d="M61.63,52.6c0,1.42-.29,2.98-.85,4.68l-14.47,25.11c-1.42,1.14-2.77,1.64-4.04,1.49-1.28-.14-2.34-.49-3.19-1.06-2.27-1.7-2.7-3.83-1.28-6.38l13.62-23.83c.85-1.13,1.56-1.84,2.13-2.13,1.42-1.7,3.05-1.98,4.89-.85,1.84,1.14,2.91,2.13,3.19,2.98Z"/>
  <path class="cls-1" d="M82.06,98.14c-1.42,1.42-2.7,3.4-3.83,5.96l-2.55,5.11c-4.26,7.1-8.8,13.9-13.62,20.43-2.55,1.99-4.83,2.06-6.81.21-1.99-1.84-2.27-3.9-.85-6.17,14.47-21.56,25.11-45.25,31.92-71.06.56-1.98,1.34-3.4,2.34-4.25.99-.85,2.19-1.13,3.62-.85,1.42.29,2.48,1.14,3.19,2.55.71,1.42.78,2.98.21,4.68-.57,3.12-1.7,7.66-3.4,13.62l-3.83,12.34c-.57.85-.71,1.85-.43,2.98l5.11,19.15,9.79,50.21.85,6.38c0,1.7-.5,3.05-1.49,4.04-1,.99-2.13,1.63-3.4,1.92-1.28.28-2.49.07-3.62-.64-1.14-.71-2.13-1.92-2.98-3.62l-.85-5.96c-3.69-22.13-6.38-38.58-8.08-49.36l-1.28-7.66Z"/>
  <path class="cls-1" d="M207.59,138.99c-.29-2.83-2.13-4.53-5.53-5.11l-3.83.85-6.81-.43c-3.4,0-5.96.15-7.66.43l1.28-4.26c.57-1.7,1.28-4.54,2.13-8.51l.85-2.55c-.29-3.12-1.7-5.11-4.25-5.96-.85-.56-1.92-.35-3.19.64-1.28,1-1.92,2.06-1.92,3.19l-.85,2.13-3.4,12.34c-.85,1.14-1.42,1.85-1.7,2.13-.29.29-1.42.29-3.4,0-4.83-.28-10.5-2.41-17.02-6.38-.29,0-.43-.14-.43-.43l-1.28-1.28-1.7-12.34c.85-.28,1.98-.56,3.4-.85,2.83-.28,7.09-1.28,12.77-2.98,7.94-2.55,11.92-8.08,11.92-16.6-2.55-15.6-5.25-31.2-8.08-46.81-1.42-4.25-4.68-6.81-9.79-7.66-8.23-1.42-16.32-1.28-24.26.42-1.99.29-4.54,1.99-7.66,5.11-.85,0-1.14.85-.85,2.55-.57,1.14-.71,2.41-.43,3.83l5.53,25.11c1.42,6.81,3.12,17.02,5.11,30.64,2.83,20.43,6.24,38.87,10.21,55.32l1.28,3.83c1.98,5.39,3.97,9.22,5.96,11.49,4.82,5.39,9.64,5.67,14.47.85,2.55-2.84,5.25-7.66,8.09-14.47l2.13-3.83c1.13-2.55.43-4.68-2.13-6.38-.57-.85-1.49-1.13-2.77-.85-1.28.29-2.2.85-2.77,1.7-1.7,1.42-3.05,2.98-4.04,4.68-1,1.7-2.2,3.97-3.62,6.81-.29,1.13-1,2.13-2.13,2.98-2.55-6.24-5.11-15.75-7.66-28.51l4.68,1.7c3.12.57,5.25,1.14,6.38,1.7,13.04,1.99,25.96,2.27,38.72.85,1.42,0,2.55-.49,3.4-1.49.85-.99,1.13-2.19.85-3.62ZM136.1,48.35l4.68-.85,15.32,1.7c1.7-.28,2.69.43,2.98,2.13l3.4,16.17-1.7,1.7c-4.25,1.42-10.5,2.7-18.72,3.83-1.7-6.52-3.69-14.75-5.96-24.68ZM146.74,100.69l-2.98-16.17c-.29-.85.28-1.42,1.7-1.7l9.36-1.28c3.97-1.13,7.23-1.98,9.79-2.55l.85,15.32c.28,1.7-.71,3.26-2.98,4.68l-13.19,2.98c-1.7.29-2.55-.14-2.55-1.28Z"/>
  <path class="cls-1" d="M314.32,41.97c-8.23,1.7-20.71,4.25-37.45,7.66-1.7,0-2.7-.14-2.98-.43-2.55-.56-3.98-1.91-4.26-4.04-.29-2.13.43-3.76,2.13-4.89l40.85-8.08c16.74-3.4,29.36-5.67,37.87-6.81l4.25-.43c2.55,0,4.26,1.28,5.11,3.83.85,2.55-.15,4.4-2.98,5.53-1.42,1.14-2.84,1.85-4.26,2.13-7.95,1.14-20.15,3.26-36.6,6.38h-1.7v-.85Z"/>
  <path class="cls-1" d="M286.23,145.37c-.85-5.96-1.7-11.92-2.55-17.87-.29-.85-.85-1.98-1.7-3.4-1.42-4.26-.43-6.66,2.98-7.23l5.96-2.13c9.36-1.98,23.12-5.96,41.28-11.92,15.32-4.82,30.78-7.94,46.38-9.36,8.51-.28,14.04,3.55,16.6,11.49,4.25,10.5,6.24,20.15,5.96,28.94-.57,3.4-1.78,5.96-3.62,7.66-1.85,1.7-4.47,2.84-7.87,3.4-1.99.29-5.11.29-9.36,0h-2.13c-2.84-.57-4.19-2.27-4.04-5.11.14-2.83,1.63-4.47,4.47-4.89,2.83-.42,5.32-.64,7.45-.64s3.33-.21,3.62-.64c.28-.43.43-1.63.43-3.62-.29-7.66-1.85-14.89-4.68-21.7-1.14-2.83-2.98-4.11-5.53-3.83l-7.66,1.28c-6.81.29-11.92,1-15.32,2.13-7.09,1.14-17.73,3.83-31.92,8.08l-8.51,2.55c-2.84.85-7.23,1.99-13.19,3.4l-6.81,1.28c-1.7.85-2.77,1.35-3.19,1.49-.43.15-.5,1.35-.21,3.62l5.53,36.6c0,2.55-1.49,4.04-4.47,4.47s-4.62-.64-4.89-3.19c-.85-.57-1.28-1.56-1.28-2.98l-2.55-17.87h.85Z"/>
  <path class="cls-1" d="M315.59,16.86c.28,1.7-.15,3.12-1.28,4.26-1.14,1.14-2.55,1.7-4.26,1.7-2.55-1.42-4.4-2.69-5.53-3.83l-7.66-9.79c-1.99-2.27-1.78-4.32.64-6.17,2.41-1.84,4.89-1.77,7.45.21l8.08,10.64c1.13,1.7,1.98,2.7,2.55,2.98Z"/>
  <path class="cls-1" d="M341.55,71.33c-.29-2.27-1.14-4.96-2.55-8.09-2.84-7.66-8.37-10.78-16.6-9.36-4.26.57-10.07,1.85-17.45,3.83-2.55.85-4.19,1.78-4.89,2.77-.71,1-.92,2.49-.64,4.47.28,3.4.71,6.67,1.28,9.79l1.7,11.49c.57,3.98,3.12,6.1,7.66,6.38l6.81-2.55c8.22-2.55,14.47-4.68,18.72-6.38,5.67-2.27,7.66-6.38,5.96-12.34ZM330.91,73.03c-.29,1.14-2.41,2.27-6.38,3.4-2.27,1.14-5.96,2.41-11.06,3.83-.85.29-1.7.43-2.55.43-.85-5.67-1.14-9.93-.85-12.77,0-.85.43-1.28,1.28-1.28l13.62-3.4c1.7-.28,3.12.57,4.25,2.55,1.42,3.69,1.98,6.1,1.7,7.23Z"/>
  <path class="cls-1" d="M359.85,162.82c-.57-9.93-2.7-18.15-6.38-24.68-1.7-2.27-3.12-3.83-4.26-4.68-1.14-.85-2.55-1.13-4.25-.85-3.98,0-8.94.85-14.89,2.55-3.4.57-4.83,2.98-4.26,7.23.57,2.27.99,5.68,1.28,10.21.28,2.27.56,3.83.85,4.68h1.28l2.13,16.17c.57,3.68,2.55,5.53,5.96,5.53h2.98c5.67-.29,11.2-2.98,16.6-8.08,2.55-2.55,3.54-5.25,2.98-8.09ZM346.44,165.58c-2.13.99-4.04,1.77-5.74,2.34l-4.26-22.13c-.29-1.7.43-2.55,2.13-2.55,2.83-.56,4.68-.71,5.53-.43.85.29,1.56,1.99,2.13,5.11l2.98,12.77c.28,2.27-.64,3.9-2.77,4.89Z"/>
  <path class="cls-1" d="M516.35,93.46c-14.19,2.84-24.68,4.68-31.49,5.53-3.4,1.42-6.38,1.85-8.94,1.28-1.7.29-3.05-.07-4.04-1.06-1-.99-1.56-2.13-1.7-3.4-.15-1.28.28-2.41,1.28-3.4.99-.99,2.34-1.63,4.04-1.91l83.4-15.74c2.27-.28,3.9-.35,4.89-.21.99.15,1.98.57,2.98,1.28.99.71,1.7,1.7,2.13,2.98.42,1.28.28,2.49-.43,3.62-.71,1.14-1.78,1.99-3.19,2.55l-2.55.85-46.38,8.94v-1.28Z"/>
  <path class="cls-1" d="M475.5,46.22c2.55-.28,4.53.71,5.96,2.98l8.51,17.02c.28,1.7-.5,3.05-2.34,4.04-1.85,1-3.62,1.21-5.32.64-1.14-1.42-1.85-2.41-2.13-2.98-3.12-5.67-5.96-11.49-8.51-17.45-.29-2.55.99-3.97,3.83-4.26Z"/>
  <path class="cls-1" d="M515.5,126.22c-.57.57-.85,1-.85,1.28v2.13c-5.39,11.92-9.36,20.57-11.92,25.96,0,.29-.29.92-.85,1.92-.57.99-1.56,1.7-2.98,2.13-1.42.43-2.55.35-3.4-.21-2.27-.57-3.26-2.41-2.98-5.53l.85-3.4,13.62-27.66c1.7-1.42,3.47-1.7,5.32-.85,1.84.85,2.91,2.27,3.19,4.25Z"/>
  <path class="cls-1" d="M504.86,38.14c.28,0,.78.21,1.49.64.71.42,1.34.92,1.92,1.49,3.4,5.96,6.52,11.92,9.36,17.87.85,1.7,1.13,3.05.85,4.04-.29,1-1,1.85-2.13,2.55-1.14.71-2.34.92-3.62.64-1.28-.28-2.27-.92-2.98-1.92-.71-.99-1.49-2.48-2.34-4.47l-.43-1.7c-1.14-2.27-2.84-5.39-5.11-9.36l-1.28-2.13c-1.14-1.98-1.28-3.83-.43-5.53.85-1.7,2.41-2.41,4.68-2.13Z"/>
  <path class="cls-1" d="M555.08,33.03l-.85,1.28v1.28c-1.14,3.4-2.7,8.23-4.68,14.47l-2.55,8.51-.85,2.13c-1.99,2.84-4.33,3.83-7.02,2.98-2.7-.85-3.62-3.12-2.77-6.81l2.98-9.36c2.55-6.81,4.4-12.05,5.53-15.75,1.13-2.83,3.04-3.97,5.75-3.4,2.69.57,4.18,2.13,4.47,4.68Z"/>
  <path class="cls-1" d="M545.72,110.9c1.13.85,2.41,1.28,3.83,1.28l1.28.85c7.09,5.68,14.04,11.49,20.85,17.45,1.13,1.14,1.56,2.49,1.28,4.04-.29,1.56-.85,2.7-1.7,3.4-.85.71-2.13,1-3.83.85-1.7-.14-3.05-.85-4.04-2.13-1-1.28-3.05-3.33-6.17-6.17-2.84-1.42-4.89-2.62-6.17-3.62-1.28-.99-3.48-3.04-6.6-6.17l-1.28-1.28c-.29,0-.64-.56-1.06-1.7-.43-1.13-.5-2.13-.21-2.98.85-1.42,2.13-2.69,3.83-3.83Z"/>
  <path class="cls-1" d="M94.4,318.14c.57,2.84.99,7.52,1.28,14.04l1.7,13.62c.28,2.27.28,4.12,0,5.53-.29,1.42-1,2.49-2.13,3.19-1.14.71-2.13.92-2.98.64-3.4-.28-5.25-1.7-5.53-4.26l-2.13-14.89c-1.14-14.75-2.27-25.67-3.4-32.77-.29-2.83-1.28-7.23-2.98-13.19v-1.28c-.29-1.7-1-2.91-2.13-3.62-1.14-.71-2.55-.92-4.26-.64-4.26-.28-7.52-.28-9.79,0l-36.17,3.83c-1.7.29-2.7.5-2.98.64-.29.15-.15,1.35.43,3.62l2.55,33.19c.85,5.11,1.56,12.49,2.13,22.13l1.28,17.87c-.57,1.7-1.28,3.05-2.13,4.04-.85,1-1.99,1.64-3.4,1.92-3.4-.28-5.39-2.13-5.96-5.53l-.42-10.21c-.57-12.77-1.85-32.34-3.83-58.72l-.43-2.98c-.57-3.4-1.06-5.96-1.49-7.66-.43-1.7-.21-3.26.64-4.68.85-1.42,2.13-2.27,3.83-2.55,9.93-1.13,24.11-2.98,42.55-5.53,3.4-.28,8.08-.43,14.04-.43,8.22.29,13.62,4.26,16.17,11.92,1.42,5.39,2.83,13.19,4.25,23.4l1.28,9.36Z"/>
  <path class="cls-1" d="M57.38,324.52c-.57,3.12-1.14,8.66-1.7,16.6-3.69,28.94-10.07,57.02-19.15,84.25-.57,1.42-1.56,2.34-2.98,2.77-1.42.42-2.77.28-4.04-.43-1.28-.71-2.06-1.7-2.34-2.98-.29-1.28-.29-2.49,0-3.62,9.93-30.64,16.45-62.13,19.57-94.47l.85-3.83c.85-2.55,2.55-3.83,5.11-3.83s4.11,1.85,4.68,5.53Z"/>
  <path class="cls-1" d="M62.91,385.37c-.85-5.11-1.56-10.21-2.13-15.32l-.43-2.55c-.29-2.27.78-3.76,3.19-4.47,2.41-.71,4.18-.07,5.32,1.92.56.85.85,2.13.85,3.83,1.7,5.96,3.4,15.32,5.11,28.09.57,2.27,1.06,3.54,1.49,3.83.43.28,1.77.43,4.04.43,5.67.57,11.77-.43,18.3-2.98l16.17-8.51c3.4-1.42,5.11-4.54,5.11-9.36v-.42c0-6.24-.42-10.78-1.28-13.62-1.42-3.68-.71-6.1,2.13-7.23,1.13-.85,2.55-.99,4.25-.43,1.7.57,2.83,1.7,3.4,3.4l1.7,3.4c1.13,8.51,1.42,14.62.85,18.3-.57,5.96-3.26,10.5-8.08,13.62-12.49,8.22-23.55,12.91-33.19,14.04-4.25.57-8.8.71-13.62.43-5.68-.57-9.36-3.98-11.06-10.21l-2.13-16.17Z"/>
  <path class="cls-1" d="M244.95,386.22c.85-.85,2.13-1.56,3.83-2.13l4.68-1.7c0-.57.99-.99,2.98-1.28,1.98-.28,3.62.64,4.89,2.77,1.28,2.13,1.06,3.9-.64,5.32l-1.28,1.28c-1.14.85-2.13,1.42-2.98,1.7l-25.96,10.64c-1.42.57-3.4.85-5.96.85h-2.55c-2.84.28-4.25-1.06-4.25-4.04s1.28-4.75,3.83-5.32c4.82-1.42,8.15-2.41,10-2.98,1.84-.57,2.62-1.7,2.34-3.4l-1.7-11.92c-2.55.57-4.4,1-5.53,1.28-4.54.85-8.02.92-10.43.21-2.41-.71-3.9-2.05-4.47-4.04-.57-1.98-.15-3.54,1.28-4.68,1.42-1.13,3.19-1.42,5.32-.85,2.13.57,5.75,0,10.85-1.7,1.13,0,1.56-.71,1.28-2.13l-4.25-26.81-4.68.85c-4.25.57-7.66-.43-10.21-2.98-2.55-2.55-3.26-6.1-2.13-10.64l8.08-24.26c2.55-6.52,4.68-12.91,6.38-19.15l.85-2.55h-2.55l-22.55,2.98c-1.99.29-3.4.15-4.26-.43-2.55-.28-4.04-1.7-4.47-4.26-.43-2.55.64-3.97,3.19-4.25.28-.57,1.28-.85,2.98-.85l50.64-7.23c2.27,0,3.97,1.14,5.11,3.4.56,3.12-.21,5.11-2.34,5.96-2.13.85-4.75,1.56-7.87,2.13h-1.28c-3.12.29-5.11.92-5.96,1.92-.85,1-1.42,3.19-1.7,6.6-3.69,9.93-6.67,19.01-8.94,27.23l-4.68,14.89,3.83-.42,13.62-5.96c.85-.85,1.13-2.13.85-3.83-1.7-3.4-1.14-5.88,1.7-7.45,2.83-1.56,5.11-.49,6.81,3.19l10.21,19.57c1.42,3.98.85,6.24-1.7,6.81-.57.85-1.63,1.21-3.19,1.06-1.56-.14-2.77-.78-3.62-1.92-.85-1.13-1.85-2.98-2.98-5.53l-1.7-3.4-7.23,4.25c-.29,0-.43.15-.43.42l-.43,1.28,5.53,26.38.85.85,2.98-1.28c3.68-1.42,6.17-.57,7.45,2.55,1.28,3.12.35,5.53-2.77,7.23l-5.11,1.28c-1.14.57-1.56,1.56-1.28,2.98l1.7,11.49Z"/>
  <path class="cls-1" d="M296.87,314.73c.28,3.98.85,8.08,1.7,12.34v1.7c.57,3.98-.85,6.24-4.25,6.81-3.4.57-5.39-1.42-5.96-5.96l-3.83-27.23c-.57-3.68.57-5.81,3.4-6.38,1.42,0,2.69.36,3.83,1.06,1.13.71,1.84,1.92,2.13,3.62.85,3.12,1.84,7.81,2.98,14.04Z"/>
  <path class="cls-1" d="M326.23,364.95c-.29-.85-.29-2.27,0-4.26l-.43-3.83c-2.84-25.53-6.38-47.8-10.64-66.81l-2.13-7.66c-.29-.57-.43-1.28-.43-2.13-.57-3.4.43-5.46,2.98-6.17,2.55-.71,4.54.36,5.96,3.19l3.83,11.49c6.24,25.82,10.07,51.91,11.49,78.3,0,3.4-1.06,5.89-3.19,7.45-2.13,1.56-5.04,2.06-8.72,1.49-.85-.28-2.27-.78-4.25-1.49-1.99-.71-3.62-1.13-4.89-1.28-1.28-.14-3.48-.49-6.6-1.06l-4.26-.42-1.7-1.28c-3.69-.56-5.39-2.41-5.11-5.53.28-3.12,2.13-4.4,5.53-3.83,2.55-.28,5.96,0,10.21.85,2.55,0,5.53.71,8.94,2.13l3.4.85Z"/>
  <path class="cls-1" d="M429.12,325.8c-1.99,3.98-3.98,8.08-5.96,12.34l-2.55,5.53c-1.14,1.42-2.41,2.34-3.83,2.77-1.42.42-2.7.29-3.83-.43-1.14-.7-1.92-1.7-2.34-2.98-.43-1.28-.36-2.77.21-4.47,10.21-17.87,18.3-36.88,24.25-57.02l.43-1.28c.85-2.83,2.55-3.97,5.11-3.4,1.7.29,2.83.92,3.4,1.92.56,1,.85,2.2.85,3.62l-7.66,28.51c.56,1.42.99,2.98,1.28,4.68,1.42,9.93,3.97,24.97,7.66,45.11l5.11,30.64c-.29,2.55-1.85,4.12-4.68,4.68-.85,0-1.85-.21-2.98-.64-1.14-.42-1.99-1.13-2.55-2.13-.57-.99-1-2.48-1.28-4.47l-10.21-62.98h-.43Z"/>
  <path class="cls-1" d="M491.25,286.65c1.13-.56,2.69-.99,4.68-1.28l42.55-7.23c1.98-.28,4.75-.14,8.3.43,3.54.57,6.1,2.2,7.66,4.89,1.56,2.7,2.19,5.75,1.92,9.15-.85,8.51-3.4,15.6-7.66,21.28-2.27,3.12-5.18,5.53-8.72,7.23-3.55,1.7-6.17,1.42-7.87-.85-1.14-1.13-1.42-2.48-.85-4.04.57-1.56,1.56-2.91,2.98-4.04,7.09-5.11,10.92-11.92,11.49-20.43.57-1.98-.42-2.83-2.98-2.55-.85-.57-2.13-.7-3.83-.42l-48.08,8.08c-1.42.29-2.34.64-2.77,1.06s-.92,1.35-1.49,2.77c-.85,5.39-2.27,10.92-4.26,16.6-1.14,3.69-2.91,6.46-5.32,8.3-2.41,1.85-4.61,2.06-6.6.64-1.99-1.42-2.55-3.68-1.7-6.81,2.83-3.97,5.39-10.49,7.66-19.58l2.55-8.94c1.13-2.27,2.27-5.67,3.4-10.21l2.55-9.36c.28-2.27,1.28-3.83,2.98-4.68,1.7-.85,3.12-.64,4.26.64,1.13,1.28,1.63,3.05,1.49,5.32-.15,2.27-.79,5.53-1.92,9.79l-.43,4.25Z"/>
  <path class="cls-1" d="M506.14,359.84c-1.7,12.49-5.53,24.25-11.49,35.32-2.27,1.99-4.61,2.34-7.02,1.06-2.41-1.28-3.05-3.62-1.92-7.02,5.11-9.36,8.51-19.43,10.21-30.21,1.13-3.68,2.98-5.39,5.53-5.11,2.55.29,4.11,2.27,4.68,5.96Z"/>
  <path class="cls-1" d="M543.16,393.88c0,.85-.15,2.41-.43,4.68l.43,5.11c-.57,5.39-3.55,8.37-8.94,8.94-9.36,1.42-17.59-1.56-24.68-8.94-.85-1.42-1.35-2.77-1.49-4.04-.15-1.28.21-2.48,1.06-3.62,1.98-2.27,4.54-2.27,7.66,0l2.55,1.28c1.13,1.42,2.27,2.41,3.4,2.98l5.96,1.7c1.7,0,2.77-.21,3.19-.64.42-.43.49-1.21.21-2.34-.85-7.37-1.85-12.77-2.98-16.17l-11.91-46.38-5.96-17.87c-.57-3.4.43-5.39,2.98-5.96,1.13-.85,2.27-.99,3.4-.42,1.13.57,2.19,1.7,3.19,3.4.99,1.7,2.19,4.54,3.62,8.51v1.7c4.82,14.75,10.49,35.32,17.02,61.7.57.57.92,1.49,1.06,2.77.14,1.28.35,2.34.64,3.19v.42Z"/>
  <path class="cls-1" d="M573.8,361.12c.28,2.55-.36,4.4-1.92,5.53-1.56,1.14-3.55,1.21-5.96.21-2.41-.99-4.33-1.92-5.74-2.77l-10.64-8.51c-.85.29-1.42,0-1.7-.85-2.55-2.55-2.77-4.96-.64-7.23,2.13-2.27,4.32-2.27,6.6,0l10.21,6.81,6.81,4.25,2.98,2.55Z"/>
</svg>