<?xml version="1.0" encoding="UTF-8"?>
<svg id="_图层_1" data-name="图层 1" xmlns="http://www.w3.org/2000/svg" viewBox="0 0 751.68 416.11">
  <defs>
    <style>
      .cls-1 {
        fill: #ff679b;
      }
    </style>
  </defs>
  <path class="cls-1" d="M108.19,154.96c-.15-2.98-.64-7.59-1.49-13.83-1.42-10.78-2.84-19-4.26-24.68-1.7-11.63-4.68-22.41-8.94-32.34-2.55-6.81-5.25-11.49-8.09-14.04-3.98-3.68-8.37-5.25-13.19-4.68l-20.85,1.7-1.28-.43c.56-2.55,1.42-6.38,2.55-11.49l1.7-3.83c.57-1.42,1.06-2.34,1.49-2.77s1.2-.78,2.34-1.06l38.3-6.38c1.7,0,2.69-.28,2.98-.85,3.12-.85,4.39-2.69,3.83-5.53,0-1.42-.5-2.55-1.49-3.4-1-.85-2.06-1.34-3.19-1.49-1.14-.14-2.55-.07-4.25.21l-1.7.43c-14.75,2.84-25.96,4.83-33.62,5.96h-1.28l1.7-13.62-.85-5.96c-.29-.85-.92-1.63-1.91-2.34-1-.71-1.92-.92-2.77-.64-1.7,0-3.26,1-4.68,2.98l-.43,2.98c0,6.81-.57,12.34-1.7,16.6,0,1.42-1,2.41-2.98,2.98l-31.06,4.68c-2.84.29-4.83.85-5.96,1.7-2.55.57-3.62,2.13-3.19,4.68.43,2.55,1.92,4.12,4.47,4.68l34.47-5.11-.43,4.68c-7.38,22.98-17.31,47.23-29.79,72.77l-1.28,2.98c-.57,1.7-.57,3.12,0,4.25.57,1.14,1.28,2.13,2.13,2.98,3.12.57,5.38,0,6.81-1.7l19.15-42.13c1.42-2.55,2.41-4.82,2.98-6.81h.43l.85,5.53,8.08,80c1.42,3.12,3.62,4.47,6.6,4.04,2.98-.43,4.18-2.2,3.62-5.32.28-.29.28-1.28,0-2.98,0-5.11-.71-12.34-2.13-21.7l-.85-15.32,33.62-8.08c2.83,14.19,4.39,25.11,4.68,32.77l-5.53-1.7-6.38-3.4c-3.12-2.27-5.68-2.27-7.66,0-.85,1.14-1.21,2.48-1.06,4.04.14,1.56.78,2.77,1.91,3.62,4.82,5.11,11.63,8.09,20.43,8.94,2.83,0,5.11-1.35,6.81-4.04,1.7-2.7,2.48-5.53,2.34-8.51ZM52.65,77.3l1.28-.42c4.25-.57,10.64-.99,19.15-1.28l1.28.43c1.13.29,2.27.71,3.4,1.28,2.55,2.84,4.68,6.96,6.38,12.34l-28.94,6.38-2.55-18.72ZM58.19,121.13l-2.13-14.04c0-.57.28-.85.85-.85l1.28-.43,17.87-3.83c2.55-.56,6.24-1.56,11.06-2.98l4.26,13.62-33.19,8.51Z"/>
  <path class="cls-1" d="M207.89,118.15c.85-.56,1.98-1.13,3.4-1.7l2.55-1.28c.85,0,2.13-.56,3.83-1.7,2.83-1.13,4.96-.28,6.38,2.55,1.42,2.84.99,5.25-1.28,7.23l-4.68,1.7c-3.4,1.99-6.24,3.27-8.51,3.83-4.25,1.14-7.66.5-10.21-1.91-2.55-2.41-3.4-5.6-2.55-9.58.85-3.97,2.27-9.64,4.26-17.02l4.68-14.89-6.38,2.55c-3.12.29-5.25.42-6.38.42-3.12-.28-5.32-1.42-6.6-3.4-1.28-1.98-1.7-4.25-1.28-6.81.43-2.55,1.63-6.24,3.62-11.06l2.13-7.66,8.51-22.55.43-3.4c1.13-2.55,2.98-3.83,5.53-3.83s4.11,1.56,4.68,4.68l-.43,5.11-12.77,35.32-.43,1.7c5.96-.85,10.49-3.26,13.62-7.23.85-1.13,1.13-2.13.85-2.98l2.55-8.09c.57-3.12,2.55-4.53,5.96-4.25,1.13.57,2.13,1.28,2.98,2.13.85.85.99,1.99.42,3.4l-2.13,11.06-11.49,41.28-1.28,6.38Z"/>
  <path class="cls-1" d="M210.02,163.26c-2.55.28-4.89.21-7.02-.21-2.13-.43-3.4-1.92-3.83-4.47-.43-2.55.64-3.98,3.19-4.25,1.7-.57,3.83-1,6.38-1.28l17.02-5.96c4.53-1.42,7.23-.57,8.08,2.55,1.13.85,1.2,1.99.21,3.4-1,1.42-2.34,2.55-4.04,3.4-2.55,1.13-7.09,2.69-13.62,4.68l-6.38,2.13Z"/>
  <path class="cls-1" d="M361.93,130.49c-.29-1.13-.92-2.2-1.92-3.19-1-.99-2.06-1.34-3.19-1.06h-3.4c-2.84.29-6.81.43-11.92.43-2.55-.57-5.11-1.13-7.66-1.7l1.28-2.55c1.13-3.68,1.98-9.36,2.55-17.02.28-2.27-.43-3.97-2.13-5.11-1.7-1.13-3.19-1.2-4.47-.21-1.28,1-2.2,2.49-2.77,4.47l-1.28,7.66c-1.14,4.54-2.13,7.81-2.98,9.79l-13.19-5.11c-1.7-.28-2.7-1.42-2.98-3.4-2.55-10.49-6.96-20.14-13.19-28.94l2.98-5.96c.56-.56,1.84-.99,3.83-1.28l36.17-6.38c2.27-1.13,3.26-3.05,2.98-5.75-.29-2.69-1.85-4.18-4.68-4.47h-3.83l-28.51,4.68c1.13-2.27,2.69-5.53,4.68-9.79l.43-.43c3.68-7.94,6.52-15.6,8.51-22.98.85-5.11-.07-9-2.77-11.7-2.7-2.69-6.6-3.76-11.7-3.19l-17.02,2.55-5.11-.43c1.98-4.54,3.26-7.8,3.83-9.79,1.13-1.7,1.7-3.19,1.7-4.47s-.29-2.34-.85-3.19c-.57-.85-1.35-1.42-2.34-1.7-1-.28-1.99-.35-2.98-.21-1,.15-1.78.64-2.34,1.49l-19.58,42.55-.85,4.25c0,5.11,2.41,7.38,7.23,6.81l31.91-4.68h2.13l-7.66,15.32c0,1.7-1.28,2.7-3.83,2.98l-28.51,6.81c-2.27.29-5.96,1.28-11.06,2.98-2.55.85-3.48,2.7-2.77,5.53.71,2.84,2.48,4.12,5.32,3.83l2.55-.43c7.66-1.98,13.33-3.26,17.02-3.83,1.98-.57,5.39-.99,10.21-1.28l5.11-.85c-7.38,12.49-15.6,23.69-24.68,33.62-2.84,2.84-3.4,5.39-1.7,7.66.85.85,1.98,1.35,3.4,1.49,1.42.15,2.91-.21,4.47-1.06,1.56-.85,2.77-1.98,3.62-3.4,2.83-3.4,6.66-8.51,11.49-15.32l5.96-7.66,2.13-1.7,3.83,8.94c.85,1.7.71,3.26-.43,4.68l-2.13,2.13c-7.38,9.36-13.48,15.47-18.3,18.3-1.42.85-2.55,1.85-3.4,2.98-1.7,1.7-1.85,3.83-.43,6.38.85.85,1.77,1.42,2.77,1.7.99.29,1.92.29,2.77,0,.85-.28,1.98-.85,3.4-1.7v-.43c4.82-2.83,10.92-8.65,18.3-17.45.85-1.13,1.56-1.7,2.13-1.7,2.55,4.54,1.84,8.51-2.13,11.92l-4.25,5.11c-6.53,7.95-12.2,13.05-17.02,15.32-.29.29-.71.57-1.28.85-2.27,1.98-2.7,4.11-1.28,6.38,1.42,2.27,3.4,3.26,5.96,2.98l3.4-2.13c5.11-3.12,10.49-7.94,16.17-14.47,1.13-1.13,2.69-2.83,4.68-5.11,0,.29.14.43.42.43l2.55,17.87-.43,9.79c-.57,1.13-1,1.98-1.28,2.55-.29.56-1.14.92-2.55,1.06-1.42.14-3.62,0-6.6-.42-2.98-.43-4.75.92-5.32,4.04-.57,3.12.57,5.11,3.4,5.96.28.28.85.7,1.7,1.28h1.28c5.96.85,10.7-.07,14.25-2.77,3.54-2.7,5.75-7.02,6.6-12.98,0-7.66-.57-14.47-1.7-20.43l-3.4-18.72,5.53,2.55c12.48,5.96,24.68,8.23,36.6,6.81l5.11-.43c2.55-1.42,3.68-3.4,3.4-5.96ZM297.25,40.28l-23.83,2.98c-1.14.29-2.13.15-2.98-.43l5.96-12.34c0-.28.57-.43,1.7-.43l25.53-2.55c1.42-.28,2.34-.21,2.77.21.43.42.49,1.21.21,2.34v.85h-.43v.43c-.85,3.69-1.63,5.96-2.34,6.81-.71.85-2.91,1.56-6.6,2.13Z"/>
  <path class="cls-1" d="M62.44,380.28c.28,2.55.71,5.39,1.28,8.51l2.55,19.15c.85,4.82-.57,7.51-4.26,8.08-3.69.56-5.82-1.56-6.38-6.38l-3.83-25.53-3.4,3.4c-8.23,8.79-14.75,14.89-19.57,18.3l-2.55,1.28c-2.27,1.13-4.12,1.7-5.53,1.7-2.84.85-4.97-.43-6.38-3.83-.29-3.4.7-5.39,2.98-5.96,4.53-1.14,9.57-4.33,15.11-9.57s10.71-10.57,15.53-15.96c1.42-1.98,1.84-4.26,1.28-6.81.57-1.13.28-3.4-.85-6.81l-.42-3.83-29.79,6.81c-2.84-.28-4.4-1.28-4.68-2.98-1.14-2.55-.43-4.4,2.13-5.53,9.36-3.12,18.86-5.81,28.51-8.08,1.42-.57,1.98-1.84,1.7-3.83l-5.96-49.36-2.55-11.49c0-1.7-.85-2.41-2.55-2.13l-19.57.43c-4.25-.28-7.38-.71-9.36-1.28-.85.29-1.85,0-2.98-.85-2.27-.85-3.19-2.48-2.77-4.89.42-2.41,1.77-3.76,4.04-4.04,1.13.29,2.27.43,3.4.43,4.82.85,12.05,1,21.7.43l4.68-.43,1.28-1.28-.43-2.98c-.57-.56-1.06-1.91-1.49-4.04-.43-2.13.49-3.76,2.77-4.89,2.27-1.13,4.11-.57,5.53,1.7,1.42,2.27,2.41,4.25,2.98,5.96.57,1.7,1.06,2.77,1.49,3.19.43.42,1.49.21,3.19-.64l12.77-1.7c1.7-.28,2.98-.28,3.83,0,2.55.57,3.97,1.99,4.26,4.25.28,2.27-.57,3.98-2.55,5.11-.85.57-2.27,1-4.25,1.28l-13.62,2.13c-1.7.29-2.41,1.28-2.13,2.98l9.79,60.85,9.36-3.83c2.55-.85,5.81-2.27,9.79-4.25l2.55-.43,1.28-.43c1.7-.85,3.19-.92,4.47-.21,1.28.71,2.27,1.7,2.98,2.98.7,1.28.78,2.55.21,3.83-.57,1.28-1.7,2.34-3.4,3.19l-23.4,8.94c-1.7.85-2.41,2.13-2.13,3.83,1.42,3.4,1.98,7.1,1.7,11.06,0,1.99.99,3.12,2.98,3.4,4.54,1.99,11.77,3.98,21.7,5.96l11.92,2.55c2.27.29,3.76,1.35,4.47,3.19.71,1.85.35,3.48-1.06,4.89s-3.55,1.99-6.38,1.7l-10.21-2.55c-9.08-1.7-15.75-3.4-20-5.11l-1.7.43Z"/>
  <path class="cls-1" d="M13.51,304.54c1.98,1.14,3.26,1.85,3.83,2.13,4.53,5.11,8.51,10.5,11.92,16.17.85.85,1.28,1.91,1.28,3.19s-.57,2.49-1.7,3.62c-2.27,1.7-4.68,1.42-7.23-.85l-7.66-9.79c-.85-1.13-1.85-2.83-2.98-5.11l-1.28-1.28c-1.14-1.7-1.28-3.4-.43-5.11s2.27-2.69,4.26-2.98Z"/>
  <path class="cls-1" d="M65.42,316.45c-1.7-1.42-2.7-2.13-2.98-2.13-1.7-1.42-2.27-3.12-1.7-5.11l1.28-1.28c.57-1.13,1.13-1.98,1.7-2.55,1.7-2.27,3.97-5.67,6.81-10.21l2.98-5.53,2.98-2.98c1.42-1.7,3.12-2.05,5.11-1.06,1.98,1,2.83,3.05,2.55,6.17,0,.29-.43.85-1.28,1.7l-10.64,17.87c-2.27,2.84-4.54,4.54-6.81,5.11Z"/>
  <path class="cls-1" d="M194.69,349.22c-1.14,1.99-2.41,4.26-3.83,6.81l-2.55,3.4c-2.55,3.98-4.54,6.67-5.96,8.08-.29,1.42-1.49,2.27-3.62,2.55-2.13.29-3.69-.35-4.68-1.92-1-1.55-1.21-3.33-.64-5.32l1.28-1.7c7.94-10.49,13.33-21.13,16.17-31.92.57-2.83.71-5.11.43-6.81-1.42-9.93-2.7-17.73-3.83-23.4-.29-1.7-.57-2.62-.85-2.77-.29-.14-1.28-.07-2.98.21l-10.21,1.7c-1.7.29-3.55,0-5.53-.85-3.12-.28-4.47-1.77-4.04-4.47.43-2.69,1.77-4.18,4.04-4.47l4.26-.42c2.27,0,5.67-.43,10.21-1.28,1.42,0,2.19-.07,2.34-.21.14-.14.07-1.06-.21-2.77l-2.13-5.96c-1.14-3.12-.15-5.39,2.98-6.81,2.27-.57,4.39.43,6.38,2.98l3.4,10.64,11.91-2.55c2.55.29,4.11,1.85,4.68,4.68,0,.85-.29,1.91-.85,3.19-.57,1.28-1.28,1.91-2.13,1.91l-7.66,2.55-3.4.42.43,2.55c0,1.7.14,2.98.43,3.83l2.98,21.7c.28,2.27,1.7,3.69,4.25,4.26l13.62,1.7h3.4c3.68.85,5.39,2.84,5.11,5.96-.29,1.42-1,2.49-2.13,3.19-1.14.71-2.7,1-4.68.85-1.99-.14-4.97-.49-8.94-1.06l-4.68-.85c-1.14.29-2.13.15-2.98-.43l3.4,35.32c.28,1.99.35,3.76.21,5.32-.15,1.56-.71,2.84-1.7,3.83-1,1-2.34,1.35-4.04,1.06-3.69-.28-5.25-2.27-4.68-5.96l-2.98-25.11c.28,0,.28-.14,0-.42v-1.28Z"/>
  <path class="cls-1" d="M310.86,359l-.43-1.7c0-6.52-.15-11.06-.42-13.62l-6.38-29.36c-.29-1.98-1.14-4.68-2.55-8.08-1.7-6.52-4.68-11.77-8.94-15.74-8.8-7.94-20.85-8.94-36.17-2.98-2.55.85-3.55,3.26-2.98,7.23,1.7,5.68,2.83,9.93,3.4,12.77,3.12,22.41,5.67,44.83,7.66,67.23.28,2.55,1.84,4.83,4.68,6.81,3.68,1.99,7.23,2.7,10.64,2.13l11.49-2.98c6.52-2.55,11.63-5.75,15.32-9.57,3.68-3.83,5.25-7.87,4.68-12.13ZM268.31,320.71c-1.42-10.78-2.7-18.58-3.83-23.4l.43-1.28c0-.28.28-.57.85-.85,3.12-1.13,6.88-1.28,11.28-.43,4.4.85,7.73,2.7,10,5.53,1.42,1.7,2.83,4.54,4.26,8.51.85,2.55,1.06,4.04.64,4.47-.43.43-1.64,1.21-3.62,2.34l-8.94,2.98c-4.83,1.42-8.08,2.55-9.79,3.4l-1.28-1.28ZM270.86,332.62l.43-.85c0-.56.28-.85.85-.85,1.7-.57,4.25-.99,7.66-1.28l14.89-4.68,2.13,8.94c0,.57-.29,1-.85,1.28l-.85,1.28c-3.98,4.25-10.07,6.53-18.3,6.81h-2.55c-.85,0-1.7.15-2.55.43-.85-4.82-1.14-8.51-.85-11.06ZM300.01,359.64c-.15,2.98-2.2,5.61-6.17,7.87-2.84,1.42-7.38,2.84-13.62,4.25l-3.4,1.28c-1.14,0-1.7-.85-1.7-2.55-1.14-7.09-1.85-12.62-2.13-16.6v-1.28c10.21.85,18.86-1.13,25.96-5.96.85,5.68,1.2,10,1.06,12.98Z"/>
  <path class="cls-1" d="M432.05,270.49c-1.99,4.54-3.26,7.8-3.83,9.79-11.35,20.42-23.98,39.86-37.87,58.3-.85.85-1.92,1.14-3.19.85-1.28-.28-2.34-1.13-3.19-2.55-1.42-1.7-1.42-3.83,0-6.38,4.26-4.26,9.5-11.77,15.75-22.55l2.55-4.68c4.25-6.81,10.21-16.74,17.87-29.79.28-.85.7-1.98,1.28-3.4l.43-1.7c1.13-1.98,1.34-3.83.64-5.53-.71-1.7-.5-3.4.64-5.11,1.13-1.7,2.69-2.27,4.68-1.7l4.26,2.13,7.23,5.53c5.67,4.83,10.35,8.23,14.04,10.21,11.63,9.65,23.97,17.87,37.02,24.68,1.13.57,1.7,1.56,1.7,2.98s-.15,2.7-.43,3.83c-.85,2.27-2.98,3.27-6.38,2.98l-2.98-1.7c-14.19-7.94-28.37-17.73-42.55-29.36l-7.66-6.81Z"/>
  <path class="cls-1" d="M470.35,395.6c-.85.28-2.13.99-3.83,2.13-4.25,3.12-7.66,5.25-10.21,6.38-3.4,2.27-6.96,4.11-10.64,5.53-1.14.56-3.34.99-6.6,1.28-3.27.28-5.89-.57-7.87-2.55-1.99-1.99-2.55-4.83-1.7-8.51,3.12-11.34,7.23-22.27,12.34-32.77-.29-.57-.29-1.42,0-2.55l.85-.85-4.68,1.28-16.6,4.26-2.55.43c-2.27,0-3.98-1.28-5.11-3.83-.29-1.42-.15-2.55.43-3.4.57-.85,1.42-1.56,2.55-2.13l7.23-2.13c15.88-4.53,31.34-9.79,46.38-15.74,3.68-.56,5.67.43,5.96,2.98,1.42,3.4.85,5.68-1.7,6.81-1.7,1.14-4.54,2.41-8.51,3.83l-9.79,2.98c-1.7.29-2.41.85-2.13,1.7l-12.34,34.89-1.7,4.26,4.68-1.7,17.02-10.64c1.13-1.13,1.28-2.41.43-3.83-.85-1.42-1.42-2.77-1.7-4.04-.29-1.28-.15-2.55.43-3.83.57-1.28,1.34-2.19,2.34-2.77.99-.57,2.05-.57,3.19,0,1.13.57,1.98,1.28,2.55,2.13,2.27,3.98,6.1,9.51,11.49,16.6l7.23,10.64c1.13,1.42,1.7,2.55,1.7,3.4.85,2.27.28,4.04-1.7,5.32-1.99,1.28-3.98,1.49-5.96.64-1.99-2.27-3.26-4.12-3.83-5.53l-2.98-3.83c-2.27-3.12-3.83-5.39-4.68-6.81Z"/>
  <path class="cls-1" d="M429.5,333.05c-4.25.57-7.38.85-9.36.85l-4.68-1.28c-1.42-.85-1.92-2.19-1.49-4.04.43-1.84,1.34-3.19,2.77-4.04.57-.28,1.42-.43,2.55-.43,8.23-.28,18.15-2.83,29.79-7.66l7.23-2.98c2.55-.28,4.53-.21,5.96.21,1.42.42,2.27,1.49,2.55,3.19.28,1.7-.43,3.26-2.13,4.68l-3.83,2.55c-10.21,4.54-20,7.52-29.36,8.94Z"/>
</svg>