<?xml version="1.0" encoding="UTF-8"?>
<svg id="_图层_1" data-name="图层 1" xmlns="http://www.w3.org/2000/svg" viewBox="0 0 507.69 121.69">
  <defs>
    <style>
      .cls-1 {
        fill: #00a0e7;
      }
    </style>
  </defs>
  <path class="cls-1" d="M37.75,80.58c-2.43.38-4.76.07-6.99-.96-2.23-1.02-3.99-2.68-5.27-4.98-1.66-3.06-2.49-6.25-2.49-9.57.25-7.02,1.66-13.66,4.21-19.92,1.27-2.17,2.74-3.83,4.4-4.98,1.4-.89,2.81-1.27,4.21-1.15,1.02-.12,1.69.38,2.01,1.53.32,1.15-.16,1.92-1.44,2.3-1.28.38-2.33,1.02-3.16,1.91-.83.89-1.56,2.11-2.2,3.64-2.81,6.38-3.77,12.9-2.87,19.53.89,3.06,2.17,5.3,3.83,6.7,1.66,1.41,3.57,1.6,5.74.57l6.51-4.02c.64-.51,1.02-.77,1.15-.77,1.15-.64,2.11-.38,2.87.77.13.38.22.83.29,1.34.06.51.06.96,0,1.34-.07.38-.1.45-.1.19h-.38c-3.7,3.83-7.15,6-10.34,6.51Z"/>
  <path class="cls-1" d="M89.03,60.09c-.26-3.32-1.66-5.84-4.21-7.56-2.56-1.72-5.68-2.07-9.38-1.05-1.53.64-2.62,1.47-3.26,2.49l-.77,1.15c-1.02.64-1.92,1.66-2.68,3.06-1.53,3.58-2.17,7.66-1.91,12.26.51,3.32,1.79,5.74,3.83,7.28,2.04,1.53,4.47,1.88,7.28,1.05,2.81-.83,5.04-2.33,6.7-4.5,3.7-3.96,5.17-8.68,4.4-14.17ZM83.19,67.56c-1.09,2.68-2.71,4.6-4.88,5.75-.38,0-.7.13-.96.38-3.45,1.15-5.43-.13-5.94-3.83,0-3.57.45-6.7,1.34-9.38.51-1.4,1.59-2.55,3.26-3.45,1.66-.89,3.13-1.15,4.4-.77,2.04.38,3.29,1.69,3.73,3.93.45,2.23.13,4.69-.96,7.37Z"/>
  <path class="cls-1" d="M116.19,68.32c.38-.77.7-1.66.96-2.68l.77-2.68,1.15-1.91c1.02-1.53,2.23-2.36,3.64-2.49,1.4-.12,2.68.58,3.83,2.11.51.64,1.27,1.72,2.3,3.26l.96,1.34.57-.96c0-.64.19-1.21.57-1.72.89-1.91,2.11-3.83,3.64-5.74,1.4-1.53,2.9-2.2,4.5-2.01,1.59.19,3.03,1.09,4.31,2.68,1.27,1.6,2.62,4.18,4.02,7.76.64,1.66,1.21,3.06,1.72,4.21.25.77.32,1.53.19,2.3-.13.77-.57,1.34-1.34,1.72-.77.38-1.47.42-2.11.1-.64-.32-1.15-.86-1.53-1.63-1.15-2.42-1.98-4.72-2.49-6.89l-1.53-3.45-.19-.57c-.51-.51-1.02-1.02-1.53-1.53l-.77,1.15c-.64.89-1.02,1.41-1.15,1.53-.9,1.79-1.92,4.47-3.06,8.04l-1.53,3.45c-.64.89-1.56,1.31-2.78,1.24-1.21-.06-2.08-.6-2.58-1.63l-1.34-4.4c-.64-2.04-1.6-3.7-2.87-4.98-.89,3.32-1.6,6.06-2.11,8.23l-1.72,7.28c-.13.89-.38,1.66-.77,2.3s-.83,1.15-1.34,1.53c-.51.38-.96.51-1.34.38-1.15-.25-1.88-1.12-2.2-2.59-.32-1.46-.67-3.86-1.05-7.18l-2.49-9.96c-.13-1.02-.16-1.82-.1-2.39.06-.57.7-.86,1.92-.86s1.92.35,2.11,1.05c.19.7.48,1.69.86,2.97l.57,1.15c.13,1.28.32,2.17.57,2.68l.77-.19Z"/>
  <path class="cls-1" d="M187.57,67.27c-1.15-.83-2.36-.6-3.64.67,0,.51-.19,1.02-.57,1.53l-3.26,2.68c-1.66,1.15-3.32.83-4.98-.96-.77-1.4-1.6-3.83-2.49-7.28l1.72.38c2.94.13,5.33-.48,7.18-1.82,1.85-1.34,3.13-3.09,3.83-5.27.7-2.17.73-4.24.1-6.22-.64-1.98-1.91-3.32-3.83-4.02-1.92-.7-4.28-.54-7.08.48-3.96,1.41-6.32,4.53-7.09,9.38-.64,3.45-.38,6.58.77,9.38,1.02,3.96,2.11,6.7,3.26,8.23,2.42,3.06,5.42,4.05,9,2.97,3.57-1.08,6.19-3.29,7.85-6.61.64-1.53.38-2.71-.77-3.54ZM174.17,53.87c.89-1.21,2.23-1.94,4.02-2.2,1.02-.12,1.75.03,2.2.48.45.45.6,1.18.48,2.2-.26,2.04-.99,3.51-2.2,4.4-1.21.9-2.97,1.09-5.27.58l-.96-.77c.25-1.91.83-3.48,1.72-4.69Z"/>
  <path class="cls-1" d="M279.41,60.09c-.26-3.32-1.66-5.84-4.21-7.56-2.56-1.72-5.68-2.07-9.38-1.05-1.53.64-2.62,1.47-3.26,2.49l-.77,1.15c-1.02.64-1.92,1.66-2.68,3.06-1.53,3.58-2.17,7.66-1.91,12.26.51,3.32,1.79,5.74,3.83,7.28,2.04,1.53,4.47,1.88,7.28,1.05,2.81-.83,5.04-2.33,6.7-4.5,3.7-3.96,5.17-8.68,4.4-14.17ZM273.57,67.56c-1.09,2.68-2.71,4.6-4.88,5.75-.38,0-.7.13-.96.38-3.45,1.15-5.43-.13-5.94-3.83,0-3.57.45-6.7,1.34-9.38.51-1.4,1.59-2.55,3.26-3.45,1.66-.89,3.13-1.15,4.4-.77,2.04.38,3.29,1.69,3.73,3.93.45,2.23.13,4.69-.96,7.37Z"/>
  <path class="cls-1" d="M308.48,65.83c.13-.25.25-.57.38-.96l.19-.77c1.53-3.32,3.25-5.49,5.17-6.51,1.53-.89,3.03-1.24,4.5-1.05,1.47.19,2.71.93,3.73,2.2l2.68,5.55,1.92,8.43.19,1.34c-.13,1.28-.7,2.11-1.72,2.49-1.02.38-1.92,0-2.68-1.15-.26-.38-.45-.96-.57-1.72-.64-1.79-1.47-4.72-2.49-8.81,0-.38-.19-1.02-.57-1.92l-.38-.57c-1.02-1.15-1.91-1.21-2.68-.19-1.15,1.53-1.85,2.75-2.11,3.64-1.28,2.94-2.49,6.45-3.64,10.53l-.19.19c-.13.89-.38,1.47-.77,1.72-.64.89-1.41,1.24-2.3,1.05-.89-.19-1.53-.73-1.92-1.63-.26-.64-.45-1.66-.57-3.06l-3.45-16.47c.13-1.4.73-2.23,1.82-2.49,1.08-.25,1.94.32,2.58,1.72l1.92,7.28v.77c.13.51.38.7.77.57l.19-.19Z"/>
  <path class="cls-1" d="M395.91,35.96c.77-.12,1.34.13,1.72.77l2.49,3.25c.38.51.54,1.12.48,1.82-.07.7-.35,1.24-.86,1.63-.51.38-1.09.51-1.72.38-.64-.12-1.21-.51-1.72-1.15-.51-.64-1.34-1.98-2.49-4.02-.51-1.53.19-2.42,2.11-2.68Z"/>
  <path class="cls-1" d="M404.34,70.43c.64,4.85,1.21,8.62,1.72,11.3.25,1.53-.26,2.62-1.53,3.25-.51.26-1.02.22-1.53-.1-.51-.32-.93-.7-1.25-1.15-.32-.45-.48-.99-.48-1.63l-4.02-24.89c.13-1.02.77-1.59,1.92-1.72.38-.25.8-.29,1.24-.1.45.19.73.61.86,1.24l.57,1.15c.38,2.3,1.15,6.06,2.3,11.3l.19,1.34Z"/>
  <path class="cls-1" d="M433.02,65.83c.13-.25.25-.57.38-.96l.19-.77c1.53-3.32,3.25-5.49,5.17-6.51,1.53-.89,3.03-1.24,4.5-1.05,1.47.19,2.71.93,3.73,2.2l2.68,5.55,1.92,8.43.19,1.34c-.13,1.28-.7,2.11-1.72,2.49-1.02.38-1.92,0-2.68-1.15-.26-.38-.45-.96-.57-1.72-.64-1.79-1.47-4.72-2.49-8.81,0-.38-.19-1.02-.57-1.92l-.38-.57c-1.02-1.15-1.91-1.21-2.68-.19-1.15,1.53-1.85,2.75-2.11,3.64-1.28,2.94-2.49,6.45-3.64,10.53l-.19.19c-.13.89-.38,1.47-.77,1.72-.64.89-1.41,1.24-2.3,1.05-.89-.19-1.53-.73-1.92-1.63-.26-.64-.45-1.66-.57-3.06l-3.45-16.47c.13-1.4.73-2.23,1.82-2.49,1.08-.25,1.94.32,2.58,1.72l1.92,7.28v.77c.13.51.38.7.77.57l.19-.19Z"/>
  <path class="cls-1" d="M474.92,46.69c-.51-2.94-1.21-7.47-2.11-13.6-.38-.64-.42-1.21-.1-1.72.32-.51.8-.83,1.44-.96,1.15-.51,1.98-.19,2.49.96l5.17,29.3c.25,1.15-.29,1.91-1.63,2.3-1.34.38-2.27,0-2.78-1.15l-.57-1.91-1.92-13.21Z"/>
  <path class="cls-1" d="M484.68,87.66v1.15l-.19,1.15c-.26.89-.8,1.4-1.63,1.53-.83.12-1.5-.26-2.01-1.15-1.28-1.28-1.47-2.74-.57-4.4,0-.38.16-.77.48-1.15.32-.38.7-.54,1.15-.48.45.07.86.19,1.24.38.38.19.64.48.77.86l.77,2.11Z"/>
</svg>