<?xml version="1.0" encoding="UTF-8"?><svg id="_图层_1" xmlns="http://www.w3.org/2000/svg" viewBox="0 0 410.1 147.69"><defs><style>.cls-1{stroke:#000;stroke-miterlimit:10;stroke-width:.5px;}</style></defs><path class="cls-1" d="M67.69,56.66c.37,1.71.92,4.27,1.65,7.69,1.83,9.15,3.05,16.16,3.66,21.04l.92-.37c1.22-.37,2.2-.61,2.93-.73,1.95-.61,4.94-1.4,8.97-2.38.37,0,.85-.12,1.46-.37l.55-.55c1.34-.49,2.38-.06,3.11,1.28.37.61.43,1.19.18,1.74-.25.55-.73.95-1.46,1.19-7.81,2.2-15.62,4.33-23.42,6.4l-.73.18c-3.78.85-6.65,1.46-8.6,1.83-.73.25-1.37.21-1.92-.09-.55-.3-.89-.82-1.01-1.56-.12-1.22.55-2.07,2.01-2.56l5.86-1.28c1.1-.37,2.68-.67,4.76-.92.73-.37,1.16-.58,1.28-.64.12-.06.18-.46.18-1.19l-.37-3.29c-.25-2.93-.55-5.12-.92-6.59-.49-3.54-1.46-9.09-2.93-16.65-.25-.73-.43-1.16-.55-1.28-.12-.12-.55,0-1.28.37l-5.49.91c-.73.12-1.89.12-3.48,0-1.1-.37-1.55-1.13-1.37-2.29.18-1.16.7-1.8,1.56-1.92,5-.61,12.38-1.83,22.14-3.66h.55c1.58.12,2.44.76,2.56,1.92.12,1.16-.37,1.92-1.46,2.29-.37.25-1.04.43-2.01.55l-7.32.92Z"/><path class="cls-1" d="M127.84,68.19c-.73,1.34-1.83,3.6-3.29,6.77l-.73,2.2c-.98,1.22-2.01,1.59-3.11,1.1-.61-.24-1.04-.67-1.28-1.28-.25-.61-.25-1.22,0-1.83l.55-1.28c.49-.85.92-1.52,1.28-2.01,3.05-6.95,5.37-14.09,6.95-21.41.12-1.46.73-2.13,1.83-2.01.49,0,.94.15,1.37.46.43.31.7.7.82,1.19-.37,2.93-.79,5.74-1.28,8.42-.25.85-.25,2.01,0,3.48.61,2.08,1.34,4.88,2.2,8.42l3.66,21.23c.12,1.1.15,1.89.09,2.38-.06.49-.27.95-.64,1.37-.37.43-.85.64-1.46.64-1.22-.12-2.08-.67-2.56-1.65l-4.21-26.17h-.18ZM164.81,81.37c2.8-1.34,5.55-2.68,8.23-4.03.73-.37,1.49-.12,2.29.73.79.86.82,1.83.09,2.93l-1.65.92c-2.68,1.34-5.12,2.44-7.32,3.29-.61.37-.85.91-.73,1.65.61,5.74,1.1,11.34,1.46,16.83-.37,1.58-1.16,2.26-2.38,2.01-1.22-.25-1.89-.98-2.01-2.2l-.18-.73c-1.71-15.25-3.11-26.53-4.21-33.85-.25-3.17-.79-7.81-1.65-13.91-.12-.49-.27-.82-.46-1.01-.18-.18-.46-.39-.82-.64l-4.57.55-2.38,9.7c-.12.37-.46.91-1.01,1.65s-1.31.89-2.29.46c-.98-.43-1.46-1.19-1.46-2.29l.18-.73c1.22-3.78,2.26-8.35,3.11-13.72l.18-4.57c0-1.1.39-1.86,1.19-2.29.79-.43,1.43-.43,1.92,0,.49.43.79,1.01.92,1.74.24,1.46.37,2.56.37,3.29,0,.37-.12.61-.37.73,0,.73.03,1.16.09,1.28.06.12.46.18,1.19.18,2.56.12,5.92-.67,10.06-2.38l.55-.18c1.83-.97,3.84-1.65,6.04-2.01.37-.12.73-.03,1.1.27.37.31.61.64.73,1.01.49,1.1.37,1.95-.37,2.56l-1.46.73-7.87,2.75c-.49.37-.67.85-.55,1.46.49,2.93,1.16,7.32,2.01,13.17v.55l1.1-.18,5.31-1.83c1.34-.49,2.44-.43,3.29.18.37.61.52,1.22.46,1.83-.06.61-.37,1.04-.92,1.28-.55.25-1.13.55-1.74.92l-5.67,1.83-.55.37c-.37.25-.55.43-.55.55l1.28,9.15Z"/><path class="cls-1" d="M213.61,68.37c-.61.12-1.46.37-2.56.73l-4.94.73c-.85-.24-1.59-.7-2.2-1.37-.61-.67-.79-1.49-.55-2.47l.73-1.83,3.66-8.78,2.2-5.86c.49-1.22,1.28-1.71,2.38-1.46.49.12.85.4,1.1.82.24.43.37.95.37,1.56.12.85-.06,1.83-.55,2.93-.61,1.22-1.46,3.23-2.56,6.04l-.91,2.38-1.1,2.93,6.4-1.46c.12,0,.24-.24.37-.73l.18-.18,1.1-3.84c.24-.73.49-1.16.73-1.28.37-1.22,1.22-1.71,2.56-1.46,1.22.49,1.71,1.34,1.46,2.56l-7.32,21.59c0,.25-.12.85-.37,1.83l2.01-1.1,3.48-2.75c.85-.49,1.74-.49,2.65,0,.91.49,1.25,1.19,1.01,2.1-.25.91-.55,1.43-.91,1.55-2.56,2.32-5.37,4.15-8.42,5.49l-1.83.37c-1.1.12-1.98-.15-2.65-.82-.67-.67-1.01-1.49-1.01-2.47,1.71-5.12,3.54-10.37,5.49-15.74ZM213.07,94.91c2.93-1.83,5.92-3.66,8.97-5.49,1.1-.49,1.95-.37,2.56.37.61.73.67,1.59.18,2.56-2.93,2.32-5.98,4.39-9.15,6.22-.73.49-1.53.67-2.38.55-.86-.12-1.5-.4-1.92-.82-.43-.43-.58-.88-.46-1.37.24-1.22.97-1.89,2.2-2.01ZM248.02,56.85c-2.81.49-5.55.92-8.23,1.28-.73.12-2.01.12-3.84,0-.61-.12-1.34-.49-2.2-1.1-.85-.61-1.07-1.4-.64-2.38.43-.98,1.19-1.34,2.29-1.1,3.41.73,7.56.31,12.44-1.28,1.1-.37,2.01-.49,2.75-.37,1.22,0,2.13.4,2.75,1.19.61.79.7,1.71.27,2.74-.43,1.04-1.19,2.65-2.29,4.85l-.37.18c-.61,1.46-1.4,2.87-2.38,4.21,1.58,1.34,3.05,2.2,4.39,2.56.73.25,2.01.61,3.84,1.1l2.2.55c.97.61,1.49,1.34,1.56,2.2.06.85-.4,1.53-1.37,2.01-.98.12-1.71.06-2.2-.18-3.05-.37-6.22-1.58-9.51-3.66-.37-.24-.73-.43-1.1-.55l-2.75,4.39c-2.08,2.93-4.39,5.61-6.95,8.05-.49.49-1.07.67-1.74.55-.67-.12-1.16-.39-1.46-.82-.31-.43-.49-.94-.55-1.56-.06-.61.21-1.16.82-1.65l2.38-2.56c1.95-2.68,3.48-4.82,4.57-6.4l6.4-10.43.92-1.83ZM251.31,100.58c2.56-1.1,5.18-2.13,7.87-3.11.85-.12,1.62-.12,2.29,0,.67.12,1.1.67,1.28,1.65.18.97-.21,1.71-1.19,2.2-2.08,1.1-3.54,1.77-4.39,2.01l-12.99,4.39c-1.83.24-3.11.33-3.84.27-.73-.06-1.34-.43-1.83-1.1-.49-.67-.52-1.31-.09-1.92.43-.61,1.07-.98,1.92-1.1l5.31-1.1c.73-.25,1.04-.73.92-1.46l-.37-9.33c-.12-.73-.55-1.04-1.28-.91-2.08.25-4.09.3-6.04.18-1.1-.49-1.65-1.22-1.65-2.2s.61-1.52,1.83-1.65l3.66-.55c4.15-.24,7.56-1.28,10.25-3.11.37-.24,1.1-.49,2.2-.73.61,0,1.13.15,1.55.46.43.31.64.76.64,1.37.24,1.1-.12,1.95-1.1,2.56l-1.1.55c-1.71.73-3.05,1.28-4.03,1.65l-.18.18c-.61.37-.92.73-.92,1.1.61,3.91.98,6.83,1.1,8.78l.18.91Z"/><path class="cls-1" d="M301.58,54.1c-.25.25-.37.55-.37.92.97,3.66,1.4,9.39,1.28,17.2l-.18,2.56c-.61,7.93-2.14,15.8-4.57,23.6-.37,1.1-1.22,1.52-2.56,1.28-1.34-.25-1.95-1.04-1.83-2.38l.37-1.28c3.54-13.29,4.63-26.77,3.29-40.44-.12-.61-.4-1.19-.82-1.74-.43-.55-.64-1.16-.64-1.83s.33-1.19,1.01-1.56c.67-.37,1.37-.61,2.1-.73l2.93-.18,23.79-3.48,3.66-.91c.49,0,1.19.09,2.1.27.92.18,1.34.82,1.28,1.92-.06,1.1-.61,1.83-1.65,2.2-1.04.37-2.47.67-4.3.92l-24.89,3.66ZM318.78,74.59c-.25.12-.61.06-1.1-.18l-3.29-.18c-1.22-.61-1.68-1.46-1.37-2.56.3-1.1,1.01-1.62,2.1-1.55,1.1.06,1.98.09,2.65.09s1.04-.09,1.1-.27c.06-.18.09-.55.09-1.1s-.06-1.49-.18-2.84c.12-1.58.73-2.44,1.83-2.56.73-.12,1.31,0,1.74.37.43.37.7.91.82,1.65v3.84l.92-.18c.61.25,1.04.18,1.28-.18l7.32-1.83,1.65-.18c3.78-.49,6.28,1.04,7.5,4.58,1.71,4.15,2.32,8.36,1.83,12.63,0,2.56-1.16,4.15-3.48,4.76-3.05.85-6.77,1.28-11.16,1.28l-1.46-.37c-.98-.37-1.46-1.1-1.46-2.2s.55-1.71,1.65-1.83c.37-.12.92-.24,1.65-.37,1.71-.12,4.27-.43,7.69-.92.97-.12,1.56-.3,1.74-.55.18-.24.33-.79.46-1.65-.12-3.29-.61-6.16-1.46-8.6-.37-1.1-.73-1.77-1.1-2.01-.37-.24-1.1-.3-2.2-.18l-10.61,2.56c-.49,0-.67.25-.55.73-.25,5.86-1.28,12.44-3.11,19.76-.85,2.44-1.4,4.21-1.65,5.31l-.92,1.28c-.61,1.1-1.4,1.37-2.38.82-.98-.55-1.53-1.37-1.65-2.47,2.2-7.07,3.9-14.21,5.12-21.41v-3.48Z"/></svg>