<svg xmlns="http://www.w3.org/2000/svg" viewBox="0 0 105.69 24.92">
  <path d="M15.13,15.79c.14-.21.21-.57.21-1.06l1-3.3c.35-.85.89-1.29,1.6-1.33.71-.04,1.42.3,2.13,1.01l.96,1.38,1.81,2.98h.43l.32-.85c.21-.57.35-1.06.43-1.49l1.38-5.85c-.07-.5,0-.92.21-1.28.21-.35.44-.6.69-.75.25-.14.55-.18.9-.11.78.21,1.13.74,1.06,1.6l-.64,2.98c-.5,2.55-.96,4.45-1.38,5.69-.43,1.24-.99,2.07-1.7,2.5-.36.43-.8.67-1.33.74-.53.07-1.01-.12-1.44-.58-.43-.46-1.1-1.22-2.02-2.29-.21-.28-.67-.92-1.38-1.92-.14.64-.28,1.21-.43,1.7l-.85,2.55c-.07.36-.25.74-.53,1.17-.5.57-1.03.87-1.6.9-.57.04-1.03-.23-1.38-.8-.28-.5-.67-1.17-1.17-2.02l-.21-.64-.32-.64c-.28-1.35-.6-2.34-.96-2.98l-.32-.32c-.14-.71-.36-1.21-.64-1.49-.5-.71-.46-1.24.11-1.6.28-.28.62-.43,1.01-.43s.69.07.9.21l.21.53c.28.42.46.74.53.96.5.92,1.03,2.27,1.6,4.04l.32.64c0,.14.07.21.21.21l.11-.11Z"/>
  <path d="M46.56,11.54c-.14-1.84-.92-3.25-2.34-4.2-1.42-.96-3.16-1.15-5.21-.58-.85.36-1.45.82-1.81,1.38l-.43.64c-.57.36-1.06.92-1.49,1.7-.85,1.99-1.21,4.26-1.06,6.81.28,1.85.99,3.19,2.13,4.04,1.13.85,2.48,1.05,4.04.58,1.56-.46,2.8-1.29,3.72-2.5,2.06-2.2,2.87-4.82,2.45-7.87ZM43.31,15.69c-.6,1.49-1.51,2.55-2.71,3.19-.21,0-.39.07-.53.21-1.92.64-3.02-.07-3.3-2.13,0-1.98.25-3.72.74-5.21.28-.78.89-1.42,1.81-1.92.92-.5,1.74-.64,2.45-.43,1.13.21,1.83.94,2.07,2.18.25,1.24.07,2.61-.53,4.1Z"/>
  <path d="M57.14,11.01c1.13-2.2,2.62-4.08,4.47-5.64.64-.35,1.24-.32,1.81.11.43.71.46,1.31.11,1.81-.57.78-1.17,1.38-1.81,1.81-1.21,1.14-2.07,2.48-2.61,4.04-.53,1.56-.76,3.19-.69,4.89l.11.74c-.21.71-.64,1.1-1.28,1.17-.64.07-1.14-.28-1.49-1.06l-2.77-12.02c-.14-1.21.18-1.86.96-1.97.78-.11,1.24.41,1.38,1.54.35.92.81,2.45,1.38,4.57h.43Z"/>
  <path d="M74.31,9.41c.35-.64.6-1.06.74-1.28l2.13-3.19c.21-.21.43-.39.64-.53.5-.43.92-.43,1.28,0,.64.28.81.67.53,1.17l-.32.96-3.19,4.68c-.28.43-.21.82.21,1.17,1.06,1.14,2.62,2.13,4.68,2.98,1.21.36,1.7.92,1.49,1.7-.14.36-.41.62-.8.8-.39.18-.8.23-1.22.16-1.56-.43-2.94-1.1-4.15-2.02l-.64-.53h-.11c0,.07-.07.11-.21.11l.64,5.11c.07.64-.25,1.05-.96,1.22-.71.18-1.19-.04-1.44-.64-.25-.6-.41-1.19-.48-1.75l-1.81-13.19c-.21-1.56-.36-2.73-.43-3.51-.07-.43.02-.8.27-1.12.25-.32.58-.44,1.01-.37.71,0,1.1.43,1.17,1.28l.96,6.81Z"/>
  <path d="M94.25,23.03c-2.13.28-3.69-.28-4.68-1.7-.14-.14-.2-.51-.16-1.12.03-.6.25-.99.64-1.17.39-.18.76-.05,1.12.37h.43c.57.92,1.35,1.19,2.34.8.99-.39,1.72-.75,2.18-1.06.46-.32.69-.69.69-1.12s-.28-.85-.85-1.28l-3.94-2.87c-.78-.35-1.35-.67-1.7-.96-1.49-.85-2.09-2.09-1.81-3.72.28-1.21.9-2.18,1.86-2.93.96-.74,2.07-1.12,3.35-1.12.35.07.89.28,1.6.64.21.14.35.37.43.69.07.32,0,.6-.21.85-.21.25-.43.42-.64.53-.21.11-.43.12-.64.05-1.28-.43-2.22-.16-2.82.8-.6.96-.37,1.75.69,2.39l5,2.87.85.85c1.21.99,1.7,2.2,1.49,3.62-.21,1.42-.9,2.5-2.07,3.24-1.17.75-2.22,1.19-3.14,1.33Z"/>
</svg>