<?xml version="1.0" encoding="UTF-8"?><svg id="_图层_1" xmlns="http://www.w3.org/2000/svg" viewBox="0 0 410.1 147.69"><defs><style>.cls-1{stroke:#000;stroke-miterlimit:10;stroke-width:.75px;}</style></defs><path class="cls-1" d="M80.94,49.17c-4.43,10.21-9.76,19.86-16,28.94-.46.68-1,1-1.62.94-.62-.06-1.11-.2-1.45-.43-.91-.68-1.02-1.59-.34-2.72l2.38-3.92c4.77-7.49,8.4-13.79,10.89-18.89,1.47-2.72,2.61-5.67,3.4-8.85.11-1.02.57-1.59,1.36-1.7.79-.11,1.47.17,2.04.85l1.02,1.36c1.36,1.7,2.38,2.95,3.06,3.75,3.4,3.29,7.15,6.53,11.23,9.7,3.4,2.27,7.09,3.97,11.06,5.11,1.13.57,1.59,1.36,1.36,2.38-.57,1.14-1.33,1.65-2.3,1.53-.96-.11-1.85-.28-2.64-.51-5.33-1.59-10.38-4.6-15.15-9.02l-7.49-7.66c-.34-.34-.62-.62-.85-.85ZM89.11,93.59c.23,1.82.62,4.6,1.19,8.34l1.7,8.51c.11.91.06,1.59-.17,2.04.11,1.02-.34,1.7-1.36,2.04-1.02.34-1.76-.06-2.21-1.19-.34-.23-.57-.79-.68-1.7l-4.94-30.47c-.11-1.02-.4-2.5-.85-4.43-.46-1.93-.74-3.4-.85-4.43v-.17c-.68-1.59-.4-2.55.85-2.89,1.25-.34,2.15.34,2.72,2.04l2.04,8.34,2.55,13.96Z"/><path class="cls-1" d="M151.71,76.06c-.91,3.63-1.7,6.36-2.38,8.17-.68,3.18-1.93,8-3.74,14.47l-.68,1.53c-.23,1.13-1.02,1.47-2.38,1.02-.45,0-.85-.2-1.19-.6-.34-.4-.46-.88-.34-1.45,3.4-11,6.18-22.13,8.34-33.36,1.47-6.24,1.76-12.48.85-18.72.23-.79.77-1.25,1.62-1.36.85-.11,1.5.17,1.96.85l.34,1.87c1.02,7.49.57,14.92-1.36,22.3-.11.45.03.82.43,1.11.4.28.88.71,1.45,1.28l.51.34c5.67,3.86,11.92,6.64,18.72,8.34,1.02.23,1.47,1.02,1.36,2.38-.12.46-.31.85-.6,1.19-.29.34-.68.48-1.19.43-.51-.06-1.11-.2-1.79-.43-5.45-1.36-10.61-3.57-15.49-6.64-1.36-.91-2.84-1.81-4.43-2.72Z"/><path class="cls-1" d="M208.86,52.06c.68-.11,1.59-.28,2.72-.51l2.89-.85c.57-.11,1.42-.4,2.55-.85l1.36-.34.51-.17c1.25-.34,2.21.06,2.89,1.19.23.46.2.94-.08,1.45-.28.51-.71.82-1.28.94-1.25.8-3.18,1.42-5.79,1.87l-1.53.51-5.11.85c-.46-.23-.91,0-1.36.68-1.36,2.38-2.78,4.71-4.26,6.98-.57.57-1.42.62-2.55.17-.57-.91-.74-1.76-.51-2.55l.68-.85c2.38-3.63,4.31-7.55,5.79-11.75.57-.79,1.33-1.02,2.3-.68.96.34,1.39,1.08,1.28,2.21,0,.23-.17.79-.51,1.7ZM219.75,76.57c0,.79-.31,1.48-.94,2.04-.62.57-1.33.62-2.13.17-2.16-.91-3.97-2.21-5.45-3.92-.68-1.25-.68-2.27,0-3.06.34-.34.82-.48,1.45-.42.62.06,1.16.31,1.62.77.79,1.02,2.15,2.04,4.08,3.06l1.36,1.36ZM213.46,58.36c.11,0,.45.06,1.02.17,2.61.57,4.6,1.25,5.96,2.04.34.23.57.54.68.94.11.4.11.88,0,1.45-.11.57-.74.91-1.87,1.02l-6.98-2.21c-.91-.45-1.25-1.08-1.02-1.87.23-.79.96-1.3,2.21-1.53ZM219.92,96.31c.11,1.02.4,2.38.85,4.08l.85,4.26c.23,1.81-.17,2.95-1.19,3.4-1.59.23-2.55-.62-2.89-2.55-.57-3.18-1.31-8.11-2.21-14.81l-.17-.85c.23-1.25.88-1.84,1.96-1.79,1.08.06,1.67.6,1.79,1.62l1.02,6.64ZM247.33,98.53c.11.45.23,1.02.34,1.7.23,2.04-.57,3.69-2.38,4.94-1.59.79-4.03,1.59-7.32,2.38l-2.04.34c-1.02.11-1.82-.4-2.38-1.53l-3.06-16.17-.51-2.55c-.11-.91-.06-1.64.17-2.21.23-.57.57-1.08,1.02-1.53,2.61-.79,5.22-1.47,7.83-2.04,1.93-.34,3.4.4,4.43,2.21l1.36,3.57,2.72,10.89h-.17ZM237.79,47.29c1.25-.45,3.23-.85,5.96-1.19l.51-.17c1.7-.57,2.95-.91,3.74-1.02.79-.11,1.45-.11,1.96,0,.51.11.82.68.94,1.7.11,1.02-.06,1.65-.51,1.87-.45.23-.96.4-1.53.51l-11.06,2.04c-.45.11-.79.46-1.02,1.02-.57,2.5-1.19,4.99-1.87,7.49-.68.91-1.53,1.25-2.55,1.02-.34-.34-.65-.68-.94-1.02-.28-.34-.37-.68-.25-1.02l.17-1.02,2.89-12.77c.23-1.02.79-1.45,1.7-1.28.91.17,1.53.65,1.87,1.45v2.38ZM241.37,69.08c2.38-.34,4.71-.68,6.98-1.02,1.25-.11,2.27-.11,3.06,0,1.7.23,3.18,1.02,4.43,2.38,1.36,1.93,2.55,4.25,3.57,6.98,1.47,5.56,2.78,11.06,3.92,16.51,0,1.93-.68,3.23-2.04,3.92-2.84,1.25-5.68,1.47-8.51.68-.57-.34-.97-.74-1.19-1.19-.23-.45-.28-.85-.17-1.19.11-1.13.79-1.76,2.04-1.87l1.36.34.85-.17c1.02.11,1.79.06,2.3-.17.51-.23.85-.45,1.02-.68.17-.23.2-.68.09-1.36l-.17-.85c-.68-2.72-1.31-4.88-1.87-6.47-.79-2.61-1.93-5.84-3.4-9.7-.11-.11-.23-.45-.34-1.02l-.34-.17c-.34-1.25-1.36-1.93-3.06-2.04-3.97.57-6.87.96-8.68,1.19l-5.96.85-2.04-.17c-1.02-.23-1.59-.77-1.7-1.62-.12-.85.4-1.56,1.53-2.13l8.34-1.19v.17ZM234.9,92.57c.91,0,2.04-.45,3.4-1.36l.51-.17c1.25-.79,1.93-1.36,2.04-1.7.11-.34-.17-1.19-.85-2.55v-.17c-.34-.57-.74-.85-1.19-.85l-3.92,1.19c-.57.11-.79.51-.68,1.19l.68,4.43ZM235.75,96.65c.23.68.45,1.64.68,2.89l.68,3.06c.11.45.4.62.85.51l4.42-1.36c.79-.46,1.02-1.08.68-1.87-.23-1.82-.46-3.23-.68-4.26l-.34-1.53c-2.5.8-4.6,1.65-6.3,2.55ZM247.84,60.4c-2.16-.79-4.2-1.76-6.13-2.89-.45-.45-.62-.99-.51-1.62.11-.62.48-1.02,1.11-1.19.62-.17,1.11-.2,1.45-.08l5.28,2.38c.91.34,1.19.97.85,1.87-.34.91-1.02,1.42-2.04,1.53Z"/><path class="cls-1" d="M312.99,51.55c-1.36,2.61-2.5,4.6-3.4,5.96-5.11,8.4-10.44,15.43-16,21.11l-1.36,1.19c-.46.23-.94.34-1.45.34s-.97-.17-1.36-.51c-.4-.34-.62-.85-.68-1.53-.06-.68.08-1.19.42-1.53l.34-.51c.68-.45,1.19-.79,1.53-1.02,6.92-8.51,13.22-17.47,18.89-26.89.11-.91.57-1.5,1.36-1.79.79-.28,1.59-.14,2.38.43,1.25.91,3.01,2.21,5.28,3.91,3.74,2.84,8.51,4.88,14.3,6.13l7.83,2.04c.68,0,1.42.25,2.21.77.79.51,1.08,1.17.85,1.96-.23.45-.51.82-.85,1.11-.34.29-.68.48-1.02.6l-.85-.17-3.92-.68c-5.56-1.36-9.7-2.61-12.43-3.75-4.2-1.81-8.06-4.2-11.57-7.15h-.51ZM312.31,83.72c.11.8.23,2.04.34,3.75.23,3.4.4,5.96.51,7.66.34,3.4-.11,7.15-1.36,11.23-.34.79-.77,1.64-1.28,2.55-.51.91-1.05,1.53-1.62,1.87-1.02.45-1.85.31-2.47-.43-.62-.74-.71-1.62-.25-2.64,1.13-1.93,1.87-4.08,2.21-6.47.23-1.59.45-3.86.68-6.81-.23-3.4-.46-5.96-.68-7.66l-1.36-9.87c-.11-.57-.11-1.08,0-1.53.23-.91.74-1.42,1.53-1.53.79-.11,1.47.23,2.04,1.02l1.19,8.85h.51ZM330.86,97.85c.23,1.81.45,3.69.68,5.62l.17,1.53c-.11,1.02-.71,1.62-1.79,1.79-1.08.17-1.79-.2-2.13-1.11-.11-.11-.23-.51-.34-1.19l-5.96-31.66c.11-1.25.68-1.93,1.7-2.04,1.02-.11,1.64.28,1.87,1.19l.51,1.53,5.11,24.34h.17Z"/></svg>