<?xml version="1.0" encoding="UTF-8"?><svg id="_图层_1" xmlns="http://www.w3.org/2000/svg" viewBox="0 0 410.1 147.69"><defs><style>.cls-1{stroke:#000;stroke-miterlimit:10;stroke-width:.5px;}</style></defs><path class="cls-1" d="M141.51,93.42c.23-1.02.45-2.38.68-4.08l.68-4.25-6.64.85c-1.25,0-2.1-.68-2.55-2.04l-.68-4.43c-.45-5.22-.85-9.13-1.19-11.75.23-1.36-.06-2.44-.85-3.23-.46-.45-.6-1.05-.43-1.79.17-.74.6-1.16,1.28-1.28,3.75-1.25,7.55-2.32,11.4-3.23.45-.11.77-.23.94-.34.17-.11.31-.4.43-.85v-7.32c0-.68-.09-1.08-.26-1.19-.17-.11-.6-.11-1.28,0l-12.77.85c-1.02-.23-1.42-.85-1.19-1.87-.11-.34-.03-.71.26-1.11.28-.4.6-.6.94-.6l19.23-2.72,4.6-.85c.45-.23.79-.28,1.02-.17,1.02-.11,1.7.34,2.04,1.36.11.34.08.71-.09,1.11-.17.4-.48.79-.94,1.19-.46.4-1.02.65-1.7.77-.91.34-2.38.68-4.43,1.02l-1.36.17.17,9.7,1.7-.17c.57-.11,1.36-.17,2.38-.17l.51.34c2.15,0,3.69.97,4.6,2.89,1.02,2.38,1.7,4.43,2.04,6.13.68,2.95,1.05,5.7,1.11,8.25.06,2.55-1.22,4.57-3.83,6.04-1.7.91-4.37,1.76-8,2.55-.91.46-1.45.71-1.62.77-.17.06-.37.42-.6,1.11l-1.19,8.85c-.11.68-.14,1.14-.08,1.36.06.23.31.46.77.68,4.77,1.82,9.81,2.78,15.15,2.89.79-.11,2.1-.11,3.91,0,1.25.11,2.1.51,2.55,1.19.34.11.54.4.6.85.06.45-.03.88-.25,1.28-.23.4-.48.71-.77.94-.28.23-.65.28-1.11.17-4.43,0-7.94-.17-10.55-.51-3.86-.46-7.21-1.36-10.04-2.72l-1.19-.34h-.34l-.34.85c-1.02,3.52-2.5,6.98-4.43,10.38-.91,1.13-1.93,1.36-3.06.68-1.14-.68-1.36-1.68-.68-2.98.68-1.31,1.59-3.09,2.72-5.36l.34-1.7c.45-1.36.77-2.3.94-2.81.17-.51.2-.85.09-1.02-.12-.17-.34-.34-.68-.51-.34-.17-.85-.43-1.53-.77l-.51-.17c-1.25-.57-1.68-1.42-1.28-2.55.4-1.13,1.28-1.53,2.64-1.19l2.72.85ZM135.55,64.14c.23,1.7.45,3.46.68,5.28.11.46.34.68.68.68l5.96-.51c.57-.11.91-.34,1.02-.68l.17-4.94v-1.53l-8.51,1.7ZM136.91,74.19c.11,3.06.4,5.39.85,6.98l4.6-.68.51-.34c.23-.11.34-.23.34-.34l.34-6.13-6.64.51ZM156.49,71.97c-2.04.23-4.03.51-5.96.85-1.25.11-1.99.29-2.21.51-.23.23-.4,1.02-.51,2.38v3.57c.57-.34,1.42-.62,2.55-.85l5.28-1.87.85-1.19v-3.4ZM147.98,68.91c1.02-.23,2.38-.57,4.08-1.02l3.75-.51-.85-3.4c-.46-1.13-.91-1.84-1.36-2.13-.45-.28-1.36-.43-2.72-.43-.68.11-1.19.11-1.53,0-.68.11-.97.4-.85.85-.11,1.25-.23,3.01-.34,5.28l-.17,1.36Z"/><path class="cls-1" d="M203.59,65c-1.02-.57-2.33-1.42-3.91-2.55l-.68-.85c-.68-.57-.82-1.25-.42-2.04.4-.79.99-1.13,1.79-1.02.79.11,1.42.29,1.87.51l3.4,2.21.17-.17c.23-.11.28-.28.17-.51,2.72-3.86,5.28-7.94,7.66-12.26-.11-1.02-.57-1.53-1.36-1.53l-3.06-.51c-2.84-.34-4.94-.62-6.3-.85-.68.11-1.19.34-1.53.68l-8.34,10.55c-1.14.57-2.16.51-3.06-.17-.34-.23-.54-.65-.6-1.28-.06-.62.08-1.16.42-1.62l1.19-1.36c4.77-5.33,8.96-11.06,12.6-17.19.79-1.02,1.64-1.28,2.55-.77.91.51,1.19,1.33.85,2.47l-.51,1.19c-.8,1.14-1.34,1.96-1.62,2.47-.29.51-.43,1-.43,1.45l8,.68c2.04.11,3.57.85,4.6,2.21s1.19,3.01.51,4.94c-.34,1.14-1.02,2.61-2.04,4.42-.57,1.14-1.56,2.81-2.98,5.02-1.42,2.21-2.53,3.89-3.32,5.02-3.74,5.79-8,11.23-12.77,16.34-.57.45-1.28.74-2.13.85-.85.11-1.5-.25-1.96-1.11-.46-.85-.23-1.67.68-2.47,2.15-1.93,4.82-5.16,8-9.7l2.55-3.06ZM215.34,71.97c.34,0,.85.11,1.53.34l6.13,1.19c2.15.8,3.4,2.27,3.75,4.43-.91,9.19-3.52,17.93-7.83,26.21-.8,1.36-1.87,3.06-3.23,5.11l-2.21,3.4c-.23.45-.68,1.08-1.36,1.87l-.51.34c-.34.34-.82.57-1.45.68-.62.11-1.14.06-1.53-.17-.4-.23-.71-.54-.94-.94-.23-.4-.29-.85-.17-1.36.11-.51.34-.88.68-1.11,2.04-1.7,3.74-4.03,5.11-6.98.57-.91,1.3-2.27,2.21-4.08l1.53-2.72c-.11-.23,0-.57.34-1.02-2.27-1.02-3.86-1.81-4.77-2.38l-1.19-.51c-.79-.45-.96-1.3-.51-2.55.34-.34.68-.6,1.02-.77s.79-.14,1.36.08c.57.23,1.42.57,2.55,1.02l3.06,1.36c.57-1.47,1.02-2.95,1.36-4.43,1.25-3.29,2.04-6.35,2.38-9.19,0-.91-.14-1.5-.43-1.79-.28-.28-.88-.54-1.79-.77l-6.98-1.7c-1.14,1.93-1.99,3.46-2.55,4.6-2.5,3.75-5.11,7.55-7.83,11.4-.46.23-.97.34-1.53.34s-1.02-.17-1.36-.51-.57-.82-.68-1.45c-.12-.62.11-1.16.68-1.62,2.61-3.29,6.01-8.57,10.21-15.83l1.53-2.55,3.23-6.64c.68-1.02,1.53-1.28,2.55-.77,1.02.51,1.36,1.33,1.02,2.47l-3.4,6.98Z"/></svg>