<?xml version="1.0" encoding="UTF-8"?>
<svg id="_图层_1" data-name="图层 1" xmlns="http://www.w3.org/2000/svg" viewBox="0 0 177.23 321.82">
  <defs>
    <style>
      .cls-1 {
        fill: #b7e2f9;
      }
    </style>
  </defs>
  <rect class="cls-1" x="85.98" y="84.66" width="10" height="10" transform="translate(180.64 -1.31) rotate(90)"/>
  <rect class="cls-1" x="98.59" y="95.69" width="10" height="10" transform="translate(204.28 -2.9) rotate(90)"/>
  <rect class="cls-1" x="85.98" y="94.66" width="10" height="10" transform="translate(190.64 8.69) rotate(90)"/>
  <rect class="cls-1" x="105.81" y="25.05" width="10" height="10" transform="translate(140.86 -80.75) rotate(90)"/>
  <rect class="cls-1" x="85.98" y="74.66" width="10" height="10" transform="translate(170.63 -11.32) rotate(90)"/>
  <rect class="cls-1" x="85.98" y="54.66" width="10" height="10" transform="translate(150.63 -31.32) rotate(90)"/>
  <rect class="cls-1" x="85.98" y="64.66" width="10" height="10" transform="translate(160.63 -21.32) rotate(90)"/>
  <rect class="cls-1" x="85.98" y="44.65" width="10" height="10" transform="translate(140.63 -41.33) rotate(90)"/>
  <rect class="cls-1" x="78.59" y="84.26" width="10" height="10" transform="translate(172.85 5.67) rotate(90)"/>
  <rect class="cls-1" x="88.59" y="95.69" width="10" height="10" transform="translate(194.28 7.1) rotate(90)"/>
  <rect class="cls-1" x="78.59" y="94.26" width="10" height="10" transform="translate(182.85 15.67) rotate(90)"/>
  <rect class="cls-1" x="78.59" y="74.25" width="10" height="10" transform="translate(162.85 -4.34) rotate(90)"/>
  <rect class="cls-1" x="78.59" y="54.25" width="10" height="10" transform="translate(142.85 -24.34) rotate(90)"/>
  <rect class="cls-1" x="78.59" y="64.25" width="10" height="10" transform="translate(152.85 -14.34) rotate(90)"/>
  <rect class="cls-1" x="78.59" y="44.65" width="10" height="10" transform="translate(133.24 -33.94) rotate(90)"/>
  <rect class="cls-1" x="95.88" y="25.05" width="10" height="10" transform="translate(130.94 -70.83) rotate(90)"/>
  <rect class="cls-1" x="105.77" y="35.05" width="10" height="10" transform="translate(150.82 -70.72) rotate(90)"/>
  <rect class="cls-1" x="95.85" y="35.05" width="10" height="10" transform="translate(140.9 -60.79) rotate(90)"/>
  <rect class="cls-1" x="123.43" y="85.07" width="10" height="10" transform="translate(218.5 -38.36) rotate(90)"/>
  <rect class="cls-1" x="123.43" y="95.07" width="10" height="10" transform="translate(228.5 -28.36) rotate(90)"/>
  <rect class="cls-1" x="123.43" y="75.06" width="10" height="10" transform="translate(208.49 -48.37) rotate(90)"/>
  <rect class="cls-1" x="123.43" y="55.06" width="10" height="10" transform="translate(188.49 -68.37) rotate(90)"/>
  <rect class="cls-1" x="123.43" y="65.06" width="10" height="10" transform="translate(198.49 -58.37) rotate(90)"/>
  <rect class="cls-1" x="123.43" y="45.05" width="10" height="10" transform="translate(178.48 -78.38) rotate(90)"/>
  <rect class="cls-1" x="116.04" y="84.66" width="10" height="10" transform="translate(210.71 -31.38) rotate(90)"/>
  <rect class="cls-1" x="116.04" y="94.66" width="10" height="10" transform="translate(220.71 -21.38) rotate(90)"/>
  <rect class="cls-1" x="116.04" y="74.66" width="10" height="10" transform="translate(200.7 -41.39) rotate(90)"/>
  <rect class="cls-1" x="116.04" y="54.66" width="10" height="10" transform="translate(180.7 -61.39) rotate(90)"/>
  <rect class="cls-1" x="116.04" y="64.66" width="10" height="10" transform="translate(190.7 -51.39) rotate(90)"/>
  <rect class="cls-1" x="116.04" y="45.05" width="10" height="10" transform="translate(171.1 -70.99) rotate(90)"/>
  <rect class="cls-1" x="92.85" y="100.07" width="10" height="10" transform="translate(202.91 7.22) rotate(90)"/>
  <rect class="cls-1" x="82.85" y="100.2" width="10" height="10" transform="translate(193.05 17.36) rotate(90)"/>
  <rect class="cls-1" x="98.59" y="100.2" width="10" height="10" transform="translate(208.8 1.61) rotate(90)"/>
  <rect class="cls-1" x="88.59" y="100.2" width="10" height="10" transform="translate(198.8 11.61) rotate(90)"/>
  <rect class="cls-1" x="77.85" y="110.21" width="10" height="10" transform="translate(198.06 32.36) rotate(90)"/>
  <rect class="cls-1" x="67.85" y="110.21" width="10" height="10" transform="translate(188.06 42.36) rotate(90)"/>
  <rect class="cls-1" x="87.85" y="110.2" width="10" height="10" transform="translate(208.04 22.35) rotate(90)"/>
  <rect class="cls-1" x="77.85" y="120.22" width="10" height="10" transform="translate(208.07 42.38) rotate(90)"/>
  <rect class="cls-1" x="67.85" y="120.22" width="10" height="10" transform="translate(198.07 52.38) rotate(90)"/>
  <rect class="cls-1" x="87.85" y="120.21" width="10" height="10" transform="translate(218.06 32.36) rotate(90)"/>
  <rect class="cls-1" x="57.85" y="130.22" width="10" height="10" transform="translate(198.07 72.38) rotate(90)"/>
  <rect class="cls-1" x="47.85" y="130.22" width="10" height="10" transform="translate(188.07 82.38) rotate(90)"/>
  <rect class="cls-1" x="57.85" y="140.24" width="10" height="10" transform="translate(208.08 82.39) rotate(90)"/>
  <rect class="cls-1" x="47.85" y="140.24" width="10" height="10" transform="translate(198.08 92.39) rotate(90)"/>
  <rect class="cls-1" x="37.85" y="150.25" width="10" height="10" transform="translate(198.09 112.4) rotate(90)"/>
  <rect class="cls-1" x="27.85" y="150.25" width="10" height="10" transform="translate(188.09 122.4) rotate(90)"/>
  <rect class="cls-1" x="37.85" y="160.26" width="10" height="10" transform="translate(208.11 122.41) rotate(90)"/>
  <rect class="cls-1" x="27.85" y="160.26" width="10" height="10" transform="translate(198.11 132.41) rotate(90)"/>
  <rect class="cls-1" x="37.85" y="170.26" width="10" height="10" transform="translate(218.11 132.41) rotate(90)"/>
  <rect class="cls-1" x="27.85" y="170.26" width="10" height="10" transform="translate(208.11 142.41) rotate(90)"/>
  <rect class="cls-1" x="37.85" y="180.27" width="10" height="10" transform="translate(228.12 142.43) rotate(90)"/>
  <rect class="cls-1" x="27.85" y="180.27" width="10" height="10" transform="translate(218.12 152.43) rotate(90)"/>
  <rect class="cls-1" x="57.85" y="190.16" width="10" height="10" transform="translate(258.01 132.32) rotate(90)"/>
  <rect class="cls-1" x="47.85" y="190.16" width="10" height="10" transform="translate(248.01 142.32) rotate(90)"/>
  <rect class="cls-1" x="57.85" y="200.18" width="10" height="10" transform="translate(268.02 142.33) rotate(90)"/>
  <rect class="cls-1" x="47.85" y="200.18" width="10" height="10" transform="translate(258.02 152.33) rotate(90)"/>
  <rect class="cls-1" x="77.85" y="210.18" width="10" height="10" transform="translate(298.02 132.33) rotate(90)"/>
  <rect class="cls-1" x="67.85" y="210.18" width="10" height="10" transform="translate(288.02 142.33) rotate(90)"/>
  <rect class="cls-1" x="77.85" y="220.19" width="10" height="10" transform="translate(308.04 142.34) rotate(90)"/>
  <rect class="cls-1" x="67.85" y="220.19" width="10" height="10" transform="translate(298.04 152.34) rotate(90)"/>
  <rect class="cls-1" x="97.85" y="210.18" width="10" height="10" transform="translate(318.03 112.34) rotate(90)"/>
  <rect class="cls-1" x="87.85" y="210.18" width="10" height="10" transform="translate(308.03 122.34) rotate(90)"/>
  <rect class="cls-1" x="97.85" y="220.2" width="10" height="10" transform="translate(328.04 122.35) rotate(90)"/>
  <rect class="cls-1" x="87.85" y="220.2" width="10" height="10" transform="translate(318.04 132.35) rotate(90)"/>
  <rect class="cls-1" x="107.85" y="130.22" width="10" height="10" transform="translate(248.06 22.37) rotate(90)"/>
  <rect class="cls-1" x="97.85" y="130.22" width="10" height="10" transform="translate(238.06 32.37) rotate(90)"/>
  <rect class="cls-1" x="107.85" y="140.23" width="10" height="10" transform="translate(258.08 32.38) rotate(90)"/>
  <rect class="cls-1" x="97.85" y="140.23" width="10" height="10" transform="translate(248.08 42.38) rotate(90)"/>
  <rect class="cls-1" x="87.85" y="150.24" width="10" height="10" transform="translate(248.08 62.39) rotate(90)"/>
  <rect class="cls-1" x="77.85" y="150.24" width="10" height="10" transform="translate(238.08 72.39) rotate(90)"/>
  <rect class="cls-1" x="87.85" y="160.25" width="10" height="10" transform="translate(258.1 72.41) rotate(90)"/>
  <rect class="cls-1" x="77.85" y="160.25" width="10" height="10" transform="translate(248.1 82.41) rotate(90)"/>
  <rect class="cls-1" x="87.85" y="170.26" width="10" height="10" transform="translate(268.11 82.41) rotate(90)"/>
  <rect class="cls-1" x="77.85" y="170.26" width="10" height="10" transform="translate(258.11 92.41) rotate(90)"/>
  <rect class="cls-1" x="97.85" y="150.25" width="10" height="10" transform="translate(258.1 52.4) rotate(90)"/>
  <rect class="cls-1" x="97.85" y="160.26" width="10" height="10" transform="translate(268.11 62.42) rotate(90)"/>
  <rect class="cls-1" x="97.85" y="170.27" width="10" height="10" transform="translate(278.12 72.42) rotate(90)"/>
  <rect class="cls-1" x="137.85" y="150.24" width="10" height="10" transform="translate(298.08 12.39) rotate(90)"/>
  <rect class="cls-1" x="127.85" y="150.24" width="10" height="10" transform="translate(288.08 22.39) rotate(90)"/>
  <rect class="cls-1" x="137.85" y="160.25" width="10" height="10" transform="translate(308.1 22.41) rotate(90)"/>
  <rect class="cls-1" x="127.85" y="160.25" width="10" height="10" transform="translate(298.1 32.41) rotate(90)"/>
  <rect class="cls-1" x="137.85" y="170.25" width="10" height="10" transform="translate(318.1 32.41) rotate(90)"/>
  <rect class="cls-1" x="127.85" y="170.25" width="10" height="10" transform="translate(308.1 42.41) rotate(90)"/>
  <rect class="cls-1" x="137.85" y="180.27" width="10" height="10" transform="translate(328.11 42.42) rotate(90)"/>
  <rect class="cls-1" x="127.85" y="180.27" width="10" height="10" transform="translate(318.11 52.42) rotate(90)"/>
  <rect class="cls-1" x="117.85" y="130.23" width="10" height="10" transform="translate(258.08 12.39) rotate(90)"/>
  <rect class="cls-1" x="117.85" y="140.24" width="10" height="10" transform="translate(268.09 22.4) rotate(90)"/>
  <rect class="cls-1" x="117.85" y="190.27" width="10" height="10" transform="translate(318.12 72.43) rotate(90)"/>
  <rect class="cls-1" x="107.85" y="190.27" width="10" height="10" transform="translate(308.12 82.43) rotate(90)"/>
  <rect class="cls-1" x="117.85" y="200.29" width="10" height="10" transform="translate(328.13 82.44) rotate(90)"/>
  <rect class="cls-1" x="107.85" y="200.29" width="10" height="10" transform="translate(318.13 92.44) rotate(90)"/>
  <rect class="cls-1" x="118.59" y="230.19" width="10" height="10" transform="translate(358.78 111.6) rotate(90)"/>
  <rect class="cls-1" x="108.59" y="230.19" width="10" height="10" transform="translate(348.78 121.6) rotate(90)"/>
  <rect class="cls-1" x="118.59" y="240.2" width="10" height="10" transform="translate(368.8 121.61) rotate(90)"/>
  <rect class="cls-1" x="108.59" y="240.2" width="10" height="10" transform="translate(358.8 131.61) rotate(90)"/>
  <rect class="cls-1" x="118.59" y="250.2" width="10" height="10" transform="translate(378.8 131.61) rotate(90)"/>
  <rect class="cls-1" x="108.59" y="250.2" width="10" height="10" transform="translate(368.8 141.61) rotate(90)"/>
  <rect class="cls-1" x="118.59" y="260.22" width="10" height="10" transform="translate(388.81 141.63) rotate(90)"/>
  <rect class="cls-1" x="108.59" y="260.22" width="10" height="10" transform="translate(378.81 151.63) rotate(90)"/>
  <rect class="cls-1" x="118.59" y="270.22" width="10" height="10" transform="translate(398.81 151.63) rotate(90)"/>
  <rect class="cls-1" x="108.59" y="270.22" width="10" height="10" transform="translate(388.81 161.63) rotate(90)"/>
  <rect class="cls-1" x="78.71" y="280.22" width="10" height="10" transform="translate(368.93 201.5) rotate(90)"/>
  <rect class="cls-1" x="68.71" y="260.21" width="10" height="10" transform="translate(338.93 191.5) rotate(90)"/>
  <rect class="cls-1" x="78.71" y="290.23" width="10" height="10" transform="translate(378.95 211.52) rotate(90)"/>
  <rect class="cls-1" x="68.71" y="270.23" width="10" height="10" transform="translate(348.94 201.51) rotate(90)"/>
  <rect class="cls-1" x="98.71" y="280.23" width="10" height="10" transform="translate(388.94 181.51) rotate(90)"/>
  <rect class="cls-1" x="88.71" y="280.23" width="10" height="10" transform="translate(378.94 191.51) rotate(90)"/>
  <rect class="cls-1" x="98.71" y="290.24" width="10" height="10" transform="translate(398.96 191.53) rotate(90)"/>
  <rect class="cls-1" x="88.71" y="290.24" width="10" height="10" transform="translate(388.96 201.53) rotate(90)"/>
  <rect class="cls-1" x="58.71" y="260.22" width="10" height="10" transform="translate(328.93 201.5) rotate(90)"/>
  <rect class="cls-1" x="58.71" y="270.23" width="10" height="10" transform="translate(338.95 211.52) rotate(90)"/>
  <rect class="cls-1" x="76.18" y="240.19" width="10" height="10" transform="translate(326.37 164.02) rotate(90)"/>
  <rect class="cls-1" x="76.18" y="250.21" width="10" height="10" transform="translate(336.38 174.03) rotate(90)"/>
  <rect class="cls-1" x="66.18" y="240.2" width="10" height="10" transform="translate(316.38 174.03) rotate(90)"/>
  <rect class="cls-1" x="66.18" y="250.22" width="10" height="10" transform="translate(326.39 184.04) rotate(90)"/>
  <rect class="cls-1" x="86.18" y="240.21" width="10" height="10" transform="translate(336.38 154.03) rotate(90)"/>
  <rect class="cls-1" x="86.18" y="250.22" width="10" height="10" transform="translate(346.4 164.05) rotate(90)"/>
</svg>