<?xml version="1.0" encoding="UTF-8"?>
<svg id="_图层_1" data-name="图层 1" xmlns="http://www.w3.org/2000/svg" viewBox="0 0 247.23 239.6">
  <defs>
    <style>
      .cls-1 {
        fill: #b7e2f9;
      }
    </style>
  </defs>
  <rect class="cls-1" x="46.64" y="134.25" width="10" height="10" transform="translate(190.89 87.62) rotate(90)"/>
  <rect class="cls-1" x="91.06" y="71.17" width="10" height="10" transform="translate(172.23 -19.89) rotate(90)"/>
  <rect class="cls-1" x="91.06" y="111.17" width="10" height="10" transform="translate(212.23 20.11) rotate(90)"/>
  <rect class="cls-1" x="91.06" y="91.17" width="10" height="10" transform="translate(192.23 .11) rotate(90)"/>
  <rect class="cls-1" x="91.06" y="101.17" width="10" height="10" transform="translate(202.23 10.11) rotate(90)"/>
  <rect class="cls-1" x="91.06" y="81.17" width="10" height="10" transform="translate(182.23 -9.89) rotate(90)"/>
  <rect class="cls-1" x="111.06" y="31.15" width="10" height="10" transform="translate(152.21 -79.91) rotate(90)"/>
  <rect class="cls-1" x="131.06" y="31.15" width="10" height="10" transform="translate(172.21 -99.91) rotate(90)"/>
  <rect class="cls-1" x="91.06" y="150.76" width="10" height="10" transform="translate(251.82 59.7) rotate(90)"/>
  <rect class="cls-1" x="151.06" y="31.15" width="10" height="10" transform="translate(192.21 -119.91) rotate(90)"/>
  <rect class="cls-1" x="101.06" y="31.15" width="10" height="10" transform="translate(142.21 -69.91) rotate(90)"/>
  <rect class="cls-1" x="121.06" y="31.15" width="10" height="10" transform="translate(162.21 -89.91) rotate(90)"/>
  <rect class="cls-1" x="61.06" y="120.76" width="10" height="10" transform="translate(191.82 59.7) rotate(90)"/>
  <rect class="cls-1" x="50.41" y="170.21" width="10" height="10" transform="translate(230.61 119.8) rotate(90)"/>
  <rect class="cls-1" x="40.41" y="170.21" width="10" height="10" transform="translate(220.61 129.8) rotate(90)"/>
  <rect class="cls-1" x="80.12" y="142.91" width="20.79" height="14.91" transform="translate(240.88 59.85) rotate(90)"/>
  <rect class="cls-1" x="60.41" y="170.21" width="10" height="10" transform="translate(240.61 109.8) rotate(90)"/>
  <rect class="cls-1" x="141.06" y="31.15" width="10" height="10" transform="translate(182.21 -109.91) rotate(90)"/>
  <rect class="cls-1" x="50.41" y="160.76" width="10" height="10" transform="translate(221.17 110.36) rotate(90)"/>
  <rect class="cls-1" x="30.41" y="160.76" width="10" height="10" transform="translate(201.17 130.36) rotate(90)"/>
  <rect class="cls-1" x="40.41" y="160.76" width="10" height="10" transform="translate(211.17 120.36) rotate(90)"/>
  <rect class="cls-1" x="80.41" y="160.76" width="10" height="10" transform="translate(251.17 80.36) rotate(90)"/>
  <rect class="cls-1" x="60.41" y="160.76" width="10" height="10" transform="translate(231.17 100.36) rotate(90)"/>
  <rect class="cls-1" x="70.41" y="160.76" width="10" height="10" transform="translate(241.17 90.36) rotate(90)"/>
  <rect class="cls-1" x="50.41" y="150.76" width="10" height="10" transform="translate(211.17 100.36) rotate(90)"/>
  <rect class="cls-1" x="30.41" y="150.76" width="10" height="10" transform="translate(191.17 120.36) rotate(90)"/>
  <rect class="cls-1" x="40.41" y="150.76" width="10" height="10" transform="translate(201.17 110.36) rotate(90)"/>
  <rect class="cls-1" x="80.41" y="150.76" width="10" height="10" transform="translate(241.17 70.36) rotate(90)"/>
  <rect class="cls-1" x="60.41" y="150.76" width="10" height="10" transform="translate(221.17 90.36) rotate(90)"/>
  <rect class="cls-1" x="70.41" y="150.76" width="10" height="10" transform="translate(231.17 80.36) rotate(90)"/>
  <rect class="cls-1" x="56.64" y="140.76" width="10" height="10" transform="translate(207.4 84.13) rotate(90)"/>
  <rect class="cls-1" x="46.64" y="140.76" width="10" height="10" transform="translate(197.4 94.13) rotate(90)"/>
  <rect class="cls-1" x="91.06" y="140.76" width="10" height="10" transform="translate(241.82 49.7) rotate(90)"/>
  <rect class="cls-1" x="66.64" y="140.76" width="10" height="10" transform="translate(217.4 74.13) rotate(90)"/>
  <rect class="cls-1" x="76.64" y="140.76" width="10" height="10" transform="translate(227.4 64.13) rotate(90)"/>
  <rect class="cls-1" x="91.06" y="130.76" width="10" height="10" transform="translate(231.82 39.7) rotate(90)"/>
  <rect class="cls-1" x="81.06" y="130.76" width="10" height="10" transform="translate(221.82 49.7) rotate(90)"/>
  <rect class="cls-1" x="61.06" y="130.76" width="10" height="10" transform="translate(201.82 69.7) rotate(90)"/>
  <rect class="cls-1" x="71.06" y="130.76" width="10" height="10" transform="translate(211.82 59.7) rotate(90)"/>
  <rect class="cls-1" x="91.06" y="120.76" width="10" height="10" transform="translate(221.82 29.7) rotate(90)"/>
  <rect class="cls-1" x="71.06" y="120.76" width="10" height="10" transform="translate(201.82 49.7) rotate(90)"/>
  <rect class="cls-1" x="81.06" y="120.76" width="10" height="10" transform="translate(211.82 39.7) rotate(90)"/>
  <rect class="cls-1" x="91.06" y="61.16" width="10" height="10" transform="translate(162.22 -29.9) rotate(90)"/>
  <rect class="cls-1" x="91.06" y="41.16" width="10" height="10" transform="translate(142.22 -49.9) rotate(90)"/>
  <rect class="cls-1" x="91.06" y="51.16" width="10" height="10" transform="translate(152.22 -39.9) rotate(90)"/>
  <rect class="cls-1" x="91.06" y="31.15" width="10" height="10" transform="translate(132.21 -59.91) rotate(90)"/>
  <rect class="cls-1" x="83.68" y="70.76" width="10" height="10" transform="translate(164.44 -12.91) rotate(90)"/>
  <rect class="cls-1" x="83.68" y="110.76" width="10" height="10" transform="translate(204.44 27.09) rotate(90)"/>
  <rect class="cls-1" x="83.68" y="90.76" width="10" height="10" transform="translate(184.44 7.09) rotate(90)"/>
  <rect class="cls-1" x="83.68" y="100.76" width="10" height="10" transform="translate(194.44 17.09) rotate(90)"/>
  <rect class="cls-1" x="83.68" y="80.76" width="10" height="10" transform="translate(174.44 -2.91) rotate(90)"/>
  <rect class="cls-1" x="83.68" y="60.76" width="10" height="10" transform="translate(154.43 -22.92) rotate(90)"/>
  <rect class="cls-1" x="83.68" y="40.76" width="10" height="10" transform="translate(134.43 -42.92) rotate(90)"/>
  <rect class="cls-1" x="83.68" y="50.76" width="10" height="10" transform="translate(144.43 -32.92) rotate(90)"/>
  <rect class="cls-1" x="83.68" y="31.15" width="10" height="10" transform="translate(124.83 -52.52) rotate(90)"/>
  <rect class="cls-1" x="56.28" y="134.25" width="10" height="10" transform="translate(200.53 77.98) rotate(90)"/>
  <rect class="cls-1" x="171.06" y="31.15" width="10" height="10" transform="translate(212.21 -139.91) rotate(90)"/>
  <rect class="cls-1" x="191.06" y="31.15" width="10" height="10" transform="translate(232.21 -159.91) rotate(90)"/>
  <rect class="cls-1" x="161.06" y="31.15" width="10" height="10" transform="translate(202.21 -129.91) rotate(90)"/>
  <rect class="cls-1" x="181.06" y="31.15" width="10" height="10" transform="translate(222.21 -149.91) rotate(90)"/>
  <rect class="cls-1" x="155.37" y="134.34" width="10" height="10" transform="translate(299.71 -21.04) rotate(90)"/>
  <rect class="cls-1" x="199.8" y="71.25" width="10" height="10" transform="translate(281.05 -128.55) rotate(90)"/>
  <rect class="cls-1" x="199.8" y="111.25" width="10" height="10" transform="translate(321.05 -88.55) rotate(90)"/>
  <rect class="cls-1" x="199.8" y="91.25" width="10" height="10" transform="translate(301.05 -108.55) rotate(90)"/>
  <rect class="cls-1" x="199.8" y="101.25" width="10" height="10" transform="translate(311.05 -98.55) rotate(90)"/>
  <rect class="cls-1" x="199.8" y="81.25" width="10" height="10" transform="translate(291.05 -118.55) rotate(90)"/>
  <rect class="cls-1" x="199.8" y="150.85" width="10" height="10" transform="translate(360.64 -48.95) rotate(90)"/>
  <rect class="cls-1" x="169.8" y="120.85" width="10" height="10" transform="translate(300.64 -48.95) rotate(90)"/>
  <rect class="cls-1" x="159.14" y="170.29" width="10" height="10" transform="translate(339.43 11.15) rotate(90)"/>
  <rect class="cls-1" x="149.14" y="170.29" width="10" height="10" transform="translate(329.43 21.15) rotate(90)"/>
  <rect class="cls-1" x="188.86" y="143" width="20.79" height="14.91" transform="translate(349.7 -48.8) rotate(90)"/>
  <rect class="cls-1" x="169.14" y="170.29" width="10" height="10" transform="translate(349.43 1.15) rotate(90)"/>
  <rect class="cls-1" x="159.14" y="160.85" width="10" height="10" transform="translate(329.99 1.7) rotate(90)"/>
  <rect class="cls-1" x="139.14" y="160.85" width="10" height="10" transform="translate(309.99 21.7) rotate(90)"/>
  <rect class="cls-1" x="149.14" y="160.85" width="10" height="10" transform="translate(319.99 11.7) rotate(90)"/>
  <rect class="cls-1" x="189.14" y="160.85" width="10" height="10" transform="translate(359.99 -28.3) rotate(90)"/>
  <rect class="cls-1" x="169.14" y="160.85" width="10" height="10" transform="translate(339.99 -8.3) rotate(90)"/>
  <rect class="cls-1" x="179.14" y="160.85" width="10" height="10" transform="translate(349.99 -18.3) rotate(90)"/>
  <rect class="cls-1" x="159.14" y="150.85" width="10" height="10" transform="translate(319.99 -8.3) rotate(90)"/>
  <rect class="cls-1" x="139.14" y="150.85" width="10" height="10" transform="translate(299.99 11.7) rotate(90)"/>
  <rect class="cls-1" x="149.14" y="150.85" width="10" height="10" transform="translate(309.99 1.7) rotate(90)"/>
  <rect class="cls-1" x="189.14" y="150.85" width="10" height="10" transform="translate(349.99 -38.3) rotate(90)"/>
  <rect class="cls-1" x="169.14" y="150.85" width="10" height="10" transform="translate(329.99 -18.3) rotate(90)"/>
  <rect class="cls-1" x="179.14" y="150.85" width="10" height="10" transform="translate(339.99 -28.3) rotate(90)"/>
  <rect class="cls-1" x="165.37" y="140.85" width="10" height="10" transform="translate(316.22 -24.53) rotate(90)"/>
  <rect class="cls-1" x="155.37" y="140.85" width="10" height="10" transform="translate(306.22 -14.53) rotate(90)"/>
  <rect class="cls-1" x="199.8" y="140.85" width="10" height="10" transform="translate(350.64 -58.95) rotate(90)"/>
  <rect class="cls-1" x="175.37" y="140.85" width="10" height="10" transform="translate(326.22 -34.53) rotate(90)"/>
  <rect class="cls-1" x="185.37" y="140.85" width="10" height="10" transform="translate(336.22 -44.53) rotate(90)"/>
  <rect class="cls-1" x="199.8" y="130.85" width="10" height="10" transform="translate(340.64 -68.95) rotate(90)"/>
  <rect class="cls-1" x="189.8" y="130.85" width="10" height="10" transform="translate(330.64 -58.95) rotate(90)"/>
  <rect class="cls-1" x="169.8" y="130.85" width="10" height="10" transform="translate(310.64 -38.95) rotate(90)"/>
  <rect class="cls-1" x="179.8" y="130.85" width="10" height="10" transform="translate(320.64 -48.95) rotate(90)"/>
  <rect class="cls-1" x="199.8" y="120.85" width="10" height="10" transform="translate(330.64 -78.95) rotate(90)"/>
  <rect class="cls-1" x="179.8" y="120.85" width="10" height="10" transform="translate(310.64 -58.95) rotate(90)"/>
  <rect class="cls-1" x="189.8" y="120.85" width="10" height="10" transform="translate(320.64 -68.95) rotate(90)"/>
  <rect class="cls-1" x="199.8" y="61.24" width="10" height="10" transform="translate(271.04 -138.55) rotate(90)"/>
  <rect class="cls-1" x="199.8" y="41.24" width="10" height="10" transform="translate(251.04 -158.55) rotate(90)"/>
  <rect class="cls-1" x="199.8" y="51.24" width="10" height="10" transform="translate(261.04 -148.55) rotate(90)"/>
  <rect class="cls-1" x="199.8" y="31.24" width="10" height="10" transform="translate(241.03 -168.56) rotate(90)"/>
  <rect class="cls-1" x="192.41" y="70.85" width="10" height="10" transform="translate(273.26 -121.57) rotate(90)"/>
  <rect class="cls-1" x="192.41" y="110.85" width="10" height="10" transform="translate(313.26 -81.57) rotate(90)"/>
  <rect class="cls-1" x="192.41" y="90.85" width="10" height="10" transform="translate(293.26 -101.57) rotate(90)"/>
  <rect class="cls-1" x="192.41" y="100.85" width="10" height="10" transform="translate(303.26 -91.57) rotate(90)"/>
  <rect class="cls-1" x="192.41" y="80.85" width="10" height="10" transform="translate(283.26 -111.57) rotate(90)"/>
  <rect class="cls-1" x="192.41" y="60.84" width="10" height="10" transform="translate(263.25 -131.57) rotate(90)"/>
  <rect class="cls-1" x="192.41" y="40.84" width="10" height="10" transform="translate(243.25 -151.57) rotate(90)"/>
  <rect class="cls-1" x="192.41" y="50.84" width="10" height="10" transform="translate(253.25 -141.57) rotate(90)"/>
  <rect class="cls-1" x="192.41" y="31.24" width="10" height="10" transform="translate(233.65 -161.18) rotate(90)"/>
  <rect class="cls-1" x="165.01" y="134.34" width="10" height="10" transform="translate(309.35 -30.68) rotate(90)"/>
  <rect class="cls-1" x="110.38" y="34.65" width="10" height="10" transform="translate(155.03 -75.73) rotate(90)"/>
  <rect class="cls-1" x="130.38" y="34.65" width="10" height="10" transform="translate(175.03 -95.73) rotate(90)"/>
  <rect class="cls-1" x="150.38" y="34.65" width="10" height="10" transform="translate(195.03 -115.73) rotate(90)"/>
  <rect class="cls-1" x="100.38" y="34.65" width="10" height="10" transform="translate(145.03 -65.73) rotate(90)"/>
  <rect class="cls-1" x="120.38" y="34.65" width="10" height="10" transform="translate(165.03 -85.73) rotate(90)"/>
  <rect class="cls-1" x="140.38" y="34.65" width="10" height="10" transform="translate(185.03 -105.73) rotate(90)"/>
  <rect class="cls-1" x="170.38" y="34.65" width="10" height="10" transform="translate(215.03 -135.73) rotate(90)"/>
  <rect class="cls-1" x="190.38" y="34.65" width="10" height="10" transform="translate(235.03 -155.73) rotate(90)"/>
  <rect class="cls-1" x="160.38" y="34.65" width="10" height="10" transform="translate(205.03 -125.73) rotate(90)"/>
  <rect class="cls-1" x="180.38" y="34.65" width="10" height="10" transform="translate(225.03 -145.73) rotate(90)"/>
  <rect class="cls-1" x="191.74" y="34.73" width="10" height="10" transform="translate(236.47 -157) rotate(90)"/>
</svg>