<?xml version="1.0" encoding="UTF-8"?>
<svg id="_图层_1" data-name="图层 1" xmlns="http://www.w3.org/2000/svg" xmlns:xlink="http://www.w3.org/1999/xlink" viewBox="0 0 2868 1422">
  <defs>
    <style>
      .cls-1 {
        stroke: #fff;
        stroke-miterlimit: 10;
        stroke-width: 15px;
      }

      .cls-1, .cls-2 {
        fill: none;
      }

      .cls-3 {
        fill: #ffe6ee;
      }

      .cls-4 {
        clip-path: url(#clippath-1);
      }

      .cls-5 {
        clip-path: url(#clippath);
      }

      .cls-6 {
        opacity: .5;
      }
    </style>
    <clipPath id="clippath">
      <rect class="cls-2" x="-2963.62" y="-885" width="2868" height="1422"/>
    </clipPath>
    <clipPath id="clippath-1">
      <rect class="cls-2" width="2868" height="1422"/>
    </clipPath>
  </defs>
  <g class="cls-6">
    <g class="cls-5">
      <g>
        <g>
          <line class="cls-1" x1="47.6" y1="-989.29" x2="47.6" y2="575.45"/>
          <line class="cls-1" x1="132.43" y1="-991.47" x2="132.43" y2="574.96"/>
        </g>
        <g>
          <line class="cls-1" x1="-3056.73" y1="60.84" x2="3.44" y2="60.84"/>
          <line class="cls-1" x1="-3055.61" y1="143.92" x2="2.31" y2="143.92"/>
          <line class="cls-1" x1="-3054.48" y1="227" x2="1.19" y2="227"/>
          <line class="cls-1" x1="-3053.36" y1="310.07" x2=".06" y2="310.07"/>
        </g>
      </g>
    </g>
  </g>
  <rect class="cls-3" width="2868" height="1422"/>
  <g class="cls-6">
    <g class="cls-4">
      <g>
        <g>
          <line class="cls-1" x1="42.22" y1="-28.07" x2="42.22" y2="1477.54"/>
          <line class="cls-1" x1="127.05" y1="-30.25" x2="127.05" y2="1477.05"/>
          <line class="cls-1" x1="211.88" y1="-32.43" x2="211.88" y2="1476.56"/>
          <line class="cls-1" x1="296.71" y1="-34.6" x2="296.71" y2="1476.07"/>
          <line class="cls-1" x1="381.54" y1="-36.78" x2="381.54" y2="1475.58"/>
          <line class="cls-1" x1="466.37" y1="-38.96" x2="466.37" y2="1475.1"/>
          <line class="cls-1" x1="551.19" y1="-41.14" x2="551.19" y2="1474.61"/>
          <line class="cls-1" x1="636.02" y1="-43.31" x2="636.02" y2="1474.12"/>
          <line class="cls-1" x1="720.85" y1="-45.49" x2="720.85" y2="1473.63"/>
          <line class="cls-1" x1="805.68" y1="-47.67" x2="805.68" y2="1473.14"/>
          <line class="cls-1" x1="890.51" y1="-49.85" x2="890.51" y2="1472.66"/>
          <line class="cls-1" x1="975.34" y1="-52.02" x2="975.34" y2="1472.17"/>
          <line class="cls-1" x1="1060.17" y1="-54.2" x2="1060.17" y2="1471.68"/>
          <line class="cls-1" x1="1144.99" y1="-56.38" x2="1144.99" y2="1471.19"/>
          <line class="cls-1" x1="1229.82" y1="-58.56" x2="1229.82" y2="1470.7"/>
          <line class="cls-1" x1="1314.65" y1="-60.73" x2="1314.65" y2="1470.22"/>
          <line class="cls-1" x1="1399.48" y1="-62.91" x2="1399.48" y2="1469.73"/>
          <line class="cls-1" x1="1484.31" y1="-65.09" x2="1484.31" y2="1469.24"/>
          <line class="cls-1" x1="1569.14" y1="-67.27" x2="1569.14" y2="1468.75"/>
          <line class="cls-1" x1="1653.96" y1="-69.44" x2="1653.96" y2="1468.26"/>
          <line class="cls-1" x1="1738.79" y1="-71.62" x2="1738.79" y2="1467.78"/>
          <line class="cls-1" x1="1823.62" y1="-73.8" x2="1823.62" y2="1467.29"/>
          <line class="cls-1" x1="1908.45" y1="-75.98" x2="1908.45" y2="1466.8"/>
          <line class="cls-1" x1="1993.28" y1="-78.15" x2="1993.28" y2="1466.31"/>
          <line class="cls-1" x1="2078.11" y1="-80.33" x2="2078.11" y2="1465.82"/>
          <line class="cls-1" x1="2162.93" y1="-82.51" x2="2162.93" y2="1465.34"/>
          <line class="cls-1" x1="2247.76" y1="-84.69" x2="2247.76" y2="1464.85"/>
          <line class="cls-1" x1="2332.59" y1="-86.86" x2="2332.59" y2="1464.36"/>
          <line class="cls-1" x1="2417.42" y1="-89.04" x2="2417.42" y2="1463.87"/>
          <line class="cls-1" x1="2502.25" y1="-91.22" x2="2502.25" y2="1463.38"/>
          <line class="cls-1" x1="2587.08" y1="-93.4" x2="2587.08" y2="1462.9"/>
          <line class="cls-1" x1="2671.9" y1="-95.57" x2="2671.9" y2="1462.41"/>
          <line class="cls-1" x1="2756.73" y1="-97.75" x2="2756.73" y2="1461.92"/>
          <line class="cls-1" x1="2841.56" y1="-99.93" x2="2841.56" y2="1461.43"/>
        </g>
        <g>
          <line class="cls-1" x1="-105.49" y1="32" x2="2979.43" y2="32"/>
          <line class="cls-1" x1="-104.37" y1="115.08" x2="2978.31" y2="115.08"/>
          <line class="cls-1" x1="-103.24" y1="198.15" x2="2977.18" y2="198.15"/>
          <line class="cls-1" x1="-102.12" y1="281.23" x2="2976.06" y2="281.23"/>
          <line class="cls-1" x1="-100.99" y1="364.31" x2="2974.93" y2="364.31"/>
          <line class="cls-1" x1="-99.87" y1="447.38" x2="2973.81" y2="447.38"/>
          <line class="cls-1" x1="-98.74" y1="530.46" x2="2972.68" y2="530.46"/>
          <line class="cls-1" x1="-97.62" y1="613.54" x2="2971.56" y2="613.54"/>
          <line class="cls-1" x1="-96.49" y1="696.62" x2="2970.43" y2="696.62"/>
          <line class="cls-1" x1="-95.37" y1="779.69" x2="2969.31" y2="779.69"/>
          <line class="cls-1" x1="-94.24" y1="862.77" x2="2968.18" y2="862.77"/>
          <line class="cls-1" x1="-93.12" y1="945.85" x2="2967.06" y2="945.85"/>
          <line class="cls-1" x1="-91.99" y1="1028.92" x2="2965.93" y2="1028.92"/>
          <line class="cls-1" x1="-90.87" y1="1112" x2="2964.81" y2="1112"/>
          <line class="cls-1" x1="-89.74" y1="1195.08" x2="2963.68" y2="1195.08"/>
          <line class="cls-1" x1="-88.62" y1="1278.15" x2="2962.56" y2="1278.15"/>
          <line class="cls-1" x1="-87.49" y1="1361.23" x2="2961.43" y2="1361.23"/>
        </g>
      </g>
    </g>
  </g>
</svg>