<?xml version="1.0" encoding="UTF-8"?><svg id="_图层_1" xmlns="http://www.w3.org/2000/svg" viewBox="0 0 700.62 668.98"><defs><style>.cls-1{fill:#b7e2f9;}.cls-2{fill:#fff;}.cls-3{fill:#f4f4f2;opacity:.7;}.cls-4{fill:#cdd1d3;}.cls-5{fill:#afb1b2;}.cls-6{fill:#d8d8d8;}</style></defs><polygon class="cls-3" points="649.85 290.62 649.85 270.62 645.2 270.62 645.2 240.62 635.2 240.62 635.2 220.62 625.2 220.62 625.2 200.62 615.56 200.62 615.56 180.62 605.56 180.62 605.56 160.62 595.56 160.62 595.56 150.62 585.56 150.62 585.56 140.62 575.56 140.62 575.56 130.62 565.56 130.62 565.56 110.62 545.56 110.62 545.56 100.62 535.56 100.62 535.56 90.62 515.56 90.62 515.56 80.62 495.56 80.62 495.56 70.62 485.56 70.62 485.56 60.97 465.56 60.97 465.56 50.97 435.56 50.97 435.56 40.97 415.56 40.97 415.56 38.21 395.56 38.21 395.56 32.36 307.44 32.36 307.44 38.21 287.44 38.21 287.44 40.97 267.44 40.97 267.44 50.97 237.44 50.97 237.44 60.97 217.44 60.97 217.44 70.62 207.44 70.62 207.44 80.62 187.44 80.62 187.44 90.62 167.44 90.62 167.44 100.62 157.44 100.62 157.44 110.62 137.44 110.62 137.44 130.62 127.44 130.62 127.44 140.62 117.44 140.62 117.44 150.62 107.44 150.62 107.44 160.62 97.44 160.62 97.44 180.62 87.44 180.62 87.44 200.62 77.79 200.62 77.79 220.62 67.79 220.62 67.79 240.62 57.79 240.62 57.79 270.62 53.15 270.62 53.15 290.62 49.18 290.62 49.18 384.62 53.15 384.62 53.15 404.62 57.79 404.62 57.79 434.62 67.79 434.62 67.79 454.62 77.79 454.62 77.79 474.62 87.44 474.62 87.44 494.62 97.44 494.62 97.44 514.62 107.44 514.62 107.44 524.62 117.44 524.62 117.44 534.62 127.44 534.62 127.44 544.62 137.44 544.62 137.44 564.62 157.44 564.62 157.44 574.62 167.44 574.62 167.44 584.62 187.44 584.62 187.44 594.62 207.44 594.62 207.44 604.62 217.44 604.62 217.44 614.26 237.44 614.26 237.44 624.26 267.44 624.26 267.44 634.26 287.44 634.26 287.44 637.02 307.44 637.02 307.44 642.88 395.56 642.88 395.56 637.02 415.56 637.02 415.56 634.26 435.56 634.26 435.56 624.26 465.56 624.26 465.56 614.26 485.56 614.26 485.56 604.62 495.56 604.62 495.56 594.62 515.56 594.62 515.56 584.62 535.56 584.62 535.56 574.62 545.56 574.62 545.56 564.62 565.56 564.62 565.56 544.62 575.56 544.62 575.56 534.62 585.56 534.62 585.56 524.62 595.56 524.62 595.56 514.62 605.56 514.62 605.56 494.62 615.56 494.62 615.56 474.62 625.2 474.62 625.2 454.62 635.2 454.62 635.2 434.62 645.2 434.62 645.2 404.62 649.85 404.62 649.85 384.62 653.82 384.62 653.82 290.62 649.85 290.62"/><polygon class="cls-5" points="418.46 324.56 418.46 304.56 408.46 304.56 408.46 284.8 388.46 284.8 388.46 274.8 368.61 274.8 368.61 264.8 346.62 264.8 346.62 274.8 326.77 274.8 326.77 284.8 306.77 284.8 306.77 304.56 296.77 304.56 296.77 324.56 286.77 324.56 286.77 347.62 296.77 347.62 296.77 367.62 306.77 367.62 306.77 387.38 326.77 387.38 326.77 397.38 346.62 397.38 346.62 407.38 368.61 407.38 368.61 397.38 388.46 397.38 388.46 387.38 408.46 387.38 408.46 367.62 418.46 367.62 418.46 347.62 428.46 347.62 428.46 324.56 418.46 324.56"/><rect class="cls-6" x="456.77" y="561.84" width="10" height="10" transform="translate(986.36 1076.12) rotate(173.32)"/><rect class="cls-6" x="466.71" y="560.68" width="10" height="10" transform="translate(1006.02 1072.65) rotate(173.32)"/><rect class="cls-6" x="475.47" y="549.59" width="10" height="10" transform="translate(1022.2 1049.51) rotate(173.32)"/><rect class="cls-6" x="494.18" y="537.33" width="10" height="10" transform="translate(1058.05 1022.9) rotate(173.32)"/><rect class="cls-6" x="485.41" y="548.42" width="10" height="10" transform="translate(1041.87 1046.04) rotate(173.32)"/><rect class="cls-6" x="504.11" y="536.16" width="10" height="10" transform="translate(1077.71 1019.43) rotate(173.32)"/><rect class="cls-6" x="502.94" y="526.23" width="10" height="10" transform="translate(1074.24 999.77) rotate(173.32)"/><rect class="cls-6" x="512.88" y="525.07" width="10" height="10" transform="translate(1093.9 996.29) rotate(173.32)"/><rect class="cls-6" x="521.65" y="513.97" width="10" height="10" transform="translate(1110.09 973.16) rotate(173.32)"/><rect class="cls-6" x="530.41" y="502.88" width="10" height="10" transform="translate(1126.28 950.02) rotate(173.32)"/><rect class="cls-6" x="539.18" y="491.78" width="10" height="10" transform="translate(1142.46 926.88) rotate(173.32)"/><rect class="cls-6" x="538.02" y="481.85" width="10" height="10" transform="translate(1138.99 907.22) rotate(173.32)"/><rect class="cls-6" x="548" y="480.68" width="10" height="10" transform="translate(1158.75 903.73) rotate(173.32)"/><rect class="cls-6" x="551.33" y="470.22" width="10" height="10" transform="translate(1164.16 882.5) rotate(173.32)"/><polygon class="cls-2" points="432.39 260.62 448.43 250.62 455.46 242.84 475.46 222.84 485.46 212.84 505.46 192.84 515.46 182.84 545.49 162.84 555.56 152.84 575.56 140.62 585.56 150.62 595.56 160.62 605.56 180.62 615.56 200.62 625.21 220.62 635.21 240.62 645.2 270.62 644.86 287.62 634.29 285.62 619.46 291.3 605.4 293.27 591.39 295.18 571.31 305.08 557.3 306.99 545.49 304.56 529.27 310.81 515.26 312.72 500.29 310.62 487.24 316.55 473.37 318.65 463.46 319.56 455.4 312.62 445.4 292.62 435.46 277.62 435.4 272.62 432.39 260.62"/><polygon class="cls-2" points="65.22 400.32 81.25 397.62 88.18 393.18 102.11 390.47 135.53 376.86 149.42 374.21 177.2 368.9 191.09 366.25 218.87 360.94 240.38 354 247.61 362.62 257.61 382.62 267.61 402.62 268.78 417.62 264.05 422.55 254.52 432.84 242.61 442.62 235.62 453.88 226.16 464.4 211.93 471.82 207.25 485.43 197.8 495.95 183.06 501.74 178.34 507 168.88 517.52 159.35 528.04 149.9 538.55 137.45 539.62 127.45 534.62 117.45 524.62 107.45 514.62 97.45 494.62 87.45 474.62 77.8 454.62 67.8 434.62 62.8 407.62 65.22 397.62 65.22 400.32"/><rect class="cls-4" x="455.4" y="322.62" width="10" height="10" transform="translate(788.01 -132.78) rotate(90)"/><rect class="cls-4" x="455.4" y="332.62" width="10" height="10" transform="translate(798.01 -122.78) rotate(90)"/><rect class="cls-4" x="455.4" y="312.62" width="10" height="10" transform="translate(778.01 -142.78) rotate(90)"/><rect class="cls-4" x="445.4" y="302.62" width="10" height="10" transform="translate(758.01 -142.78) rotate(90)"/><rect class="cls-4" x="435.4" y="282.62" width="10" height="10" transform="translate(728.01 -152.78) rotate(90)"/><rect class="cls-4" x="445.4" y="292.62" width="10" height="10" transform="translate(748.01 -152.78) rotate(90)"/><rect class="cls-4" x="455.4" y="342.62" width="10" height="10" transform="translate(808.01 -112.78) rotate(90)"/><rect class="cls-4" x="435.4" y="272.62" width="10" height="10" transform="translate(718.01 -162.78) rotate(90)"/><rect class="cls-4" x="425.4" y="272.62" width="10" height="10" transform="translate(708.01 -152.78) rotate(90)"/><rect class="cls-4" x="425.4" y="262.62" width="10" height="10" transform="translate(698.01 -162.78) rotate(90)"/><rect class="cls-4" x="425.4" y="252.62" width="10" height="10" transform="translate(688.01 -172.78) rotate(90)"/><rect class="cls-4" x="415.4" y="252.62" width="10" height="10" transform="translate(678.01 -162.78) rotate(90)"/><rect class="cls-4" x="415.4" y="242.62" width="10" height="10" transform="translate(668.01 -172.78) rotate(90)"/><rect class="cls-4" x="405.4" y="242.62" width="10" height="10" transform="translate(658.01 -162.78) rotate(90)"/><rect class="cls-4" x="395.4" y="232.62" width="10" height="10" transform="translate(638.01 -162.78) rotate(90)"/><rect class="cls-4" x="385.4" y="232.62" width="10" height="10" transform="translate(628.01 -152.78) rotate(90)"/><rect class="cls-4" x="375.4" y="227.62" width="10" height="10" transform="translate(613.01 -147.78) rotate(90)"/><rect class="cls-4" x="365.4" y="225.39" width="10" height="10" transform="translate(600.79 -140.01) rotate(90)"/><rect class="cls-4" x="355.4" y="225.39" width="10" height="10" transform="translate(590.79 -130.01) rotate(90)"/><rect class="cls-4" x="345.4" y="225.39" width="10" height="10" transform="translate(580.79 -120.01) rotate(90)"/><rect class="cls-4" x="237.55" y="322.62" width="10" height="10" transform="translate(570.16 85.07) rotate(90)"/><rect class="cls-4" x="237.55" y="332.62" width="10" height="10" transform="translate(580.16 95.07) rotate(90)"/><rect class="cls-4" x="237.55" y="312.62" width="10" height="10" transform="translate(560.16 75.07) rotate(90)"/><rect class="cls-4" x="247.55" y="302.62" width="10" height="10" transform="translate(560.16 55.07) rotate(90)"/><rect class="cls-4" x="257.55" y="282.62" width="10" height="10" transform="translate(550.16 25.07) rotate(90)"/><rect class="cls-4" x="247.55" y="292.62" width="10" height="10" transform="translate(550.16 45.07) rotate(90)"/><rect class="cls-4" x="237.55" y="342.62" width="10" height="10" transform="translate(590.16 105.07) rotate(90)"/><rect class="cls-4" x="257.55" y="272.62" width="10" height="10" transform="translate(540.16 15.07) rotate(90)"/><rect class="cls-4" x="267.55" y="272.62" width="10" height="10" transform="translate(550.16 5.07) rotate(90)"/><rect class="cls-4" x="267.55" y="262.62" width="10" height="10" transform="translate(540.16 -4.93) rotate(90)"/><rect class="cls-4" x="267.55" y="252.62" width="10" height="10" transform="translate(530.16 -14.93) rotate(90)"/><rect class="cls-4" x="277.55" y="252.62" width="10" height="10" transform="translate(540.16 -24.93) rotate(90)"/><rect class="cls-4" x="277.55" y="242.62" width="10" height="10" transform="translate(530.16 -34.93) rotate(90)"/><rect class="cls-4" x="287.55" y="242.62" width="10" height="10" transform="translate(540.16 -44.93) rotate(90)"/><rect class="cls-4" x="297.55" y="232.62" width="10" height="10" transform="translate(540.16 -64.93) rotate(90)"/><rect class="cls-4" x="307.55" y="232.62" width="10" height="10" transform="translate(550.16 -74.93) rotate(90)"/><rect class="cls-4" x="317.55" y="227.62" width="10" height="10" transform="translate(555.16 -89.93) rotate(90)"/><rect class="cls-4" x="327.55" y="225.39" width="10" height="10" transform="translate(562.94 -102.16) rotate(90)"/><rect class="cls-4" x="337.55" y="225.39" width="10" height="10" transform="translate(572.94 -112.16) rotate(90)"/><rect class="cls-4" x="347.55" y="225.39" width="10" height="10" transform="translate(582.94 -122.16) rotate(90)"/><rect class="cls-4" x="455.46" y="342.62" width="10" height="10" transform="translate(112.84 808.08) rotate(-90)"/><rect class="cls-4" x="455.46" y="332.62" width="10" height="10" transform="translate(122.84 798.08) rotate(-90)"/><rect class="cls-4" x="455.46" y="352.62" width="10" height="10" transform="translate(102.84 818.08) rotate(-90)"/><rect class="cls-4" x="445.46" y="362.62" width="10" height="10" transform="translate(82.84 818.08) rotate(-90)"/><rect class="cls-4" x="435.46" y="382.62" width="10" height="10" transform="translate(52.84 828.08) rotate(-90)"/><rect class="cls-4" x="445.46" y="372.62" width="10" height="10" transform="translate(72.84 828.08) rotate(-90)"/><rect class="cls-4" x="455.46" y="322.62" width="10" height="10" transform="translate(132.84 788.08) rotate(-90)"/><rect class="cls-4" x="435.46" y="392.62" width="10" height="10" transform="translate(42.84 838.08) rotate(-90)"/><rect class="cls-4" x="425.46" y="392.62" width="10" height="10" transform="translate(32.84 828.08) rotate(-90)"/><rect class="cls-4" x="425.46" y="402.62" width="10" height="10" transform="translate(22.84 838.08) rotate(-90)"/><rect class="cls-4" x="425.46" y="412.62" width="10" height="10" transform="translate(12.84 848.08) rotate(-90)"/><rect class="cls-4" x="415.46" y="412.62" width="10" height="10" transform="translate(2.84 838.08) rotate(-90)"/><rect class="cls-4" x="415.46" y="422.62" width="10" height="10" transform="translate(-7.16 848.08) rotate(-90)"/><rect class="cls-4" x="405.46" y="422.62" width="10" height="10" transform="translate(-17.16 838.08) rotate(-90)"/><rect class="cls-4" x="395.46" y="432.62" width="10" height="10" transform="translate(-37.16 838.08) rotate(-90)"/><rect class="cls-4" x="385.46" y="432.62" width="10" height="10" transform="translate(-47.16 828.08) rotate(-90)"/><rect class="cls-4" x="375.46" y="437.62" width="10" height="10" transform="translate(-62.16 823.08) rotate(-90)"/><rect class="cls-4" x="365.46" y="439.85" width="10" height="10" transform="translate(-74.39 815.31) rotate(-90)"/><rect class="cls-4" x="355.46" y="439.85" width="10" height="10" transform="translate(-84.39 805.31) rotate(-90)"/><rect class="cls-4" x="345.46" y="439.85" width="10" height="10" transform="translate(-94.39 795.31) rotate(-90)"/><rect class="cls-4" x="237.61" y="342.62" width="10" height="10" transform="translate(-105.01 590.23) rotate(-90)"/><rect class="cls-4" x="237.61" y="332.62" width="10" height="10" transform="translate(-95.01 580.23) rotate(-90)"/><rect class="cls-4" x="237.61" y="352.62" width="10" height="10" transform="translate(-115.01 600.23) rotate(-90)"/><rect class="cls-4" x="247.61" y="362.62" width="10" height="10" transform="translate(-115.01 620.23) rotate(-90)"/><rect class="cls-4" x="257.61" y="382.62" width="10" height="10" transform="translate(-125.01 650.23) rotate(-90)"/><rect class="cls-4" x="247.61" y="372.62" width="10" height="10" transform="translate(-125.01 630.23) rotate(-90)"/><rect class="cls-4" x="237.61" y="322.62" width="10" height="10" transform="translate(-85.01 570.23) rotate(-90)"/><rect class="cls-4" x="257.61" y="392.62" width="10" height="10" transform="translate(-135.01 660.23) rotate(-90)"/><rect class="cls-4" x="267.61" y="392.62" width="10" height="10" transform="translate(-125.01 670.23) rotate(-90)"/><rect class="cls-4" x="267.61" y="402.62" width="10" height="10" transform="translate(-135.01 680.23) rotate(-90)"/><rect class="cls-4" x="267.61" y="412.62" width="10" height="10" transform="translate(-145.01 690.23) rotate(-90)"/><rect class="cls-4" x="277.61" y="412.62" width="10" height="10" transform="translate(-135.01 700.23) rotate(-90)"/><rect class="cls-4" x="277.61" y="422.62" width="10" height="10" transform="translate(-145.01 710.23) rotate(-90)"/><rect class="cls-4" x="287.61" y="422.62" width="10" height="10" transform="translate(-135.01 720.23) rotate(-90)"/><rect class="cls-4" x="297.61" y="432.62" width="10" height="10" transform="translate(-135.01 740.23) rotate(-90)"/><rect class="cls-4" x="307.61" y="432.62" width="10" height="10" transform="translate(-125.01 750.23) rotate(-90)"/><rect class="cls-4" x="317.61" y="437.62" width="10" height="10" transform="translate(-120.01 765.23) rotate(-90)"/><rect class="cls-4" x="327.61" y="439.85" width="10" height="10" transform="translate(-112.24 777.46) rotate(-90)"/><rect class="cls-4" x="337.61" y="439.85" width="10" height="10" transform="translate(-102.24 787.46) rotate(-90)"/><rect class="cls-4" x="347.61" y="439.85" width="10" height="10" transform="translate(-92.24 797.46) rotate(-90)"/><polygon class="cls-2" points="428.46 268.21 420.4 279.8 412.05 284.8 405.46 287.1 408.45 304.56 418.45 324.56 435.3 320.1 473.37 318.65 460.4 299.56 450.4 269.55 428.46 268.21"/><polygon class="cls-2" points="243.95 353.95 268.78 352 282.61 349.7 292.93 344.62 296.77 347.62 306.77 367.62 311.77 382.38 306.77 387.38 291.15 399.9 277.61 412.62 250.9 416.63 242.55 389.14 230.24 367.62 243.95 353.95"/><rect class="cls-1" x="418.45" y="324.56" width="10" height="10" transform="translate(753.01 -93.89) rotate(90)"/><rect class="cls-1" x="418.45" y="334.56" width="10" height="10" transform="translate(763.01 -83.89) rotate(90)"/><rect class="cls-1" x="408.45" y="314.56" width="10" height="10"/><rect class="cls-1" x="408.45" y="304.56" width="10" height="10"/><rect class="cls-1" x="398.45" y="294.56" width="10" height="10"/><rect class="cls-1" x="398.45" y="284.8" width="10" height="10"/><rect class="cls-1" x="388.45" y="284.8" width="10" height="10"/><rect class="cls-1" x="378.45" y="274.8" width="10" height="10"/><rect class="cls-1" x="368.6" y="274.8" width="10" height="10"/><rect class="cls-1" x="358.6" y="264.8" width="10" height="10"/><rect class="cls-1" x="348.6" y="264.8" width="10" height="10"/><rect class="cls-1" x="286.77" y="324.56" width="10" height="10" transform="translate(621.33 37.79) rotate(90)"/><rect class="cls-1" x="286.77" y="334.56" width="10" height="10" transform="translate(631.33 47.79) rotate(90)"/><rect class="cls-1" x="296.77" y="314.56" width="10" height="10" transform="translate(603.53 639.12) rotate(180)"/><rect class="cls-1" x="296.77" y="304.56" width="10" height="10" transform="translate(603.53 619.12) rotate(180)"/><rect class="cls-1" x="306.77" y="294.56" width="10" height="10" transform="translate(623.53 599.12) rotate(180)"/><rect class="cls-1" x="306.77" y="284.8" width="10" height="10" transform="translate(623.53 579.59) rotate(180)"/><rect class="cls-1" x="316.77" y="284.8" width="10" height="10" transform="translate(643.53 579.59) rotate(180)"/><rect class="cls-1" x="326.77" y="274.8" width="10" height="10" transform="translate(663.53 559.59) rotate(180)"/><rect class="cls-1" x="336.62" y="274.8" width="10" height="10" transform="translate(683.23 559.59) rotate(180)"/><rect class="cls-1" x="346.62" y="264.8" width="10" height="10" transform="translate(703.23 539.59) rotate(180)"/><rect class="cls-1" x="356.62" y="264.8" width="10" height="10" transform="translate(723.23 539.59) rotate(180)"/><rect class="cls-1" x="418.45" y="337.62" width="10" height="10" transform="translate(80.83 766.07) rotate(-90)"/><rect class="cls-1" x="418.45" y="327.62" width="10" height="10" transform="translate(90.83 756.07) rotate(-90)"/><rect class="cls-1" x="408.45" y="347.62" width="10" height="10"/><rect class="cls-1" x="408.45" y="357.62" width="10" height="10"/><rect class="cls-1" x="398.45" y="367.62" width="10" height="10"/><rect class="cls-1" x="398.45" y="377.38" width="10" height="10"/><rect class="cls-1" x="388.45" y="377.38" width="10" height="10"/><rect class="cls-1" x="378.45" y="387.38" width="10" height="10"/><rect class="cls-1" x="368.6" y="387.38" width="10" height="10"/><rect class="cls-1" x="358.6" y="397.38" width="10" height="10"/><rect class="cls-1" x="348.6" y="397.38" width="10" height="10"/><rect class="cls-1" x="286.77" y="337.62" width="10" height="10" transform="translate(-50.85 634.38) rotate(-90)"/><rect class="cls-1" x="286.77" y="327.62" width="10" height="10" transform="translate(-40.85 624.38) rotate(-90)"/><rect class="cls-1" x="296.77" y="347.62" width="10" height="10" transform="translate(603.53 705.24) rotate(180)"/><rect class="cls-1" x="296.77" y="357.62" width="10" height="10" transform="translate(603.53 725.24) rotate(180)"/><rect class="cls-1" x="306.77" y="367.62" width="10" height="10" transform="translate(623.53 745.24) rotate(180)"/><rect class="cls-1" x="306.77" y="377.38" width="10" height="10" transform="translate(623.53 764.76) rotate(180)"/><rect class="cls-1" x="316.77" y="377.38" width="10" height="10" transform="translate(643.53 764.76) rotate(180)"/><rect class="cls-1" x="326.77" y="387.38" width="10" height="10" transform="translate(663.53 784.76) rotate(180)"/><rect class="cls-1" x="336.62" y="387.38" width="10" height="10" transform="translate(683.23 784.76) rotate(180)"/><rect class="cls-1" x="346.62" y="397.38" width="10" height="10" transform="translate(703.23 804.76) rotate(180)"/><rect class="cls-1" x="356.62" y="397.38" width="10" height="10" transform="translate(723.23 804.76) rotate(180)"/><rect class="cls-6" x="435.4" y="252.62" width="10" height="10" transform="translate(698.01 -182.78) rotate(90)"/><rect class="cls-6" x="445.4" y="242.62" width="10" height="10" transform="translate(698.01 -202.78) rotate(90)"/><rect class="cls-6" x="465.46" y="222.84" width="10" height="10" transform="translate(698.31 -242.62) rotate(90)"/><rect class="cls-6" x="455.46" y="232.84" width="10" height="10" transform="translate(698.31 -222.62) rotate(90)"/><rect class="cls-6" x="475.46" y="212.84" width="10" height="10" transform="translate(698.31 -262.62) rotate(90)"/><rect class="cls-6" x="485.46" y="202.84" width="10" height="10" transform="translate(698.31 -282.62) rotate(90)"/><rect class="cls-6" x="495.46" y="202.84" width="10" height="10" transform="translate(708.31 -292.62) rotate(90)"/><rect class="cls-6" x="465.46" y="232.84" width="10" height="10" transform="translate(708.31 -232.62) rotate(90)"/><rect class="cls-6" x="555.56" y="142.86" width="10" height="10" transform="translate(708.42 -412.7) rotate(90)"/><rect class="cls-6" x="565.56" y="140.62" width="10" height="10" transform="translate(716.18 -424.94) rotate(90)"/><rect class="cls-6" x="545.56" y="152.84" width="10" height="10" transform="translate(708.41 -392.72) rotate(90)"/><rect class="cls-6" x="495.46" y="192.84" width="10" height="10" transform="translate(698.31 -302.62) rotate(90)"/><rect class="cls-6" x="505.46" y="182.84" width="10" height="10" transform="translate(698.31 -322.62) rotate(90)"/><rect class="cls-6" x="515.46" y="172.84" width="10" height="10" transform="translate(698.31 -342.62) rotate(90)"/><rect class="cls-6" x="525.49" y="172.84" width="10" height="10" transform="translate(708.33 -352.64) rotate(90)"/><rect class="cls-6" x="525.49" y="162.84" width="10" height="10" transform="translate(698.33 -362.64) rotate(90)"/><rect class="cls-6" x="535.49" y="162.84" width="10" height="10" transform="translate(708.33 -372.64) rotate(90)"/><rect class="cls-6" x="425.4" y="262.62" width="10" height="10" transform="translate(698.01 -162.78) rotate(90)"/><rect class="cls-6" x="415.4" y="272.48" width="10" height="10" transform="translate(697.88 -142.91) rotate(90)"/><rect class="cls-6" x="408.45" y="277.1" width="10" height="10" transform="translate(695.56 -131.35) rotate(90)"/><rect class="cls-6" x="461.36" y="314.6" width="10" height="10" transform="translate(644.31 856.24) rotate(-142.77)"/><rect class="cls-6" x="475.37" y="312.69" width="10" height="10" transform="translate(670.64 861.28) rotate(-142.77)"/><rect class="cls-6" x="503.26" y="308.68" width="10" height="10" transform="translate(723.14 870.94) rotate(-142.77)"/><rect class="cls-6" x="489.24" y="310.59" width="10" height="10" transform="translate(696.82 865.9) rotate(-142.77)"/><rect class="cls-6" x="517.27" y="306.77" width="10" height="10" transform="translate(749.47 875.99) rotate(-142.77)"/><rect class="cls-6" x="531.28" y="304.86" width="10" height="10" transform="translate(775.8 881.03) rotate(-142.77)"/><rect class="cls-6" x="537.33" y="296.89" width="10" height="10" transform="translate(791.48 870.39) rotate(-142.77)"/><rect class="cls-6" x="495.29" y="302.63" width="10" height="10" transform="translate(712.5 855.26) rotate(-142.77)"/><rect class="cls-6" x="621.45" y="285.33" width="10" height="10" transform="translate(949.58 900.52) rotate(-142.77)"/><rect class="cls-6" x="629.29" y="278.73" width="10" height="10" transform="translate(967.65 893.4) rotate(-142.77)"/><rect class="cls-6" x="607.45" y="287.25" width="10" height="10" transform="translate(923.27 895.5) rotate(-142.77)"/><rect class="cls-6" x="545.29" y="302.94" width="10" height="10" transform="translate(802.12 886.07) rotate(-142.77)"/><rect class="cls-6" x="559.31" y="301.03" width="10" height="10" transform="translate(828.45 891.12) rotate(-142.77)"/><rect class="cls-6" x="573.32" y="299.12" width="10" height="10" transform="translate(854.77 896.16) rotate(-142.77)"/><rect class="cls-6" x="579.38" y="291.14" width="10" height="10" transform="translate(870.5 885.5) rotate(-142.77)"/><rect class="cls-6" x="587.34" y="297.19" width="10" height="10" transform="translate(881.14 901.18) rotate(-142.77)"/><rect class="cls-6" x="593.39" y="289.23" width="10" height="10" transform="translate(896.82 890.54) rotate(-142.77)"/><rect class="cls-6" x="637.07" y="284.64" width="10" height="10" transform="translate(978.04 908.72) rotate(-142.77)"/><rect class="cls-6" x="448.46" y="315.55" width="10" height="10" transform="translate(620.56 850.12) rotate(-142.77)"/><rect class="cls-6" x="436.97" y="314.21" width="10" height="10" transform="translate(600.74 840.78) rotate(-142.77)"/><rect class="cls-6" x="423.3" y="316.05" width="10" height="10" transform="translate(575.06 835.81) rotate(-142.77)"/><rect class="cls-6" x="417.4" y="316.57" width="10" height="10" transform="translate(564.16 833.16) rotate(-142.77)"/><rect class="cls-6" x="263.78" y="412.29" width="10" height="10" transform="translate(-133.62 707.89) rotate(-93.05)"/><rect class="cls-6" x="254.33" y="422.81" width="10" height="10" transform="translate(-154.08 709.53) rotate(-93.05)"/><rect class="cls-6" x="235.34" y="443.62" width="10" height="10" transform="translate(-194.85 712.49) rotate(-93.05)"/><rect class="cls-6" x="244.8" y="433.1" width="10" height="10" transform="translate(-174.39 710.85) rotate(-93.05)"/><rect class="cls-6" x="225.89" y="454.14" width="10" height="10" transform="translate(-215.31 714.13) rotate(-93.05)"/><rect class="cls-6" x="216.43" y="464.66" width="10" height="10" transform="translate(-235.77 715.77) rotate(-93.05)"/><rect class="cls-6" x="206.45" y="465.19" width="10" height="10" transform="translate(-246.82 706.35) rotate(-93.05)"/><rect class="cls-6" x="234.81" y="433.63" width="10" height="10" transform="translate(-185.44 701.44) rotate(-93.05)"/><rect class="cls-6" x="149.62" y="528.29" width="10" height="10" transform="translate(-369.68 716.07) rotate(-93.05)"/><rect class="cls-6" x="138.67" y="533.39" width="10" height="12.45" transform="translate(-395.95 683.29) rotate(-90)"/><rect class="cls-6" x="159.08" y="517.78" width="10" height="10" transform="translate(-349.23 714.45) rotate(-93.05)"/><rect class="cls-6" x="206.98" y="475.17" width="10" height="10" transform="translate(-256.23 717.4) rotate(-93.05)"/><rect class="cls-6" x="197.53" y="485.69" width="10" height="10" transform="translate(-276.69 719.04) rotate(-93.05)"/><rect class="cls-6" x="188.07" y="496.21" width="10" height="10" transform="translate(-297.15 720.68) rotate(-93.05)"/><rect class="cls-6" x="178.06" y="496.74" width="10" height="10" transform="translate(-308.23 711.24) rotate(-93.05)"/><rect class="cls-6" x="178.6" y="506.73" width="10" height="10" transform="translate(-317.64 722.29) rotate(-93.05)"/><rect class="cls-6" x="168.61" y="507.26" width="10" height="10" transform="translate(-328.69 712.88) rotate(-93.05)"/><rect class="cls-6" x="272.77" y="404.57" width="10" height="10" transform="translate(-116.44 708.74) rotate(-93.05)"/><rect class="cls-6" x="281.77" y="399.77" width="10" height="10" transform="translate(-102.18 712.67) rotate(-93.05)"/><rect class="cls-6" x="290.88" y="389.64" width="10" height="10" transform="translate(-82.46 711.1) rotate(-93.05)"/><rect class="cls-6" x="299.55" y="382.62" width="10" height="10" transform="translate(-66.32 712.36) rotate(-93.05)"/><rect class="cls-6" x="232.21" y="350.32" width="10" height="10" transform="translate(240.6 -71.89) rotate(34.18)"/><rect class="cls-6" x="220.66" y="354.43" width="10" height="10" transform="translate(240.91 -64.69) rotate(34.18)"/><rect class="cls-6" x="193.03" y="359.92" width="10" height="10" transform="translate(239.22 -48.22) rotate(34.18)"/><rect class="cls-6" x="206.93" y="357.26" width="10" height="10" transform="translate(240.13 -56.49) rotate(34.18)"/><rect class="cls-6" x="179.14" y="362.57" width="10" height="10" transform="translate(238.31 -39.96) rotate(34.18)"/><rect class="cls-6" x="165.25" y="365.23" width="10" height="10" transform="translate(237.41 -31.7) rotate(34.18)"/><rect class="cls-6" x="159.64" y="373.5" width="10" height="10" transform="translate(241.08 -27.11) rotate(34.18)"/><rect class="cls-6" x="201.31" y="365.54" width="10" height="10" transform="translate(243.81 -51.9) rotate(34.18)"/><rect class="cls-6" x="76.25" y="389.52" width="10" height="10" transform="translate(235.68 22.5) rotate(34.18)"/><rect class="cls-6" x="68.77" y="396.53" width="10" height="10" transform="translate(238.33 27.91) rotate(34.18)"/><rect class="cls-6" x="90.12" y="386.86" width="10" height="10" transform="translate(236.58 14.25) rotate(34.18)"/><rect class="cls-6" x="151.36" y="367.88" width="10" height="10" transform="translate(236.5 -23.44) rotate(34.18)"/><rect class="cls-6" x="137.47" y="370.54" width="10" height="10" transform="translate(235.59 -15.17) rotate(34.18)"/><rect class="cls-6" x="123.58" y="373.19" width="10" height="10" transform="translate(234.68 -6.91) rotate(34.18)"/><rect class="cls-6" x="117.95" y="381.48" width="10" height="10" transform="translate(238.37 -2.32) rotate(34.18)"/><rect class="cls-6" x="109.68" y="375.87" width="10" height="10" transform="translate(233.78 1.36) rotate(34.18)"/><rect class="cls-6" x="104.06" y="384.14" width="10" height="10" transform="translate(237.46 5.95) rotate(34.18)"/><rect class="cls-6" x="60.22" y="395.32" width="10" height="10" transform="translate(236.17 32.51) rotate(34.18)"/><rect class="cls-6" x="245.9" y="347.62" width="10" height="10" transform="translate(241.44 -80.05) rotate(34.18)"/><rect class="cls-6" x="257.22" y="348.41" width="10" height="10" transform="translate(243.84 -86.27) rotate(34.18)"/><rect class="cls-6" x="270.73" y="345.68" width="10" height="10" transform="translate(244.64 -94.33) rotate(34.18)"/><rect class="cls-6" x="284.56" y="343.37" width="10" height="10" transform="translate(245.74 -102.5) rotate(34.18)"/><rect class="cls-2" x="296.84" y="532.69" width="13.85" height="13.85"/><rect class="cls-2" x="296.84" y="518.85" width="13.85" height="13.85"/><rect class="cls-2" x="310.69" y="532.69" width="13.85" height="13.85"/><rect class="cls-2" x="310.69" y="518.85" width="13.85" height="13.85"/><rect class="cls-2" x="283" y="505" width="13.85" height="13.85"/><rect class="cls-2" x="324.53" y="532.69" width="13.85" height="13.85"/><rect class="cls-2" x="324.53" y="518.85" width="13.85" height="13.85"/><rect class="cls-2" x="310.69" y="505" width="13.85" height="13.85"/><rect class="cls-2" x="310.69" y="491.16" width="13.85" height="13.85"/><rect class="cls-2" x="310.69" y="574.23" width="13.85" height="13.85"/><rect class="cls-2" x="310.69" y="560.39" width="13.85" height="13.85"/><rect class="cls-2" x="283" y="532.69" width="13.85" height="13.85" transform="translate(-249.7 829.54) rotate(-90)"/><rect class="cls-2" x="269.15" y="532.69" width="13.85" height="13.85" transform="translate(-263.55 815.69) rotate(-90)"/><rect class="cls-2" x="310.69" y="546.54" width="13.85" height="13.85" transform="translate(-235.85 871.08) rotate(-90)"/><rect class="cls-2" x="296.84" y="546.54" width="13.85" height="13.85" transform="translate(-249.7 857.23) rotate(-90)"/><rect class="cls-2" x="324.53" y="546.54" width="13.85" height="13.85"/><rect class="cls-2" x="352.23" y="532.69" width="13.85" height="13.85" transform="translate(-180.47 898.77) rotate(-90)"/><rect class="cls-2" x="338.38" y="532.69" width="13.85" height="13.85" transform="translate(-194.31 884.92) rotate(-90)"/><rect class="cls-2" x="283" y="560.39" width="13.85" height="13.85"/><rect class="cls-2" x="338.38" y="505" width="13.85" height="13.85"/><rect class="cls-2" x="338.38" y="560.39" width="13.85" height="13.85"/><rect class="cls-2" x="310.69" y="476.31" width="13.85" height="13.85"/><rect class="cls-2" x="254.3" y="532.69" width="13.85" height="13.85"/><rect class="cls-2" x="367.07" y="532.69" width="13.85" height="13.85"/><rect class="cls-2" x="310.69" y="589.08" width="13.85" height="13.85"/><rect class="cls-2" x="353.54" y="330.7" width="13.85" height="13.85"/><rect class="cls-2" x="339.69" y="344.54" width="13.85" height="13.85"/><rect class="cls-2" x="367.38" y="316.85" width="13.85" height="13.85"/><rect class="cls-2" x="353.54" y="316.85" width="13.85" height="13.85"/><rect class="cls-2" x="367.38" y="330.7" width="13.85" height="13.85"/><rect class="cls-2" x="339.69" y="316.85" width="13.85" height="13.85"/><rect class="cls-2" x="339.69" y="330.7" width="13.85" height="13.85"/><rect class="cls-2" x="353.54" y="344.54" width="13.85" height="13.85"/><rect class="cls-2" x="367.38" y="344.54" width="13.85" height="13.85"/><rect class="cls-2" x="353.54" y="303.01" width="13.85" height="13.85"/><rect class="cls-2" x="325.85" y="330.7" width="13.85" height="13.85"/><rect class="cls-2" x="381.23" y="330.7" width="13.85" height="13.85"/><rect class="cls-2" x="353.54" y="358.39" width="13.85" height="13.85"/><rect class="cls-1" x="187.45" y="80.62" width="10" height="10" transform="translate(384.89 171.24) rotate(180)"/><rect class="cls-1" x="247.45" y="50.97" width="10" height="10" transform="translate(504.89 111.95) rotate(180)"/><rect class="cls-1" x="337.45" y="32.36" width="10" height="10" transform="translate(684.89 74.72) rotate(180)"/><rect class="cls-1" x="277.45" y="40.97" width="10" height="10" transform="translate(564.89 91.95) rotate(180)"/><rect class="cls-1" x="267.45" y="40.97" width="10" height="10" transform="translate(544.89 91.95) rotate(180)"/><rect class="cls-1" x="287.45" y="38.21" width="10" height="10" transform="translate(584.89 86.42) rotate(180)"/><rect class="cls-1" x="297.45" y="38.21" width="10" height="10" transform="translate(604.89 86.42) rotate(180)"/><rect class="cls-1" x="317.45" y="32.36" width="10" height="10" transform="translate(644.89 74.72) rotate(180)"/><rect class="cls-1" x="307.45" y="32.36" width="10" height="10" transform="translate(624.89 74.72) rotate(180)"/><rect class="cls-1" x="327.45" y="32.36" width="10" height="10" transform="translate(664.89 74.72) rotate(180)"/><rect class="cls-1" x="117.45" y="140.62" width="10" height="10" transform="translate(244.89 291.24) rotate(180)"/><rect class="cls-1" x="257.45" y="50.97" width="10" height="10" transform="translate(524.89 111.95) rotate(180)"/><rect class="cls-1" x="237.45" y="50.97" width="10" height="10" transform="translate(484.89 111.95) rotate(180)"/><rect class="cls-1" x="217.45" y="60.97" width="10" height="10" transform="translate(444.89 131.95) rotate(180)"/><rect class="cls-1" x="197.45" y="80.62" width="10" height="10" transform="translate(404.89 171.24) rotate(180)"/><rect class="cls-1" x="227.45" y="60.97" width="10" height="10" transform="translate(464.89 131.95) rotate(180)"/><rect class="cls-1" x="207.45" y="70.62" width="10" height="10" transform="translate(424.89 151.24) rotate(180)"/><rect class="cls-1" x="177.45" y="90.62" width="10" height="10" transform="translate(364.89 191.24) rotate(180)"/><rect class="cls-1" x="167.45" y="90.62" width="10" height="10" transform="translate(344.89 191.24) rotate(180)"/><rect class="cls-1" x="137.45" y="110.62" width="10" height="10" transform="translate(284.89 231.24) rotate(180)"/><rect class="cls-1" x="147.45" y="110.62" width="10" height="10" transform="translate(304.89 231.24) rotate(180)"/><rect class="cls-1" x="137.45" y="120.62" width="10" height="10" transform="translate(284.89 251.24) rotate(180)"/><rect class="cls-1" x="127.45" y="130.62" width="10" height="10" transform="translate(264.89 271.24) rotate(180)"/><rect class="cls-1" x="157.45" y="100.62" width="10" height="10" transform="translate(324.89 211.24) rotate(180)"/><rect class="cls-1" x="347.45" y="32.36" width="10" height="10" transform="translate(704.89 74.72) rotate(180)"/><rect class="cls-1" x="97.45" y="170.62" width="10" height="10" transform="translate(-73.17 278.06) rotate(-90)"/><rect class="cls-1" x="67.8" y="230.62" width="10" height="10" transform="translate(-162.82 308.42) rotate(-90)"/><rect class="cls-1" x="49.18" y="320.62" width="10" height="10" transform="translate(-271.43 379.8) rotate(-90)"/><rect class="cls-1" x="57.8" y="260.62" width="10" height="10" transform="translate(-202.82 328.42) rotate(-90)"/><rect class="cls-1" x="57.8" y="250.62" width="10" height="10" transform="translate(-192.82 318.42) rotate(-90)"/><rect class="cls-1" x="53.15" y="270.62" width="10" height="10" transform="translate(-217.47 333.77) rotate(-90)"/><rect class="cls-1" x="53.15" y="280.62" width="10" height="10" transform="translate(-227.47 343.77) rotate(-90)"/><rect class="cls-1" x="49.18" y="300.62" width="10" height="10" transform="translate(-251.43 359.8) rotate(-90)"/><rect class="cls-1" x="49.18" y="290.62" width="10" height="10" transform="translate(-241.43 349.8) rotate(-90)"/><rect class="cls-1" x="49.18" y="310.62" width="10" height="10" transform="translate(-261.43 369.8) rotate(-90)"/><rect class="cls-1" x="157.45" y="100.62" width="10" height="10" transform="translate(56.83 268.06) rotate(-90)"/><rect class="cls-1" x="57.8" y="240.62" width="10" height="10" transform="translate(-182.82 308.42) rotate(-90)"/><rect class="cls-1" x="77.8" y="210.62" width="10" height="10" transform="translate(-132.82 298.42) rotate(-90)"/><rect class="cls-1" x="77.8" y="200.62" width="10" height="10" transform="translate(-122.82 288.42) rotate(-90)"/><rect class="cls-1" x="87.45" y="180.62" width="10" height="10" transform="translate(-93.17 278.06) rotate(-90)"/><rect class="cls-1" x="67.8" y="220.62" width="10" height="10" transform="translate(-152.82 298.42) rotate(-90)"/><rect class="cls-1" x="87.45" y="190.62" width="10" height="10" transform="translate(-103.17 288.06) rotate(-90)"/><rect class="cls-1" x="97.45" y="160.62" width="10" height="10" transform="translate(-63.17 268.06) rotate(-90)"/><rect class="cls-1" x="107.45" y="150.62" width="10" height="10" transform="translate(-43.17 268.06) rotate(-90)"/><rect class="cls-1" x="49.18" y="330.62" width="10" height="10" transform="translate(108.37 671.24) rotate(180)"/><rect class="cls-1" x="505.56" y="80.62" width="10" height="10"/><rect class="cls-1" x="445.56" y="50.97" width="10" height="10"/><rect class="cls-1" x="355.56" y="32.36" width="10" height="10"/><rect class="cls-1" x="415.56" y="40.97" width="10" height="10"/><rect class="cls-1" x="425.56" y="40.97" width="10" height="10"/><rect class="cls-1" x="405.56" y="38.21" width="10" height="10"/><rect class="cls-1" x="395.56" y="38.21" width="10" height="10"/><rect class="cls-1" x="375.56" y="32.36" width="10" height="10"/><rect class="cls-1" x="385.56" y="32.36" width="10" height="10"/><rect class="cls-1" x="365.56" y="32.36" width="10" height="10"/><rect class="cls-1" x="575.56" y="140.62" width="10" height="10"/><rect class="cls-1" x="435.56" y="50.97" width="10" height="10"/><rect class="cls-1" x="455.56" y="50.97" width="10" height="10"/><rect class="cls-1" x="475.56" y="60.97" width="10" height="10"/><rect class="cls-1" x="495.56" y="80.62" width="10" height="10"/><rect class="cls-1" x="465.56" y="60.97" width="10" height="10"/><rect class="cls-1" x="485.56" y="70.62" width="10" height="10"/><rect class="cls-1" x="515.56" y="90.62" width="10" height="10"/><rect class="cls-1" x="525.56" y="90.62" width="10" height="10"/><rect class="cls-1" x="555.56" y="110.62" width="10" height="10"/><rect class="cls-1" x="545.56" y="110.62" width="10" height="10"/><rect class="cls-1" x="555.56" y="120.62" width="10" height="10"/><rect class="cls-1" x="565.56" y="130.62" width="10" height="10"/><rect class="cls-1" x="535.56" y="100.62" width="10" height="10"/><rect class="cls-1" x="345.56" y="32.36" width="10" height="10"/><rect class="cls-1" x="595.56" y="170.62" width="10" height="10" transform="translate(424.94 776.18) rotate(-90)"/><rect class="cls-1" x="625.21" y="230.62" width="10" height="10" transform="translate(394.59 865.83) rotate(-90)"/><rect class="cls-1" x="643.82" y="320.62" width="10" height="10" transform="translate(323.2 974.44) rotate(-90)"/><rect class="cls-1" x="635.21" y="260.62" width="10" height="10" transform="translate(374.59 905.83) rotate(-90)"/><rect class="cls-1" x="635.21" y="250.62" width="10" height="10" transform="translate(384.59 895.83) rotate(-90)"/><rect class="cls-1" x="639.86" y="270.62" width="10" height="10" transform="translate(369.24 920.48) rotate(-90)"/><rect class="cls-1" x="639.86" y="280.62" width="10" height="10" transform="translate(359.24 930.48) rotate(-90)"/><rect class="cls-1" x="643.82" y="300.62" width="10" height="10" transform="translate(343.2 954.44) rotate(-90)"/><rect class="cls-1" x="643.82" y="290.62" width="10" height="10" transform="translate(353.2 944.44) rotate(-90)"/><rect class="cls-1" x="643.82" y="310.62" width="10" height="10" transform="translate(333.2 964.44) rotate(-90)"/><rect class="cls-1" x="535.56" y="100.62" width="10" height="10" transform="translate(434.94 646.18) rotate(-90)"/><rect class="cls-1" x="635.21" y="240.62" width="10" height="10" transform="translate(394.59 885.83) rotate(-90)"/><rect class="cls-1" x="615.21" y="210.62" width="10" height="10" transform="translate(404.59 835.83) rotate(-90)"/><rect class="cls-1" x="615.21" y="200.62" width="10" height="10" transform="translate(414.59 825.83) rotate(-90)"/><rect class="cls-1" x="605.56" y="180.62" width="10" height="10" transform="translate(424.94 796.18) rotate(-90)"/><rect class="cls-1" x="625.21" y="220.62" width="10" height="10" transform="translate(404.59 855.83) rotate(-90)"/><rect class="cls-1" x="605.56" y="190.62" width="10" height="10" transform="translate(414.94 806.18) rotate(-90)"/><rect class="cls-1" x="595.56" y="160.62" width="10" height="10" transform="translate(434.94 766.18) rotate(-90)"/><rect class="cls-1" x="585.56" y="150.62" width="10" height="10" transform="translate(434.94 746.18) rotate(-90)"/><rect class="cls-1" x="643.82" y="330.62" width="10" height="10"/><rect class="cls-1" x="187.45" y="584.62" width="10" height="10" transform="translate(384.89 1179.24) rotate(180)"/><rect class="cls-1" x="247.45" y="614.26" width="10" height="10" transform="translate(504.89 1238.53) rotate(180)"/><rect class="cls-1" x="337.45" y="632.88" width="10" height="10" transform="translate(684.89 1275.76) rotate(180)"/><rect class="cls-1" x="277.45" y="624.26" width="10" height="10" transform="translate(564.89 1258.53) rotate(180)"/><rect class="cls-1" x="267.45" y="624.26" width="10" height="10" transform="translate(544.89 1258.53) rotate(180)"/><rect class="cls-1" x="287.45" y="627.03" width="10" height="10" transform="translate(584.89 1264.05) rotate(180)"/><rect class="cls-1" x="297.45" y="627.03" width="10" height="10" transform="translate(604.89 1264.05) rotate(180)"/><rect class="cls-1" x="317.45" y="632.88" width="10" height="10" transform="translate(644.89 1275.76) rotate(180)"/><rect class="cls-1" x="307.45" y="632.88" width="10" height="10" transform="translate(624.89 1275.76) rotate(180)"/><rect class="cls-1" x="327.45" y="632.88" width="10" height="10" transform="translate(664.89 1275.76) rotate(180)"/><rect class="cls-1" x="117.45" y="524.62" width="10" height="10" transform="translate(244.89 1059.24) rotate(180)"/><rect class="cls-1" x="257.45" y="614.26" width="10" height="10" transform="translate(524.89 1238.53) rotate(180)"/><rect class="cls-1" x="237.45" y="614.26" width="10" height="10" transform="translate(484.89 1238.53) rotate(180)"/><rect class="cls-1" x="217.45" y="604.26" width="10" height="10" transform="translate(444.89 1218.53) rotate(180)"/><rect class="cls-1" x="197.45" y="584.62" width="10" height="10" transform="translate(404.89 1179.24) rotate(180)"/><rect class="cls-1" x="227.45" y="604.26" width="10" height="10" transform="translate(464.89 1218.53) rotate(180)"/><rect class="cls-1" x="207.45" y="594.62" width="10" height="10" transform="translate(424.89 1199.24) rotate(180)"/><rect class="cls-1" x="177.45" y="574.62" width="10" height="10" transform="translate(364.89 1159.24) rotate(180)"/><rect class="cls-1" x="167.45" y="574.62" width="10" height="10" transform="translate(344.89 1159.24) rotate(180)"/><rect class="cls-1" x="137.45" y="554.62" width="10" height="10" transform="translate(284.89 1119.24) rotate(180)"/><rect class="cls-1" x="147.45" y="554.62" width="10" height="10" transform="translate(304.89 1119.24) rotate(180)"/><rect class="cls-1" x="137.45" y="544.62" width="10" height="10" transform="translate(284.89 1099.24) rotate(180)"/><rect class="cls-1" x="127.45" y="534.62" width="10" height="10" transform="translate(264.89 1079.24) rotate(180)"/><rect class="cls-1" x="157.45" y="564.62" width="10" height="10" transform="translate(324.89 1139.24) rotate(180)"/><rect class="cls-1" x="347.45" y="632.88" width="10" height="10" transform="translate(704.89 1275.76) rotate(180)"/><rect class="cls-1" x="97.45" y="494.62" width="10" height="10" transform="translate(602.06 397.17) rotate(90)"/><rect class="cls-1" x="67.8" y="434.62" width="10" height="10" transform="translate(512.42 366.82) rotate(90)"/><rect class="cls-1" x="49.18" y="344.62" width="10" height="10" transform="translate(403.8 295.43) rotate(90)"/><rect class="cls-1" x="57.8" y="404.62" width="10" height="10" transform="translate(472.42 346.82) rotate(90)"/><rect class="cls-1" x="57.8" y="414.62" width="10" height="10" transform="translate(482.42 356.82) rotate(90)"/><rect class="cls-1" x="53.15" y="394.62" width="10" height="10" transform="translate(457.77 341.47) rotate(90)"/><rect class="cls-1" x="53.15" y="384.62" width="10" height="10" transform="translate(447.77 331.47) rotate(90)"/><rect class="cls-1" x="49.18" y="364.62" width="10" height="10" transform="translate(423.8 315.43) rotate(90)"/><rect class="cls-1" x="49.18" y="374.62" width="10" height="10" transform="translate(433.8 325.43) rotate(90)"/><rect class="cls-1" x="49.18" y="354.62" width="10" height="10" transform="translate(413.8 305.43) rotate(90)"/><rect class="cls-1" x="157.45" y="564.62" width="10" height="10" transform="translate(732.06 407.17) rotate(90)"/><rect class="cls-1" x="57.8" y="424.62" width="10" height="10" transform="translate(492.42 366.82) rotate(90)"/><rect class="cls-1" x="77.8" y="454.62" width="10" height="10" transform="translate(542.42 376.82) rotate(90)"/><rect class="cls-1" x="77.8" y="464.62" width="10" height="10" transform="translate(552.42 386.82) rotate(90)"/><rect class="cls-1" x="87.45" y="484.62" width="10" height="10" transform="translate(582.06 397.17) rotate(90)"/><rect class="cls-1" x="67.8" y="444.62" width="10" height="10" transform="translate(522.42 376.82) rotate(90)"/><rect class="cls-1" x="87.45" y="474.62" width="10" height="10" transform="translate(572.06 387.17) rotate(90)"/><rect class="cls-1" x="97.45" y="504.62" width="10" height="10" transform="translate(612.06 407.17) rotate(90)"/><rect class="cls-1" x="107.45" y="514.62" width="10" height="10" transform="translate(632.06 407.17) rotate(90)"/><rect class="cls-1" x="49.18" y="334.62" width="10" height="10" transform="translate(108.37 679.24) rotate(180)"/><rect class="cls-1" x="505.56" y="584.62" width="10" height="10"/><rect class="cls-1" x="445.56" y="614.26" width="10" height="10"/><rect class="cls-1" x="355.56" y="632.88" width="10" height="10"/><rect class="cls-1" x="415.56" y="624.26" width="10" height="10"/><rect class="cls-1" x="425.56" y="624.26" width="10" height="10"/><rect class="cls-1" x="405.56" y="627.03" width="10" height="10"/><rect class="cls-1" x="395.56" y="627.03" width="10" height="10"/><rect class="cls-1" x="375.56" y="632.88" width="10" height="10"/><rect class="cls-1" x="385.56" y="632.88" width="10" height="10"/><rect class="cls-1" x="365.56" y="632.88" width="10" height="10"/><rect class="cls-1" x="575.56" y="524.62" width="10" height="10"/><rect class="cls-1" x="435.56" y="614.26" width="10" height="10"/><rect class="cls-1" x="455.56" y="614.26" width="10" height="10"/><rect class="cls-1" x="475.56" y="604.26" width="10" height="10"/><rect class="cls-1" x="495.56" y="584.62" width="10" height="10"/><rect class="cls-1" x="465.56" y="604.26" width="10" height="10"/><rect class="cls-1" x="485.56" y="594.62" width="10" height="10"/><rect class="cls-1" x="515.56" y="574.62" width="10" height="10"/><rect class="cls-1" x="525.56" y="574.62" width="10" height="10"/><rect class="cls-1" x="555.56" y="554.62" width="10" height="10"/><rect class="cls-1" x="545.56" y="554.62" width="10" height="10"/><rect class="cls-1" x="555.56" y="544.62" width="10" height="10"/><rect class="cls-1" x="565.56" y="534.62" width="10" height="10"/><rect class="cls-1" x="535.56" y="564.62" width="10" height="10"/><rect class="cls-1" x="345.56" y="632.88" width="10" height="10"/><rect class="cls-1" x="595.56" y="494.62" width="10" height="10" transform="translate(1100.18 -100.95) rotate(90)"/><rect class="cls-1" x="625.21" y="434.62" width="10" height="10" transform="translate(1069.83 -190.59) rotate(90)"/><rect class="cls-1" x="643.82" y="344.62" width="10" height="10" transform="translate(998.44 -299.21) rotate(90)"/><rect class="cls-1" x="635.21" y="404.62" width="10" height="10" transform="translate(1049.83 -230.59) rotate(90)"/><rect class="cls-1" x="635.21" y="414.62" width="10" height="10" transform="translate(1059.83 -220.59) rotate(90)"/><rect class="cls-1" x="639.86" y="394.62" width="10" height="10" transform="translate(1044.47 -245.24) rotate(90)"/><rect class="cls-1" x="639.86" y="384.62" width="10" height="10" transform="translate(1034.47 -255.24) rotate(90)"/><rect class="cls-1" x="643.82" y="364.62" width="10" height="10" transform="translate(1018.44 -279.21) rotate(90)"/><rect class="cls-1" x="643.82" y="374.62" width="10" height="10" transform="translate(1028.44 -269.21) rotate(90)"/><rect class="cls-1" x="643.82" y="354.62" width="10" height="10" transform="translate(1008.44 -289.21) rotate(90)"/><rect class="cls-1" x="535.56" y="564.62" width="10" height="10" transform="translate(1110.18 29.05) rotate(90)"/><rect class="cls-1" x="635.21" y="424.62" width="10" height="10" transform="translate(1069.83 -210.59) rotate(90)"/><rect class="cls-1" x="615.21" y="454.62" width="10" height="10" transform="translate(1079.83 -160.59) rotate(90)"/><rect class="cls-1" x="615.21" y="464.62" width="10" height="10" transform="translate(1089.83 -150.59) rotate(90)"/><rect class="cls-1" x="605.56" y="484.62" width="10" height="10" transform="translate(1100.18 -120.95) rotate(90)"/><rect class="cls-1" x="625.21" y="444.62" width="10" height="10" transform="translate(1079.83 -180.59) rotate(90)"/><rect class="cls-1" x="605.56" y="474.62" width="10" height="10" transform="translate(1090.18 -130.95) rotate(90)"/><rect class="cls-1" x="595.56" y="504.62" width="10" height="10" transform="translate(1110.18 -90.95) rotate(90)"/><rect class="cls-1" x="585.56" y="514.62" width="10" height="10" transform="translate(1110.18 -70.95) rotate(90)"/><rect class="cls-1" x="643.82" y="334.62" width="10" height="10"/><rect class="cls-2" x="145.11" y="240.21" width="13.85" height="13.85"/><rect class="cls-2" x="145.11" y="283.05" width="13.85" height="13.85"/><rect class="cls-2" x="122.18" y="261.05" width="13.85" height="13.85" transform="translate(-138.87 397.08) rotate(-90)"/><rect class="cls-2" x="167.03" y="261.05" width="13.85" height="13.85"/><rect class="cls-6" x="415.64" y="548.62" width="10" height="10" transform="translate(743.53 1169.39) rotate(-170.44)"/><rect class="cls-6" x="427.16" y="540.42" width="10" height="10" transform="translate(767.77 1155.02) rotate(-170.44)"/><rect class="cls-6" x="437.02" y="542.08" width="10" height="10" transform="translate(787.08 1159.95) rotate(-170.44)"/><rect class="cls-6" x="448.54" y="533.88" width="10" height="10" transform="translate(811.32 1145.58) rotate(-170.44)"/><rect class="cls-6" x="459.86" y="525.96" width="10" height="10" transform="translate(835.13 1131.73) rotate(-170.44)"/><rect class="cls-6" x="471.38" y="517.76" width="10" height="10" transform="translate(859.37 1117.36) rotate(-170.44)"/><rect class="cls-2" x="416.53" y="474.88" width="13.85" height="13.85" transform="translate(-216.66 440.54) rotate(-45)"/><rect class="cls-2" x="406.74" y="465.09" width="13.85" height="13.85" transform="translate(-212.6 430.75) rotate(-45)"/><rect class="cls-2" x="426.32" y="465.09" width="13.85" height="13.85" transform="translate(-206.87 444.6) rotate(-45)"/><rect class="cls-2" x="406.74" y="484.67" width="13.85" height="13.85" transform="translate(-226.45 436.49) rotate(-45)"/><rect class="cls-2" x="426.32" y="484.67" width="13.85" height="13.85" transform="translate(-220.71 450.33) rotate(-45)"/><rect class="cls-6" x="148.34" y="177.27" width="10" height="10" transform="translate(353.88 53.74) rotate(97.42)"/><rect class="cls-6" x="159.55" y="168.65" width="10" height="10" transform="translate(357.98 32.89) rotate(97.42)"/><rect class="cls-6" x="160.84" y="158.73" width="10" height="10" transform="translate(349.61 20.41) rotate(97.42)"/><rect class="cls-6" x="172.05" y="150.1" width="10" height="10" transform="translate(353.71 -.44) rotate(97.42)"/><rect class="cls-6" x="182.93" y="141.58" width="10" height="10" transform="translate(357.54 -20.85) rotate(97.42)"/></svg>