<?xml version="1.0" encoding="UTF-8"?>
<svg id="_图层_1" data-name="图层 1" xmlns="http://www.w3.org/2000/svg" viewBox="0 0 228.19 253.45">
  <defs>
    <style>
      .cls-1 {
        fill: #b7e2f9;
      }
    </style>
  </defs>
  <rect class="cls-1" x="105.05" y="188.5" width="10" height="10" transform="translate(303.54 83.45) rotate(90)"/>
  <rect class="cls-1" x="149.14" y="154.57" width="10" height="10" transform="translate(313.7 5.43) rotate(90)"/>
  <rect class="cls-1" x="105.7" y="98.9" width="10" height="10" transform="translate(214.6 -6.8) rotate(90)"/>
  <rect class="cls-1" x="145.7" y="94.57" width="10" height="10" transform="translate(250.27 -51.13) rotate(90)"/>
  <rect class="cls-1" x="152.6" y="84.57" width="10" height="10" transform="translate(247.16 -68.03) rotate(90)"/>
  <rect class="cls-1" x="145.7" y="84.57" width="10" height="10" transform="translate(240.27 -61.13) rotate(90)"/>
  <rect class="cls-1" x="105.7" y="138.9" width="10" height="10" transform="translate(254.6 33.2) rotate(90)"/>
  <rect class="cls-1" x="105.7" y="118.9" width="10" height="10" transform="translate(234.6 13.2) rotate(90)"/>
  <rect class="cls-1" x="105.7" y="128.9" width="10" height="10" transform="translate(244.6 23.2) rotate(90)"/>
  <rect class="cls-1" x="105.7" y="108.9" width="10" height="10" transform="translate(224.6 3.2) rotate(90)"/>
  <rect class="cls-1" x="61.28" y="217.94" width="10" height="10" transform="translate(289.22 156.66) rotate(90)"/>
  <rect class="cls-1" x="152.6" y="104.57" width="10" height="10" transform="translate(267.16 -48.03) rotate(90)"/>
  <rect class="cls-1" x="81.28" y="207.94" width="10" height="10" transform="translate(299.22 126.66) rotate(90)"/>
  <rect class="cls-1" x="135.7" y="68.89" width="10" height="10" transform="translate(214.59 -66.81) rotate(90)"/>
  <rect class="cls-1" x="105.05" y="178.5" width="10" height="10" transform="translate(293.54 73.45) rotate(90)"/>
  <rect class="cls-1" x="81.28" y="217.94" width="10" height="10" transform="translate(309.22 136.66) rotate(90)"/>
  <rect class="cls-1" x="71.28" y="217.94" width="10" height="10" transform="translate(299.22 146.66) rotate(90)"/>
  <rect class="cls-1" x="115.7" y="68.89" width="10" height="10" transform="translate(241.4 147.79) rotate(180)"/>
  <rect class="cls-1" x="145.7" y="104.57" width="10" height="10" transform="translate(301.4 219.13) rotate(180)"/>
  <rect class="cls-1" x="125.7" y="68.89" width="10" height="10" transform="translate(261.4 147.79) rotate(180)"/>
  <rect class="cls-1" x="61.28" y="207.94" width="10" height="10" transform="translate(279.22 146.66) rotate(90)"/>
  <rect class="cls-1" x="71.28" y="207.94" width="10" height="10" transform="translate(289.22 136.66) rotate(90)"/>
  <rect class="cls-1" x="65.05" y="197.94" width="10" height="10" transform="translate(272.99 132.89) rotate(90)"/>
  <rect class="cls-1" x="45.05" y="197.94" width="10" height="10" transform="translate(252.99 152.89) rotate(90)"/>
  <rect class="cls-1" x="55.05" y="197.94" width="10" height="10" transform="translate(262.99 142.89) rotate(90)"/>
  <rect class="cls-1" x="95.05" y="197.94" width="10" height="10" transform="translate(302.99 102.89) rotate(90)"/>
  <rect class="cls-1" x="75.05" y="197.94" width="10" height="10" transform="translate(282.99 122.89) rotate(90)"/>
  <rect class="cls-1" x="85.05" y="197.94" width="10" height="10" transform="translate(292.99 112.89) rotate(90)"/>
  <rect class="cls-1" x="65.05" y="188.5" width="10" height="10" transform="translate(263.54 123.45) rotate(90)"/>
  <rect class="cls-1" x="45.05" y="188.5" width="10" height="10" transform="translate(243.54 143.45) rotate(90)"/>
  <rect class="cls-1" x="55.05" y="188.5" width="10" height="10" transform="translate(253.54 133.45) rotate(90)"/>
  <rect class="cls-1" x="95.05" y="188.5" width="10" height="10" transform="translate(293.54 93.45) rotate(90)"/>
  <rect class="cls-1" x="75.05" y="188.5" width="10" height="10" transform="translate(273.54 113.45) rotate(90)"/>
  <rect class="cls-1" x="85.05" y="188.5" width="10" height="10" transform="translate(283.54 103.45) rotate(90)"/>
  <rect class="cls-1" x="65.05" y="178.5" width="10" height="10" transform="translate(253.54 113.45) rotate(90)"/>
  <rect class="cls-1" x="45.05" y="178.5" width="10" height="10" transform="translate(233.54 133.45) rotate(90)"/>
  <rect class="cls-1" x="55.05" y="178.5" width="10" height="10" transform="translate(243.54 123.45) rotate(90)"/>
  <rect class="cls-1" x="95.05" y="178.5" width="10" height="10" transform="translate(283.54 83.45) rotate(90)"/>
  <rect class="cls-1" x="75.05" y="178.5" width="10" height="10" transform="translate(263.54 103.45) rotate(90)"/>
  <rect class="cls-1" x="85.05" y="178.5" width="10" height="10" transform="translate(273.54 93.45) rotate(90)"/>
  <rect class="cls-1" x="111.28" y="168.5" width="10" height="10" transform="translate(289.77 57.22) rotate(90)"/>
  <rect class="cls-1" x="71.28" y="168.5" width="10" height="10" transform="translate(249.77 97.22) rotate(90)"/>
  <rect class="cls-1" x="61.28" y="168.5" width="10" height="10" transform="translate(239.77 107.22) rotate(90)"/>
  <rect class="cls-1" x="101.28" y="168.5" width="10" height="10" transform="translate(279.77 67.22) rotate(90)"/>
  <rect class="cls-1" x="81.28" y="168.5" width="10" height="10" transform="translate(259.77 87.22) rotate(90)"/>
  <rect class="cls-1" x="91.28" y="168.5" width="10" height="10" transform="translate(269.77 77.22) rotate(90)"/>
  <rect class="cls-1" x="105.7" y="158.5" width="10" height="10" transform="translate(274.2 52.8) rotate(90)"/>
  <rect class="cls-1" x="95.7" y="158.5" width="10" height="10" transform="translate(264.2 62.8) rotate(90)"/>
  <rect class="cls-1" x="75.7" y="158.5" width="10" height="10" transform="translate(244.2 82.8) rotate(90)"/>
  <rect class="cls-1" x="85.7" y="158.5" width="10" height="10" transform="translate(254.2 72.8) rotate(90)"/>
  <rect class="cls-1" x="152.6" y="94.57" width="10" height="10" transform="translate(257.16 -58.03) rotate(90)"/>
  <rect class="cls-1" x="105.7" y="148.5" width="10" height="10" transform="translate(264.2 42.8) rotate(90)"/>
  <rect class="cls-1" x="85.7" y="148.5" width="10" height="10" transform="translate(244.2 62.8) rotate(90)"/>
  <rect class="cls-1" x="95.7" y="148.5" width="10" height="10" transform="translate(254.2 52.8) rotate(90)"/>
  <rect class="cls-1" x="105.7" y="88.89" width="10" height="10" transform="translate(204.59 -16.81) rotate(90)"/>
  <rect class="cls-1" x="105.7" y="68.89" width="10" height="10" transform="translate(184.59 -36.81) rotate(90)"/>
  <rect class="cls-1" x="105.7" y="78.89" width="10" height="10" transform="translate(194.59 -26.81) rotate(90)"/>
  <rect class="cls-1" x="105.7" y="58.89" width="10" height="10" transform="translate(174.59 -46.81) rotate(90)"/>
  <rect class="cls-1" x="105.7" y="49.42" width="10" height="10" transform="translate(165.12 -56.28) rotate(90)"/>
  <rect class="cls-1" x="105.7" y="39.42" width="10" height="10" transform="translate(155.12 -66.28) rotate(90)"/>
  <rect class="cls-1" x="98.32" y="98.5" width="10" height="10" transform="translate(206.81 .18) rotate(90)"/>
  <rect class="cls-1" x="98.32" y="138.5" width="10" height="10" transform="translate(246.81 40.18) rotate(90)"/>
  <rect class="cls-1" x="98.32" y="118.5" width="10" height="10" transform="translate(226.81 20.18) rotate(90)"/>
  <rect class="cls-1" x="98.32" y="128.5" width="10" height="10" transform="translate(236.81 30.18) rotate(90)"/>
  <rect class="cls-1" x="98.32" y="108.5" width="10" height="10" transform="translate(216.81 10.18) rotate(90)"/>
  <rect class="cls-1" x="98.32" y="88.49" width="10" height="10" transform="translate(196.81 -9.83) rotate(90)"/>
  <rect class="cls-1" x="98.32" y="68.49" width="10" height="10" transform="translate(176.81 -29.83) rotate(90)"/>
  <rect class="cls-1" x="98.32" y="78.49" width="10" height="10" transform="translate(186.81 -19.83) rotate(90)"/>
  <rect class="cls-1" x="98.32" y="58.48" width="10" height="10" transform="translate(166.8 -39.83) rotate(90)"/>
  <rect class="cls-1" x="98.32" y="49.02" width="10" height="10" transform="translate(157.34 -49.29) rotate(90)"/>
  <rect class="cls-1" x="98.32" y="39.42" width="10" height="10" transform="translate(147.73 -58.9) rotate(90)"/>
  <rect class="cls-1" x="135.7" y="78.89" width="10" height="10" transform="translate(224.59 -56.81) rotate(90)"/>
  <rect class="cls-1" x="115.7" y="78.89" width="10" height="10" transform="translate(241.4 167.79) rotate(180)"/>
  <rect class="cls-1" x="125.7" y="78.89" width="10" height="10" transform="translate(261.4 167.79) rotate(180)"/>
  <rect class="cls-1" x="159.14" y="124.57" width="10" height="10" transform="translate(293.7 -34.57) rotate(90)"/>
  <rect class="cls-1" x="166.03" y="114.57" width="10" height="10" transform="translate(290.6 -51.47) rotate(90)"/>
  <rect class="cls-1" x="159.14" y="114.57" width="10" height="10" transform="translate(283.7 -44.57) rotate(90)"/>
  <rect class="cls-1" x="166.03" y="134.57" width="10" height="10" transform="translate(310.6 -31.47) rotate(90)"/>
  <rect class="cls-1" x="159.14" y="134.57" width="10" height="10" transform="translate(328.27 279.13) rotate(180)"/>
  <rect class="cls-1" x="166.03" y="124.57" width="10" height="10" transform="translate(300.6 -41.47) rotate(90)"/>
  <rect class="cls-1" x="166.03" y="144.57" width="10" height="10" transform="translate(320.6 -21.47) rotate(90)"/>
  <rect class="cls-1" x="159.14" y="144.57" width="10" height="10" transform="translate(328.27 299.13) rotate(180)"/>
</svg>