<?xml version="1.0" encoding="UTF-8"?>
<svg id="_图层_1" data-name="图层 1" xmlns="http://www.w3.org/2000/svg" viewBox="0 0 751.68 416.11">
  <defs>
    <style>
      .cls-1 {
        fill: #ff679b;
      }
    </style>
  </defs>
  <polygon class="cls-1" points="19.75 64.25 53.34 64.25 53.34 79.66 19.75 79.66 19.75 105.34 2.09 105.34 2.09 33.65 57.52 33.65 57.52 49.16 19.75 49.16 19.75 64.25"/>
  <path class="cls-1" d="M118.83,51.62v4.28c-4.17-3.74-9.74-5.88-16.69-5.88-14.23,0-26.21,11.56-26.21,28.46s11.98,28.46,26.21,28.46c6.95,0,12.52-2.14,16.69-5.88v4.28h17.12v-53.71h-17.12ZM105.67,92.39c-7.49,0-12.95-5.56-12.95-13.91s5.46-13.91,12.95-13.91c6.95,0,13.16,5.67,13.16,13.91s-6.21,13.91-13.16,13.91Z"/>
  <path class="cls-1" d="M203.14,102.98c-4.17,2.25-8.56,3.96-14.66,3.96-13.37,0-21.4-7.28-21.4-21.4v-20.33h-9.74v-13.59h9.74v-15.83h17.12v15.83h15.84v13.59h-15.84v18.62c0,5.56,2.68,7.81,7.17,7.81,2.35,0,5.56-.86,7.81-2.14l3.96,13.48Z"/>
  <path class="cls-1" d="M276.22,78.48c-.32-17.55-12.52-28.46-27.71-28.46s-28.46,11.56-28.46,28.46,12.84,28.46,28.35,28.46c12.3,0,22.04-5.46,26.64-16.8l-15.19-3.1c-2.89,5.24-7.49,6.21-11.45,6.21-5.78,0-10.16-3.96-11.56-10.38h39.37v-4.39ZM237.17,72.38c1.61-5.46,6.53-8.45,11.34-8.45s9.2,2.67,10.81,8.45h-22.15Z"/>
  <path class="cls-1" d="M35.9,178.42c-6.95,0-12.52,2.14-16.69,5.88v-27.6H2.09v77.04h17.12v-4.28c4.17,3.74,9.74,5.88,16.69,5.88,14.23,0,26.21-11.45,26.21-28.46s-11.98-28.46-26.21-28.46ZM32.37,220.79c-6.95,0-13.16-5.56-13.16-13.91s6.21-13.91,13.16-13.91c7.49,0,12.95,5.67,12.95,13.91s-5.46,13.91-12.95,13.91Z"/>
  <path class="cls-1" d="M125.46,179.7l-.75,17.12h-3.1c-11.98,0-18.51,6.21-18.51,20.11v16.8h-17.12v-53.71h17.12v10.27c3.85-6.42,9.74-11.02,18.51-11.02,1.5,0,2.57.11,3.85.43Z"/>
  <path class="cls-1" d="M167.08,164.19c0,5.46-4.17,9.52-9.95,9.52s-9.84-4.07-9.84-9.52,4.07-9.74,9.84-9.74,9.95,4.49,9.95,9.74Z"/>
  <rect class="cls-1" x="148.57" y="180.02" width="17.12" height="53.71"/>
  <path class="cls-1" d="M248.4,200.78v32.96h-17.01v-29.32c0-6.31-3.74-10.59-9.2-10.59-6.74,0-11.13,4.6-11.13,14.98v24.93h-17.12v-53.71h17.12v5.13c4.07-4.28,9.74-6.74,16.48-6.74,12.52,0,20.86,8.88,20.86,22.36Z"/>
  <path class="cls-1" d="M313.57,180.02v3.53c-3.85-3.32-9.2-5.14-16.16-5.14-14.02,0-25.89,11.02-25.89,25.89s11.88,26.32,25.89,26.32c6.95,0,12.3-1.82,16.16-5.13v1.5c0,8.45-5.56,13.05-13.37,13.05-5.56,0-8.56-1.82-12.62-6.63l-14.23,7.7c5.24,8.67,14.66,12.95,26.96,12.95,17.44,0,30.07-9.09,30.07-25.68v-48.36h-16.8ZM301.05,216.62c-7.49,0-12.84-5.14-12.84-12.3s5.35-12.2,12.84-12.2c6.85,0,12.52,5.03,12.52,12.2s-5.67,12.3-12.52,12.3Z"/>
  <path class="cls-1" d="M370.92,216.3c.75,4.6,4.92,6.31,9.52,6.31s6.95-1.93,6.95-4.28c0-1.82-1.39-3.21-5.35-3.96l-10.91-2.14c-9.95-1.82-15.62-7.17-15.62-15.62,0-11.02,9.52-18.19,23.11-18.19s22.25,6.1,24.4,15.41l-15.62,3.1c-.54-3.32-3.74-6.31-8.99-6.31-4.6,0-6.1,2.25-6.1,4.17,0,1.5.64,3,4.07,3.74l12.63,2.57c10.16,2.14,14.87,8.24,14.87,16.16,0,11.88-10.27,18.08-24.39,18.08-12.63,0-23.43-4.6-25.25-15.62l16.69-3.42Z"/>
  <path class="cls-1" d="M55.8,362.14h-17.12v-5.14c-4.07,4.28-9.74,6.74-16.48,6.74-12.52,0-20.86-8.88-20.86-22.36v-32.95h17.01v29.32c0,6.31,3.74,10.59,9.2,10.59,6.74,0,11.13-4.6,11.13-14.98v-24.93h17.12v53.71Z"/>
  <path class="cls-1" d="M95.93,344.7c.75,4.6,4.92,6.31,9.52,6.31s6.95-1.93,6.95-4.28c0-1.82-1.39-3.21-5.35-3.96l-10.91-2.14c-9.95-1.82-15.62-7.17-15.62-15.62,0-11.02,9.52-18.19,23.11-18.19s22.25,6.1,24.4,15.41l-15.62,3.1c-.53-3.32-3.74-6.31-8.99-6.31-4.6,0-6.1,2.25-6.1,4.17,0,1.5.64,3,4.07,3.75l12.62,2.57c10.16,2.14,14.87,8.24,14.87,16.16,0,11.88-10.27,18.08-24.39,18.08-12.63,0-23.43-4.6-25.25-15.62l16.69-3.42Z"/>
  <path class="cls-1" d="M232.57,359.78c-4.17,2.25-8.56,3.96-14.66,3.96-13.37,0-21.4-7.28-21.4-21.4v-20.33h-9.74v-13.59h9.74v-15.83h17.12v15.83h15.84v13.59h-15.84v18.62c0,5.56,2.67,7.81,7.17,7.81,2.35,0,5.56-.86,7.81-2.14l3.96,13.48Z"/>
  <path class="cls-1" d="M279.22,307.03c-16.26,0-29.74,11.34-29.74,28.25s13.48,28.35,29.74,28.35,29.42-11.34,29.42-28.35-13.48-28.25-29.42-28.25ZM279.22,349.19c-6.95,0-13.27-5.46-13.27-13.91s6.31-13.91,13.27-13.91,12.95,5.56,12.95,13.91-6.31,13.91-12.95,13.91Z"/>
  <path class="cls-1" d="M371.03,308.42v3.53c-3.85-3.32-9.2-5.13-16.16-5.13-14.02,0-25.89,11.02-25.89,25.89s11.88,26.32,25.89,26.32c6.95,0,12.3-1.82,16.16-5.14v1.5c0,8.45-5.56,13.05-13.37,13.05-5.56,0-8.56-1.82-12.62-6.63l-14.23,7.7c5.24,8.67,14.66,12.95,26.96,12.95,17.44,0,30.07-9.09,30.07-25.68v-48.36h-16.8ZM358.51,345.02c-7.49,0-12.84-5.14-12.84-12.3s5.35-12.2,12.84-12.2c6.85,0,12.52,5.03,12.52,12.2s-5.67,12.3-12.52,12.3Z"/>
  <path class="cls-1" d="M467.97,335.28c-.32-17.55-12.52-28.46-27.71-28.46s-28.46,11.55-28.46,28.46,12.84,28.46,28.35,28.46c12.3,0,22.04-5.46,26.64-16.8l-15.19-3.1c-2.89,5.24-7.49,6.21-11.45,6.21-5.78,0-10.16-3.96-11.56-10.38h39.37v-4.39ZM428.91,329.18c1.6-5.46,6.53-8.45,11.34-8.45s9.2,2.67,10.81,8.45h-22.15Z"/>
  <path class="cls-1" d="M531.63,359.78c-4.17,2.25-8.56,3.96-14.66,3.96-13.37,0-21.4-7.28-21.4-21.4v-20.33h-9.74v-13.59h9.74v-15.83h17.12v15.83h15.84v13.59h-15.84v18.62c0,5.56,2.67,7.81,7.17,7.81,2.35,0,5.56-.86,7.81-2.14l3.96,13.48Z"/>
  <path class="cls-1" d="M607.6,329.18v32.96h-17.01v-29.32c0-6.31-3.75-10.59-9.31-10.59-6.63,0-11.02,4.6-11.02,14.98v24.93h-17.12v-77.04h17.12v28.46c4.17-4.28,9.74-6.74,16.58-6.74,12.41,0,20.76,8.88,20.76,22.36Z"/>
  <path class="cls-1" d="M686.99,335.28c-.32-17.55-12.52-28.46-27.71-28.46s-28.46,11.55-28.46,28.46,12.84,28.46,28.35,28.46c12.3,0,22.04-5.46,26.64-16.8l-15.19-3.1c-2.89,5.24-7.49,6.21-11.45,6.21-5.78,0-10.16-3.96-11.56-10.38h39.37v-4.39ZM647.94,329.18c1.6-5.46,6.53-8.45,11.34-8.45s9.2,2.67,10.81,8.45h-22.15Z"/>
  <path class="cls-1" d="M750.34,308.1l-.75,17.12h-3.1c-11.98,0-18.51,6.21-18.51,20.12v16.8h-17.12v-53.71h17.12v10.27c3.85-6.42,9.74-11.02,18.51-11.02,1.5,0,2.57.11,3.85.43Z"/>
</svg>