<?xml version="1.0" encoding="UTF-8"?>
<svg id="_图层_1" data-name="图层 1" xmlns="http://www.w3.org/2000/svg" viewBox="0 0 507.69 121.69">
  <defs>
    <style>
      .cls-1 {
        fill: #00a0e7;
      }
    </style>
  </defs>
  <path class="cls-1" d="M100.68,78.98c0,.13-.07.45-.19.96l-.19.96c-.26.51-.64,1.47-1.15,2.87-.51,1.4-.89,2.49-1.15,3.26-.64,1.15-1.28,1.88-1.92,2.2-.64.32-1.24.41-1.82.29-.57-.13-1.12-.45-1.63-.96-.77-1.15-.64-2.24.38-3.26.51-.64.83-1.21.96-1.72l1.92-5.94c.38-.89.13-1.47-.77-1.72l-3.64-1.34c-1.41-.89-1.88-1.94-1.44-3.16.45-1.21,1.44-1.63,2.97-1.25l3.83,1.53.38-.19.77-8.43c.25-1.15-.32-2.11-1.72-2.87-2.04-1.27-5.11-2.3-9.19-3.06l-2.3-.58c-.77-.38-1.24-.77-1.44-1.15s-.26-.86-.19-1.44c.06-.57.35-.99.86-1.24.51-.25,1.02-.38,1.53-.38,5.36.64,9.77,1.98,13.21,4.02,2.94,1.79,4.34,4.4,4.21,7.85-.13,3.45-.45,6.26-.96,8.43l.19.57c-.13.64-.13,1.05,0,1.24.13.19.45.42.96.67l3.45,1.34.96.58c1.27.64,1.69,1.56,1.24,2.78-.45,1.21-1.31,1.69-2.58,1.44l-3.45-1.15-2.11-1.15Z"/>
  <path class="cls-1" d="M120.21,42.79c.25,0,.67.03,1.24.1.57.07,1.05-.1,1.44-.48l10.34-1.53c1.15-.25,2.68-.32,4.6-.19,3.83.64,6,2.75,6.51,6.32l-.19,4.98c0,.38-.19.83-.57,1.34-.26,1.15-1.21,1.66-2.87,1.53-1.02-.64-1.47-1.59-1.34-2.87.13-1.27.13-2.36,0-3.25-.26-2.3-1.34-3.45-3.26-3.45-1.28,0-3.38.32-6.32.96l-9,1.15c-.77.13-1.09.58-.96,1.34l-.19,4.6c.13.38.06.77-.19,1.15,0,1.15-.74,1.76-2.2,1.82-1.47.07-2.27-.48-2.39-1.63-.13-.77-.07-1.72.19-2.87-.13-3.19,0-7.85.38-13.98.13-1.66.77-2.55,1.92-2.68,1.53.13,2.36.89,2.49,2.3l.38,5.36Z"/>
  <path class="cls-1" d="M129.4,81.47c-.77,5.62-1.85,11.17-3.26,16.66,0,.51-.35.89-1.05,1.15-.7.25-1.31.22-1.82-.1-.51-.32-.89-.74-1.15-1.24-.26-.51-.38-1.15-.38-1.92l.57-1.34c.38-1.53.57-2.68.57-3.45,1.92-9.96,2.81-19.98,2.68-30.06l-.38-3.45v-1.92c.51-.77,1.18-1.21,2.01-1.34.83-.12,1.5.19,2.01.96.89,5.62,1.15,11.17.77,16.66-.13,1.53-.07,2.46.19,2.78.25.32.96,1.12,2.11,2.39,1.15,1.28,3.38,2.87,6.7,4.79l4.98,2.68c1.91.89,2.61,1.98,2.11,3.25-.26.77-.74,1.28-1.44,1.53-.7.25-1.5.13-2.39-.38-4.6-2.17-8.55-4.6-11.87-7.28-.13-.25-.38-.58-.77-.96,0,.26-.07.45-.19.57Z"/>
  <path class="cls-1" d="M186.23,45.09c.13,1.28-.19,2.17-.96,2.68-.64.26-1.21.26-1.72,0-.51-.25-.9-.51-1.15-.77l-4.6-7.66c-.51-1.4-.13-2.42,1.15-3.06.38-.38.86-.45,1.44-.19.57.26.99.64,1.24,1.15,1.79,2.43,3.19,4.72,4.21,6.89l.38.96Z"/>
  <path class="cls-1" d="M199.06,88.17c.89.13,2.3.13,4.21,0h3.45c6.64-.13,13.28-1.02,19.92-2.68,5.1-1.27,9.83-3.38,14.17-6.32.77-.38,1.44-.45,2.01-.19.57.26.92.58,1.05.96.77,1.02.64,2.04-.38,3.06l-.96.77c-11.11,6.13-22.98,9.25-35.62,9.38h-7.28c-1.02-.26-2.68-.45-4.98-.58l-.57.19c-.38-.26-.77-.32-1.15-.19-1.28-.26-2.01-.86-2.2-1.82-.19-.96.1-1.89.86-2.78l2.49-2.11c.64-.64.96-1.15.96-1.53s-.19-1.08-.57-2.11c-.38-1.02-1.15-2.04-2.3-3.06-1.79-1.79-3.06-3.89-3.83-6.32-.77-2.42-.77-4.98,0-7.66l.19-3.45c.51-.89.19-1.4-.96-1.53l-5.36-.57-1.72-.77c-1.15-.77-1.56-1.66-1.24-2.68.32-1.02,1.12-1.4,2.39-1.15l6.7.77c3.83.64,5.49,2.94,4.98,6.89v1.15c-.38,1.91-.57,3.45-.57,4.6-.38,2.04.32,4.09,2.11,6.13.64,1.15,1.63,2.52,2.97,4.12,1.34,1.6,2.11,3.16,2.3,4.69.19,1.53-.16,3.13-1.05,4.79Z"/>
  <path class="cls-1" d="M208.06,61.37c1.15-.64,2.68-2.04,4.6-4.21l1.15-.96c.38-.64.89-1.18,1.53-1.63.64-.45.83-1.31.57-2.59l-.96-3.25c-.13-.51,0-1.34.38-2.49l.38-.57c1.27-1.4,2.68-2.23,4.21-2.49,2.3-.64,4.79-.96,7.47-.96,3.45,0,6,1.66,7.66,4.98,1.15,2.3,1.72,4.85,1.72,7.66.13.89.06,1.85-.19,2.87-.51,2.04-1.85,3.06-4.02,3.06-.77.13-1.98.13-3.64,0-.77-.12-1.31-.41-1.63-.86-.32-.45-.48-.96-.48-1.53s.22-1.08.67-1.53c.45-.45,1.05-.73,1.82-.86.77-.13,1.34-.06,1.72.19l.77-.19c.25-.25.32-.57.19-.96.25-2.3-.45-4.6-2.11-6.89-.26-.51-.89-.89-1.92-1.15-2.43-.64-5.24-.32-8.43.96l1.34,5.55,3.06,16.66c.38.64.64,1.66.77,3.06.13.77.13,1.41,0,1.92,0,1.15-.57,1.79-1.72,1.92-1.15.13-1.98-.32-2.49-1.34-.38-.38-.57-.96-.57-1.72l-2.68-14.17c-.38.51-.9,1.02-1.53,1.53l-1.72,1.53c-1.53,1.28-2.75,2.17-3.64,2.68-1.41,1.02-2.78,1.34-4.12.96s-2.27-1.44-2.78-3.16c-.51-1.72-.83-3.09-.96-4.12l-2.11-14.75c-.51-3.96-1.34-6.96-2.49-9-.51-.89-.38-1.92.38-3.06,2.3-3.32,4.21-5.94,5.74-7.85.77-1.15,1.69-1.31,2.78-.48,1.08.83,1.31,1.88.67,3.16l-4.02,5.75c-.51,1.02-.57,1.79-.19,2.3l2.11,9.96,1.92,13.6.77,2.49Z"/>
  <path class="cls-1" d="M288.07,49.11h-.57l-10.91,1.53c-.77.13-1.28.13-1.53,0-1.15-.25-1.79-.83-1.92-1.72-.13-.89.25-1.59,1.15-2.11l2.3-.77,4.6-.77,9.38-1.91c.89-.13,1.34-.51,1.34-1.15-.64-3.96-.96-6.89-.96-8.81l-1.15-6.13c-.13-.77-.03-1.37.29-1.82.32-.45.8-.73,1.44-.86,1.27-.25,2.17.38,2.68,1.92l2.11,13.79c.13,1.02.29,1.66.48,1.92.19.26.8.26,1.82,0,2.42-.38,6.25-1.15,11.49-2.3l2.87-.38c.77-.13,1.37,0,1.82.38.45.38.77.86.96,1.44.19.57.13,1.15-.19,1.72-.32.58-.86.99-1.63,1.25l-9.96,1.92-.19.38c.25,3.19.83,7.85,1.72,13.98,0,1.41.22,2.27.67,2.58.45.32,1.34.38,2.68.19,1.34-.19,3.09-.67,5.27-1.44,1.27-.38,1.88-1.27,1.82-2.68-.07-1.4-.13-2.46-.19-3.16-.07-.7.03-1.24.29-1.63.13-1.27.77-1.98,1.91-2.11.38,0,.83.16,1.34.48.51.32.96.74,1.34,1.24v7.66c-.26,1.92-1.28,3.25-3.06,4.02-3.83,1.92-7.41,2.78-10.72,2.59-3.32-.19-5.24-1.88-5.74-5.08-.51-2.68-.89-6.51-1.15-11.49l-.57-3.83c-.13-.77-.57-1.08-1.34-.96l-4.21.57c-.51.13-.83.58-.96,1.34-.51,8.55-1.92,16.98-4.21,25.28-.38.64-.8,1.15-1.24,1.53-.45.38-.89.61-1.34.67-.45.07-.86-.1-1.24-.48-.89-.64-1.21-1.47-.96-2.49,2.04-7.66,3.57-15.32,4.6-22.98l-.38-1.34Z"/>
  <path class="cls-1" d="M284.81,42.02c-.77-.51-1.28-.83-1.53-.96-2.56-2.81-4.66-5.49-6.32-8.04-.38-.64-.54-1.25-.48-1.82.06-.57.29-1.08.67-1.53.38-.45.96-.57,1.72-.38.77.19,1.21.54,1.34,1.05l1.91,2.11c1.92,2.43,3.32,4.28,4.21,5.55.64.89.83,1.72.57,2.49-.26.77-.96,1.28-2.11,1.53Z"/>
  <path class="cls-1" d="M303.58,38.58c-.77.13-1.44-.12-2.01-.77-.57-.64-.86-1.34-.86-2.11,0-.38.13-.89.38-1.53l4.21-10.15c.38-1.4,1.24-1.98,2.58-1.72,1.34.26,1.88,1.21,1.63,2.87l-1.53,4.21c-.64,1.66-1.53,4.09-2.68,7.28-.26.77-.83,1.41-1.72,1.91Z"/>
  <path class="cls-1" d="M356.58,65.96c-.26-1.4-.77-3.45-1.53-6.13l-1.34-5.75c-.13-.77-.07-1.47.19-2.11.25-.64.77-.96,1.53-.96,1.27-.25,1.92.07,1.92.96.64,1.15,1.27,2.81,1.91,4.98l2.49,13.4c.13.89.19,1.66.19,2.3-.26,1.53-1.09,2.3-2.49,2.3-.51,0-.99-.19-1.44-.58-.45-.38-.67-.96-.67-1.72l-.96-6.7h.19Z"/>
  <path class="cls-1" d="M370.75,65.77c-1.28-8.81-2.49-17.68-3.64-26.62v-1.34c.13-1.15.67-1.79,1.63-1.92.96-.12,1.69.32,2.2,1.34.38.26.64.83.77,1.72,1.15,7.53,2.81,19.02,4.98,34.47l1.72,12.06.19,2.3c-.26.89-.96,1.4-2.11,1.53-1.15.13-2.04-.32-2.68-1.34v-.57c-.26-.51-.32-.89-.19-1.15l-2.87-20.49Z"/>
  <path class="cls-1" d="M390.67,36.86c.38,0,.7-.06.96-.19,5.87-.77,11.62-1.72,17.23-2.87,1.79-.25,2.81.32,3.06,1.72.38.64.35,1.21-.1,1.72-.45.51-1.05.96-1.82,1.34-1.15.38-3.06.7-5.75.96l-12.25,1.92c-.9.13-1.44.29-1.63.48s-.42.8-.67,1.82l-1.15,6.13c-.51,1.92-1.6,2.68-3.25,2.3-.51-.12-.93-.51-1.25-1.15-.32-.64-.38-1.37-.19-2.2.19-.83.54-2.07,1.05-3.73l.57-3.64c.64-4.21.89-7.34.77-9.38l.19-.96c.13-.38.41-.73.86-1.05.45-.32.86-.54,1.24-.67,1.15-.12,1.79.38,1.92,1.53.25.51.38,1.28.38,2.3v1.15l-.19,2.49Z"/>
  <path class="cls-1" d="M398.9,47.77c.25.13.7.32,1.34.58l.57.19,4.98,4.21c.38.64.57,1.24.57,1.82s-.16,1.05-.48,1.44c-.32.38-.83.57-1.53.57s-1.25-.19-1.63-.57l-1.53-1.15c-1.41-1.28-2.49-2.23-3.26-2.87-.77-.64-.89-1.53-.38-2.68,0-.38.38-.83,1.15-1.34l.19-.19Z"/>
  <path class="cls-1" d="M424.56,74.96l-1.34-5.55c-1.28-4.6-4.15-6.57-8.62-5.94l-23.55,4.21c-1.41-.25-2.24,0-2.49.77-.89,1.28-1.02,2.36-.38,3.25.64.89,1.02,1.66,1.15,2.3.77,5.36,1.4,9.38,1.92,12.06.25,1.4.67,2.3,1.24,2.68.57.38,1.56.45,2.97.19h1.15l8.04-1.92,11.68-2.68,4.6-1.34c2.42-1.02,3.57-2.68,3.45-4.98l.19-1.72c-.13-.51-.13-.96,0-1.34ZM404.17,81.66c-.07.13-.35.26-.86.38l-6.7,1.53c-.64.13-1.02-.06-1.15-.57l-2.11-10.15c0-.77.32-1.21.96-1.34l3.83-.57c1.92-.51,3.45-.83,4.6-.96l1.34,9.77c.13,1.15.16,1.79.1,1.92ZM419.01,78.22c-2.94,1.15-6.32,1.98-10.15,2.49-.38-2.3-1.09-5.74-2.11-10.34v-.96l8.43-1.15c1.15.13,1.88.29,2.2.48.32.19.54.8.67,1.82.77,2.55,1.27,4.6,1.53,6.13.13.89-.07,1.41-.57,1.53Z"/>
</svg>